<ttFont>
          <CharString index="0">
            rmoveto
            22 -19 9 -34 32 vhcurveto
            43 -45 -8 36 -40 hhcurveto
            -40 -7 -36 -43 -45 hvcurveto
            -33 -31 -20 -10 -22 vvcurveto
            -17 13 -13 18 27 18 37 13 14 vhcurveto
            37 31 15 11 10 hhcurveto
            10 14 -11 -37 31 hvcurveto
            -13 14 18 -37 27 hhcurveto
            18 13 13 17 hvcurveto
            endchar
          </CharString>
          <CharString index="1">
            636 27 callgsubr
            -163 -103 -155 -146 -146 -103 155 163 168 103 148 146 146 103 -148 -168 vhcurveto
            81 hmoveto
            215 -140 174 -189 -189 -142 -174 -215 -215 140 -176 189 189 142 176 215 vhcurveto
            return
          </CharString>
          <CharString index="2">
            341 -15 rmoveto
            165 77 127 134 3 hvcurveto
            5 229 1 204 30 -43 callgsubr
            -25 -25 -16 -23 callsubr
            -44 5 -136 -203 vvcurveto
            -141 -29 -130 -145 -152 -21 142 145 vhcurveto
            195 5 139 33 -43 callgsubr
            -25 -25 -16 -21 -30 -30 3 -203 3 -229 vhcurveto
            -134 2 77 -128 165 hhcurveto
            return
          </CharString>
          <CharString index="3">
            rmoveto
            18 -12 20 -22 -44 -4 -56 -33 -24 vhcurveto
            -20 -27 -19 -15 -15 vvcurveto
            -11 7 -10 17 35 86 67 62 vhcurveto
            endchar
          </CharString>
          <CharString index="4">
            398 33 rmoveto
            23 17 callsubr
            -15 -33 -4 -1 -40 vhcurveto
            -1 45 -4 112 152 vvcurveto
            152 4 110 1 46 vhcurveto
            -2 40 33 -3 15 hhcurveto
            return
          </CharString>
          <CharString index="5">
            rmoveto
            21 -11 24 -28 28 callsubr
            33 18 37 27 vhcurveto
            return
          </CharString>
          <CharString index="6">
            hstemhm
            46 2 callsubr
            hintmask 10110010
            -104 callgsubr
            hintmask 10101010
            -54 -42 -5 -54 hhcurveto
            hintmask 10110001
            -95 -48 5 -50 hhcurveto
            -40 -13 -14 -24 -9 2 -14 10 -14 hvcurveto
            4 -34 1 -16 2 -193 rrcurveto
            1 -9 -6 0 -5 hhcurveto
            hintmask 10110010
            -92 callsubr
            hintmask 01110001
            5 6 0 1 9 hvcurveto
            -227 -5 -2 -101 vvcurveto
            -25 15 -13 30 vhcurveto
            hintmask 10110010
            26 75 5 74 hhcurveto
            hintmask 01110010
            -51 callsubr
            hvcurveto
            hintmask 00000100
            return
          </CharString>
          <CharString index="7">
            rmoveto
            15 -19 15 -20 27 vhcurveto
            33 -24 -4 56 -44 hhcurveto
            -22 -12 -20 -18 -62 86 -67 35 17 7 10 11 hvcurveto
            endchar
          </CharString>
          <CharString index="8">
            237 40 rmoveto
            -30 14 -20 27 27 14 20 30 vhcurveto
            21 -5 107 146 vvcurveto
            117 205 rlineto
            78 137 30 40 32 vvcurveto
            19 -12 13 -19 -32 -3 -26 -162 -86 vhcurveto
            -40 -75 -43 -70 -23 -36 -23 36 -36 61 -34 60 rrcurveto
            136 -77 -20 76 -39 hhcurveto
            -27 -10 -20 -17 -30 44 -58 73 -128 hvcurveto
            110 -193 rlineto
            -146 -5 -102 -26 vvcurveto
            return
          </CharString>
          <CharString index="9">
            -91 callsubr
            hvcurveto
            return
          </CharString>
          <CharString index="10">
            -24 28 hhcurveto
            19 9 15 18 27 -48 31 -56 -64 -64 39 callgsubr
            return
          </CharString>
          <CharString index="11">
            -20 -9 1 -57 callgsubr
            1 20 hhcurveto
            -66 vlineto
            -180 -6 -78 callsubr
            14 -87 callgsubr
            35 32 -2 30 hhcurveto
            return
          </CharString>
          <CharString index="12">
            21 -11 24 -28 28 callsubr
            33 18 37 27 vhcurveto
            endchar
          </CharString>
          <CharString index="13">
            -82 callsubr
            69 hhcurveto
            73 38 -65 -87 hvcurveto
            -56 -4 -85 -43 vvcurveto
            -71 13 -47 54 29 26 26 35 return
          </CharString>
          <CharString index="14">
            -91 -24 -72 -96 -69 hhcurveto
            -73 -38 66 87 hvcurveto
            53 8 126 41 vvcurveto
            65 -23 17 -23 -25 -18 -17 -30 vhcurveto
            return
          </CharString>
          <CharString index="15">
            -30 -18 -16 -23 -23 18 -14 30 hvcurveto
            return
          </CharString>
          <CharString index="16">
            -24 -17 -13 -20 -20 17 -13 24 return
          </CharString>
          <CharString index="17">
            -30 35 -20 44 -44 vhcurveto
            -41 41 12 -26 29 hhcurveto
            17 14 14 19 28 -38 14 -32 29 hvcurveto
            -35 31 -13 18 8 vvcurveto
            8 13 18 35 31 vhcurveto
            32 29 38 14 28 vvcurveto
            19 -14 14 -17 -29 -12 -26 -41 -41 vhcurveto
            -44 -44 -35 -20 -30 vvcurveto
            return
          </CharString>
          <CharString index="18">
            rmoveto
            73 208 59 108 38 vvcurveto
            28 -20 7 -10 -20 -15 -11 -40 -14 vhcurveto
            -11 -31 -40 -123 -65 -185 rrcurveto
            -73 -208 -57 -109 -38 vvcurveto
            -28 20 -7 10 20 15 11 40 14 vhcurveto
            11 31 38 124 65 185 rrcurveto
            return
          </CharString>
          <CharString index="19">
            -87 callgsubr
            1 29 24 1 33 hhcurveto
            59 52 -2 -2 33 hvcurveto
            1 -37 4 return
          </CharString>
          <CharString index="20">
            -93 callgsubr
            63 vlineto
            return
          </CharString>
          <CharString index="21">
            -55 rmoveto
            -50 7 -63 -37 -18 hvcurveto
            -14 -30 -15 -15 -15 vvcurveto
            -10 9 -10 14 30 72 74 62 24 -14 20 -21 vhcurveto
            return
          </CharString>
          <CharString index="22">
            378 rmoveto
            16 -3 60 96 89 3 61 14 vvcurveto
            30 -12 21 -24 -24 -6 -8 -69 -57 vhcurveto
            -36 -44 -44 -30 -25 vvcurveto
            -21 15 -9 16 25 30 49 27 24 vhcurveto
            return
          </CharString>
          <CharString index="23">
            16 callsubr
            -11 18 -17 10 vhcurveto
            15 -30 -54 14 return
          </CharString>
          <CharString index="24">
            rmoveto
            176 -141 142 -173 -173 -141 -142 -176 -176 141 -142 173 173 141 142 176 vhcurveto
            -61 hmoveto
            -146 -114 -119 -140 -140 -113 119 146 146 113 119 140 140 114 -119 -146 vhcurveto
            return
          </CharString>
          <CharString index="25">
            -70 callgsubr
            33 -3 69 -15 callgsubr
            91 24 72 95 return
          </CharString>
          <CharString index="26">
            -29 -30 -61 -101 hhcurveto
            -75 -73 77 94 -8 hvcurveto
            -6 30 59 -9 38 hhcurveto
            110 106 43 107 hvcurveto
            return
          </CharString>
          <CharString index="27">
            20 -17 13 -24 vhcurveto
            return
          </CharString>
          <CharString index="28">
            13 -14 -5 -16 7 vhcurveto
            -22 9 0 40 43 vvcurveto
            return
          </CharString>
          <CharString index="29">
            -124 -41 callgsubr
            return
          </CharString>
          <CharString index="30">
            -138 -87 -18 -34 vvcurveto
            -8 7 -11 20 40 84 71 128 vhcurveto
            return
          </CharString>
          <CharString index="31">
            57 53 -6 19 -50 callsubr
            16 23 hvcurveto
            return
          </CharString>
          <CharString index="32">
            -6 -70 -34 vvcurveto
            -52 16 -23 30 -70 callgsubr
            -28 30 47 -23 53 hhcurveto
            136 89 131 140 hvcurveto
            -71 hmoveto
            -121 -77 -85 -77 -59 -38 25 33 -34 vhcurveto
            -5 154 rlineto
            98 32 63 80 79 hhcurveto
            77 39 -88 -96 hvcurveto
            endchar
          </CharString>
          <CharString index="33">
            -74 114 rlineto
            64 39 70 46 87 vvcurveto
            63 -48 54 -80 -9 callgsubr
            return
          </CharString>
          <CharString index="34">
            rmoveto
            -80 callsubr
            return
          </CharString>
          <CharString index="35">
            15 23 23 -21 17 -30 hvcurveto
            return
          </CharString>
          <CharString index="36">
            107 11 -21 259 70 327 114 return
          </CharString>
          <CharString index="37">
            30 rmoveto
            -56 callgsubr
            hvcurveto
            hintmask 01110000
            -20 17 -13 24 vhcurveto
            hintmask 10110000
            33 callsubr
            hintmask 01110000
            76 76 -3 25 -86 callgsubr
            return
          </CharString>
          <CharString index="38">
            53 0 66 -50 -21 372 66 251 71 -5 -20 return
          </CharString>
          <CharString index="39">
            53 37 26 21 vvcurveto
            11 -9 8 -11 -45 -60 -109 -93 -22 13 -28 29 37 15 35 25 vhcurveto
            return
          </CharString>
          <CharString index="40">
            -23 -23 18 -14 30 hvcurveto
            18 hlineto
            return
          </CharString>
          <CharString index="41">
            -7 callsubr
            -7 callgsubr
            -103 callsubr
            return
          </CharString>
          <CharString index="42">
            91 -67 67 hstemhm
            20 154 -67 232 return
          </CharString>
          <CharString index="43">
            rmoveto
            22 -18 10 -24 vhcurveto
            -20 -42 -5 -41 hhcurveto
            -51 hlineto
            14 21 39 44 33 44 rrcurveto
            33 44 51 60 58 vvcurveto
            47 -39 54 -78 -75 -46 -51 -24 -17 11 -12 15 vhcurveto
            return
          </CharString>
          <CharString index="44">
            -13 -156 -16 -108 -65 vvcurveto
            -53 23 -19 25 28 13 18 51 16 0 63 2 121 vhcurveto
            -25 34 52 -24 56 hhcurveto
            142 93 131 140 hvcurveto
            endchar
          </CharString>
          <CharString index="45">
            31 35 rlineto
            -120 vlineto
            -96 -3 -60 -16 vvcurveto
            -24 13 -16 19 20 13 16 24 vhcurveto
            return
          </CharString>
          <CharString index="46">
            60 -42 -21 66 -20 hstemhm
            hintmask 01100000
            return
          </CharString>
          <CharString index="47">
            vvcurveto
            23 -16 14 -18 -27 -10 -26 -18 -4 vhcurveto
            -19 -96 -57 -128 -69 -59 rrcurveto
            1 -15 -16 2 -16 hhcurveto
            -30 -31 -2 -10 -25 hvcurveto
            162 5 96 26 vvcurveto
            return
          </CharString>
          <CharString index="48">
            22 -5 61 65 65 4 63 23 vvcurveto
            27 -12 16 -23 -22 -11 -16 -27 vhcurveto
            -23 4 -63 -65 -65 -5 -61 -22 vvcurveto
            -27 12 -19 22 23 13 19 27 vhcurveto
            return
          </CharString>
          <CharString index="49">
            -51 -44 58 -80 hhcurveto
            -79 -64 -50 -40 -19 15 -14 19 hvcurveto
            49 8 61 62 hhcurveto
            return
          </CharString>
          <CharString index="50">
            125 22 -75 54 -38 callsubr
            54 -114 57 -121 -195 -141 -174 -215 -215 135 -177 191 166 return
          </CharString>
          <CharString index="51">
            -13 11 -64 2 -35 vhcurveto
            -50 3 4 -23 20 hhcurveto
            21 3 23 50 3 hvcurveto
            return
          </CharString>
          <CharString index="52">
            -21 hhcurveto
            -20 -18 -10 -22 return
          </CharString>
          <CharString index="53">
            27 9 -37 37 hhcurveto
            19 18 18 24 29 -29 32 -65 -64 -61 -67 -62 -25 hvcurveto
            32 1 23 24 vvcurveto
            29 -14 21 -25 -25 -14 -23 callsubr
            return
          </CharString>
          <CharString index="54">
            -19 -52 -6 -58 hhcurveto
            return
          </CharString>
          <CharString index="55">
            180 5 122 30 vvcurveto
            37 -19 14 -22 -20 -12 -11 -17 -8 vhcurveto
            -28 -59 -29 -78 -41 -93 -50 -113 -50 -101 -29 -56 return
          </CharString>
          <CharString index="56">
            70 68 -5 24 -50 callsubr
            13 25 return
          </CharString>
          <CharString index="57">
            hhcurveto
            30 20 return
          </CharString>
          <CharString index="58">
            -86 callgsubr
            endchar
          </CharString>
          <CharString index="59">
            239 -15 73 634 73 return
          </CharString>
          <CharString index="60">
            38 0 45 57 hhcurveto
            30 22 -21 -29 -34 -51 -66 -22 -28 hvcurveto
            -70 -89 -43 -30 -37 vvcurveto
            -27 22 -11 18 vhcurveto
            return
          </CharString>
          <CharString index="61">
            -53 callgsubr
            hintmask 10000000
            return
          </CharString>
          <CharString index="62">
            -15 65 -65 126 95 63 181 65 return
          </CharString>
          <CharString index="63">
            98 33 19 29 vhcurveto
            return
          </CharString>
          <CharString index="64">
            -52 callgsubr
            hstemhm
            return
          </CharString>
          <CharString index="65">
            13 18 3 40 hhcurveto
            21 23 -2 -1 15 hvcurveto
            -21 -24 -15 -18 -47 -49 rrcurveto
            -43 -8 -17 -22 -17 vvcurveto
            return
          </CharString>
          <CharString index="66">
            -21 25 25 return
          </CharString>
          <CharString index="67">
            vvcurveto
            30 -19 -5 callgsubr
            -19 -21 -30 return
          </CharString>
          <CharString index="68">
            11 -21 770 -20 return
          </CharString>
          <CharString index="69">
            hhcurveto
            20 14 13 21 return
          </CharString>
          <CharString index="70">
            -35 17 -91 -26 callgsubr
            endchar
          </CharString>
          <CharString index="71">
            148 -15 70 705 -20 return
          </CharString>
          <CharString index="72">
            -14 -24 rrcurveto
            -7 -11 -6 -15 -10 vvcurveto
            -18 11 -17 23 15 18 7 17 12 vhcurveto
            14 22 return
          </CharString>
          <CharString index="73">
            81 22 -59 32 hhcurveto
            19 15 15 22 37 -71 50 -89 -158 -98 -123 -142 return
          </CharString>
          <CharString index="74">
            -71 callgsubr
            -104 -104 39 callgsubr
            return
          </CharString>
          <CharString index="75">
            -69 -9 51 -31 hhcurveto
            -14 -10 -9 -19 -27 58 -56 70 95 53 72 70 hvcurveto
            endchar
          </CharString>
          <CharString index="76">
            -61 61 276 71 -71 118 return
          </CharString>
          <CharString index="77">
            250 -20 hstemhm
            68 78 -60 60 return
          </CharString>
          <CharString index="78">
            56 43 -58 72 hhcurveto
            54 57 52 35 hvcurveto
            return
          </CharString>
          <CharString index="79">
            5 -52 callgsubr
            return
          </CharString>
          <CharString index="80">
            -24 -17 -12 -20 -20 17 -12 24 hvcurveto
            hintmask 01110100
            20 56 2 1 61 hvcurveto
            return
          </CharString>
          <CharString index="81">
            17 13 7 26 25 hvcurveto
            47 -3 41 -33 -55 vvcurveto
            -45 -31 -35 -49 vhcurveto
            return
          </CharString>
          <CharString index="82">
            vhcurveto
            4 17 30 5 28 hhcurveto
            207 101 -157 -162 hvcurveto
            endchar
          </CharString>
          <CharString index="83">
            497 -21 252 -20 hstemhm
            return
          </CharString>
          <CharString index="84">
            -21 -30 vhcurveto
            return
          </CharString>
          <CharString index="85">
            -27 -35 -53 -82 hhcurveto
            -103 -78 91 111 110 81 88 91 hvcurveto
            return
          </CharString>
          <CharString index="86">
            -11 -10 -6 -12 -11 vvcurveto
            -16 14 -14 16 10 10 4 8 10 vhcurveto
            return
          </CharString>
          <CharString index="87">
            38 10 19 18 30 -26 11 -25 -73 -54 -71 -72 -69 47 -70 81 return
          </CharString>
          <CharString index="88">
            -209 -21 220 -27 callgsubr
            return
          </CharString>
          <CharString index="89">
            25 76 3 76 return
          </CharString>
          <CharString index="90">
            49 rmoveto
            28 -14 25 -17 callgsubr
            -31 -32 vhcurveto
            -32 8 -1 -40 return
          </CharString>
          <CharString index="91">
            691 rmoveto
            60 14 -78 -85 hvcurveto
            -52 -3 -58 -60 vvcurveto
            -230 return
          </CharString>
          <CharString index="92">
            -13 -20 -30 return
          </CharString>
          <CharString index="93">
            -32 -117 -6 -96 hhcurveto
            -21 76 hlineto
            -44 callsubr
            return
          </CharString>
          <CharString index="94">
            -17 19 hhcurveto
            14 13 11 20 9 hvcurveto
            193 424 rlineto
            return
          </CharString>
          <CharString index="95">
            -85 -78 5 -29 hhcurveto
            -30 -18 -13 -25 -25 18 -13 30 hvcurveto
            return
          </CharString>
          <CharString index="96">
            -230 65 -65 102 118 65 return
          </CharString>
          <CharString index="97">
            67 hstemhm
            20 155 -67 return
          </CharString>
          <CharString index="98">
            49 -10 38 callsubr
            return
          </CharString>
          <CharString index="99">
            -5 23 -50 callsubr
            return
          </CharString>
          <CharString index="100">
            72 -72 216 return
          </CharString>
          <CharString index="101">
            109 hstemhm
            return
          </CharString>
          <CharString index="102">
            167 hstemhm
            return
          </CharString>
          <CharString index="103">
            3 -20 hhcurveto
            -30 -16 -13 -20 -20 16 -13 30 hvcurveto
            19 return
          </CharString>
          <CharString index="104">
            70 -70 136 509 135 -70 70 hstemhm
            57 81 return
          </CharString>
          <CharString index="105">
            18 -14 18 -23 -12 -13 -6 -15 -11 vhcurveto
            -28 -41 return
          </CharString>
          <CharString index="106">
            rrcurveto
            21 -9 -12 14 -20 hhcurveto
            -22 -19 -15 -36 hvcurveto
            return
          </CharString>
          <CharString index="107">
            18 -11 15 -18 -21 -14 -12 -29 -6 vhcurveto
            -7 -32 return
          </CharString>
          <CharString index="108">
            -21 310 97 299 69 return
          </CharString>
          <CharString index="109">
            140 -72 72 return
          </CharString>
          <CharString index="110">
            57 71 39 21 27 vvcurveto
            34 -38 3 -16 vhcurveto
            return
          </CharString>
          <CharString index="111">
            51 9 18 20 17 vvcurveto
            23 -15 10 -27 vhcurveto
            return
          </CharString>
          <CharString index="112">
            13 callgsubr
            99 151 146 return
          </CharString>
          <CharString index="113">
            -230 64 -64 89 return
          </CharString>
          <CharString index="114">
            hstemhm
            72 71 -65 65 return
          </CharString>
          <CharString index="115">
            29 1 105 86 90 5 110 30 vvcurveto
            return
          </CharString>
          <CharString index="116">
            -66 callgsubr
            -44 callgsubr
            vvcurveto
            return
          </CharString>
          <CharString index="117">
            41 45 -4 16 hhcurveto
            24 18 10 22 hvcurveto
            return
          </CharString>
          <CharString index="118">
            20 callsubr
            hvcurveto
            return
          </CharString>
          <CharString index="119">
            -1 64 60 -2 22 hhcurveto
            return
          </CharString>
          <CharString index="120">
            -235 180 66 -21 return
          </CharString>
          <CharString index="121">
            27 -15 65 400 65 return
          </CharString>
          <CharString index="122">
            66 hstemhm
            71 78 -61 61 return
          </CharString>
          <CharString index="123">
            27 vvcurveto
            30 return
          </CharString>
          <CharString index="124">
            -20 15 -30 return
          </CharString>
          <CharString index="125">
            13 27 rrcurveto
            6 11 7 7 15 vvcurveto
            return
          </CharString>
          <CharString index="126">
            -124 588 172 hstem
            351 return
          </CharString>
          <CharString index="127">
            -58 -54 5 -20 hhcurveto
            -30 -18 -16 -23 return
          </CharString>
          <CharString index="128">
            28 0 60 -42 -21 577 -20 hstemhm
            return
          </CharString>
          <CharString index="129">
            28 callsubr
            hvcurveto
            return
          </CharString>
          <CharString index="130">
            -24 -82 rrcurveto
            -80 -24 -32 -107 -9 hhcurveto
            return
          </CharString>
          <CharString index="131">
            32 callsubr
            hvcurveto
            return
          </CharString>
          <CharString index="132">
            vvcurveto
            43 -13 40 -39 -27 -16 -16 -50 return
          </CharString>
          <CharString index="133">
            -40 -17 31 31 40 26 25 28 vhcurveto
            return
          </CharString>
          <CharString index="134">
            172 hstemhm
            return
          </CharString>
          <CharString index="135">
            -32 -20 -28 -32 -27 14 -22 26 return
          </CharString>
          <CharString index="136">
            -312 -168 -21 699 -20 return
          </CharString>
          <CharString index="137">
            -76 3 -25 hhcurveto
            -24 -17 -13 -20 return
          </CharString>
          <CharString index="138">
            247 -221 242 -63 63 return
          </CharString>
          <CharString index="139">
            36 14 37 27 21 -11 24 -28 return
          </CharString>
          <CharString index="140">
            -18 callsubr
            hhcurveto
            return
          </CharString>
          <CharString index="141">
            hstemhm
            39 216 -72 return
          </CharString>
          <CharString index="142">
            46 71 328 71 return
          </CharString>
          <CharString index="143">
            -66 -60 3 -22 hhcurveto
            return
          </CharString>
          <CharString index="144">
            -21 209 95 return
          </CharString>
          <CharString index="145">
            65 455 -20 return
          </CharString>
        <CharString name=".notdef">
          465 endchar
        </CharString>
        <CharString name=".null">
          -535 endchar
        </CharString>
        <CharString name="A">
          -71 callsubr
          hstem
          -107 callgsubr
          endchar
        </CharString>
        <CharString name="A.alt">
          282 -15 66 234 63 298 114 hstem
          32 65 vstem
          577 338 rmoveto
          6 -36 -44 4 -39 hhcurveto
          -30 -40 -2 -4 -27 hvcurveto
          0 94 304 15 12 95 -308 0 vhcurveto
          -311 -79 rmoveto
          -121 -44 -43 -87 -44 hhcurveto
          -22 -16 16 28 57 74 76 95 31 hvcurveto
          390 66 rmoveto
          -49 146 -61 194 -14 35 rrcurveto
          35 -14 -14 25 -36 hhcurveto
          -34 -16 -37 -23 -8 hvcurveto
          -14 -41 -74 -228 -38 -103 rrcurveto
          -159 -35 -93 -115 -85 vvcurveto
          -53 32 -55 68 99 46 121 169 67 vhcurveto
          6 29 35 4 28 hhcurveto
          70 53 -6 -7 38 hvcurveto
          23 -76 27 -81 22 -65 rrcurveto
          -44 15 24 -21 28 hhcurveto
          29 27 24 43 15 -16 -12 -21 13 hvcurveto
          -27 17 -19 62 -33 105 rrcurveto
          -8 22 9 -6 17 hhcurveto
          19 6 9 14 16 -31 29 -62 19 hvcurveto
          endchar
        </CharString>
        <CharString name="AE">
          306 -8 74 -50 -21 26 -21 250 62 60 66 246 71 -5 -20 hstemhm
          hintmask 10011100
          383 313 rmoveto
          -15 -23 -1 -23 hhcurveto
          -42 -44 1 2 -37 hvcurveto
          0 105 331 15 vhcurveto
          8 -29 21 -85 35 -219 rrcurveto
          -344 -284 rmoveto
          -26 15 -11 22 30 -3 5 249 74 vhcurveto
          3 62 81 1 70 hhcurveto
          15 -98 11 -68 8 -46 rrcurveto
          hintmask 01011100
          -30 5 20 -13 30 hhcurveto
          hintmask 00111100
          23 60 5 66 hhcurveto
          hintmask 01011100
          66 63 -5 23 -81 callgsubr
          hintmask 10011100
          -22 -64 -5 -66 hhcurveto
          -48 -48 2 2 -32 hvcurveto
          -17 63 -22 135 -19 102 rrcurveto
          1 18 21 1 21 74 71 -5 25 -50 callsubr
          12 25 25 -20 14 -30 hvcurveto
          -26 -70 -5 -74 hhcurveto
          -26 -25 1 1 -22 hvcurveto
          -20 114 -20 126 0 vvcurveto
          4 34 17 0 89 50 40 -5 50 -81 callgsubr
          hintmask 10011010
          -50 -40 -5 -50 hhcurveto
          hintmask 10011100
          -105 -51 5 -56 hhcurveto
          -35 -16 -37 -23 -8 hvcurveto
          -14 -41 -78 -234 -38 -103 rrcurveto
          1 -18 -14 0 -9 hhcurveto
          -30 -18 -14 -67 callsubr
          -30 -99 -36 -89 -27 vvcurveto
          endchar
        </CharString>
        <CharString name="Aacute">
          -71 callsubr
          43 -5 callsubr
          269 145 hintmask 11100000
          -107 callgsubr
          hintmask 00011000
          92 620 -104 callsubr
        </CharString>
        <CharString name="Acircumflex">
          -71 callsubr
          52 27 callsubr
          hintmask 11100000
          -107 callgsubr
          hintmask 00010000
          145 530 -107 callsubr
        </CharString>
        <CharString name="Adieresis">
          -71 callsubr
          86 -6 callsubr
          201 28 callgsubr
          hintmask 11100000
          -107 callgsubr
          hintmask 00011100
          -30 598 -105 callgsubr
        </CharString>
        <CharString name="Agrave">
          -71 callsubr
          43 -5 callsubr
          hintmask 11100000
          -107 callgsubr
          hintmask 00010000
          42 512 -100 callsubr
        </CharString>
        <CharString name="Aring">
          -71 callsubr
          37 47 95 47 hstemhm
          227 47 88 47 hintmask 11100000
          -107 callgsubr
          hintmask 00011110
          87 579 -63 callgsubr
        </CharString>
        <CharString name="Atilde">
          -71 callsubr
          67 -30 callgsubr
          hintmask 11100000
          -107 callgsubr
          hintmask 00010010
          178 600 -61 callgsubr
          hintmask 00001100
          -83 callgsubr
          hintmask 00010010
          -62 callgsubr
        </CharString>
        <CharString name="B">
          120 -15 67 299 83 263 68 hstemhm
          65 120 -72 72 294 73 -24 24 -24 79 hintmask 11110100
          285 765 rmoveto
          -57 -163 -24 -64 -16 8 -17 22 5 5 1 1 6 hvcurveto
          hintmask 11101001
          -40 2 -140 -98 -109 -3 -133 -43 vvcurveto
          6 -11 -10 1 -5 hhcurveto
          -17 -11 -12 -16 -46 98 -31 134 188 131 76 145 92 -68 83 -95 27 hvcurveto
          hintmask 11110010
          57 30 51 53 90 vvcurveto
          76 -74 108 -193 vhcurveto
          -713 vmoveto
          -33 -42 5 4 -21 hvcurveto
          -3 58 -1 141 98 vvcurveto
          -5 20 21 -2 23 hhcurveto
          42 43 10 5 29 hvcurveto
          65 -11 100 -50 -93 vvcurveto
          -106 -100 -54 -143 vhcurveto
          645 vmoveto
          hintmask 11110100
          146 48 -68 -49 -100 -99 -45 -35 -1 hvcurveto
          5 -26 -37 3 -16 hhcurveto
          -39 -23 0 -10 -19 hvcurveto
          101 0 97 3 53 vhcurveto
          5 19 22 9 56 hhcurveto
          endchar
        </CharString>
        <CharString name="B.alt">
          207 -15 70 -70 161 -27 243 -67 67 75 66 192 70 hstemhm
          53 69 61 81 296 74 -25 80 hintmask 1001111110000000
          634 585 rmoveto
          95 -92 85 -177 -57 -125 -6 -88 -57 7 -64 2 -53 vhcurveto
          -91 -13 -48 -41 -51 vvcurveto
          -40 38 -53 101 -4 vhcurveto
          -1 -69 -4 -16 -40 vvcurveto
          hintmask 1010111101000000
          -30 17 -41 callsubr
          14 21 30 31 -3 33 -1 64 vhcurveto
          84 11 89 33 68 50 rrcurveto
          63 -31 41 -56 -64 vvcurveto
          -109 -118 -77 -157 vhcurveto
          hintmask 0101111101000000
          -163 -51 91 -43 hhcurveto
          -15 -18 -13 -23 -45 135 -80 156 186 168 88 170 84 -53 66 -80 44 hvcurveto
          hintmask 1010111110000000
          48 42 30 54 52 vvcurveto
          -372 87 rmoveto
          15 31 39 8 43 hhcurveto
          106 79 -35 -77 -40 -24 -45 -43 -33 hvcurveto
          23 -65 -75 15 -89 hhcurveto
          -2 101 0 35 33 vvcurveto
          -237 vmoveto
          2 7 9 0 12 hhcurveto
          41 63 -2 -16 49 hvcurveto
          -40 -26 -86 -26 -55 -1 rrcurveto
          -69 -4 rmoveto
          -66 2 -5 21 12 vvcurveto
          17 24 11 47 5 vhcurveto
          endchar
        </CharString>
        <CharString name="C">
          123 -15 -3 callsubr
          hintmask 01101000
          620 95 rmoveto
          15 -8 11 -19 vhcurveto
          hintmask 10011000
          -31 -37 -66 -143 hhcurveto
          -146 -98 5 callsubr
          hvcurveto
          hintmask 10101000
          113 20 -65 48 -38 callsubr
          52 -104 49 -111 -189 -137 -174 -215 -215 135 -176 189 141 98 74 36 hvcurveto
          endchar
        </CharString>
        <CharString name="C.alt">
          161 -15 70 -70 158 265 66 -66 219 68 70 hstemhm
          57 81 228 72 -72 100 98 72 hintmask 0110111010000000
          383 765 rmoveto
          -189 -137 -174 -215 -215 139 -176 195 147 102 90 42 15 -12 11 -15 hvcurveto
          hintmask 1010111010000000
          -31 -40 -88 -150 hhcurveto
          -152 -102 5 callsubr
          124 57 -80 -62 -52 -31 -27 -35 -33 -27 19 37 hvcurveto
          hintmask 1001110110000000
          32 28 9 24 vvcurveto
          20 -16 12 -19 -36 -29 -44 -53 -64 55 -58 77 73 65 60 90 107 -100 100 -153 vhcurveto
          endchar
        </CharString>
        <CharString name="CR">
          -265 endchar
        </CharString>
        <CharString name="Ccedilla">
          102 6 callsubr
          126 -3 callsubr
          121 3 callgsubr
          487 26 callgsubr
          129 4 89 71 35 vvcurveto
          15 -8 11 -19 vhcurveto
          hintmask 1010011100000000
          -30 -35 -66 -136 hhcurveto
          -140 -94 13 callgsubr
          95 151 140 hvcurveto
          hintmask 1010101010000000
          107 19 -65 45 -38 callsubr
          52 -99 49 -106 -183 -133 -174 -215 -194 106 -162 155 -30 hvcurveto
          hintmask 1010101001000000
          -78 96 -14 -32 vvcurveto
          -19 -25 -13 -27 vhcurveto
          hintmask 0110101010000000
          -59 callgsubr
        </CharString>
        <CharString name="D">
          174 -15 71 598 106 -72 72 hstemhm
          61 125 -72 72 388 78 hintmask 11010100
          652 -35 callgsubr
          hintmask 10101100
          -44 5 -136 -106 -109 -3 -133 -43 -60 callgsubr
          1 4 -19 vhcurveto
          -3 60 -3 140 105 vvcurveto
          109 1 142 4 62 -25 callsubr
        </CharString>
        <CharString name="D.alt">
          288 -15 70 252 154 -67 67 197 102 -70 70 hstemhm
          50 78 100 78 -78 248 209 82 hintmask 1011010110000000
          767 373 rmoveto
          193 -130 194 -256 -79 -126 -18 -50 -23 18 -11 30 vhcurveto
          1 -33 3 -80 -89 vvcurveto
          -92 -17 -86 -80 -113 vvcurveto
          -146 127 -115 181 261 148 190 198 vhcurveto
          -467 21 rmoveto
          hintmask 1101010110000000
          79 27 -87 36 -38 callsubr
          52 -84 62 -91 6 hvcurveto
          hintmask 1010111010000000
          0 3 204 2 16 vhcurveto
          5 22 25 4 28 hhcurveto
          207 97 -170 -152 -173 -142 -140 -186 -141 -88 92 99 64 37 58 64 18 hvcurveto
          -48 vlineto
          -52 -4 -44 -27 vvcurveto
          -30 19 -18 22 22 18 19 30 23 -4 38 -1 45 vhcurveto
          endchar
        </CharString>
        <CharString name="E">
          -69 callsubr
          hstemhm
          46 2 callsubr
          hintmask 10110100
          -104 callgsubr
          hintmask 10101100
          -54 -42 -5 -54 hhcurveto
          hintmask 10110010
          -95 -48 5 -50 hhcurveto
          -40 -13 -14 -24 -9 2 -14 10 -14 hvcurveto
          4 -34 1 -16 2 -193 rrcurveto
          1 -9 -6 0 -5 hhcurveto
          hintmask 10110100
          -92 callsubr
          hintmask 01110010
          5 6 0 1 9 hvcurveto
          -227 -5 -2 -101 vvcurveto
          -25 15 -13 30 vhcurveto
          hintmask 10110100
          26 75 5 74 hhcurveto
          hintmask 01110100
          -51 callsubr
          hvcurveto
          endchar
        </CharString>
        <CharString name="E.alt">
          96 -15 70 -70 156 201 60 46 60 122 135 -70 70 hstemhm
          53 80 -18 74 hintmask 10110101
          333 765 rmoveto
          -100 -118 -65 -125 -60 23 -45 32 -33 hvcurveto
          hintmask 01111010
          -68 -45 -49 -60 -106 vvcurveto
          -109 101 -132 204 137 112 88 42 15 -10 11 -18 vhcurveto
          hintmask 10111010
          -41 -32 -86 -148 hhcurveto
          -156 -69 103 77 90 50 43 35 24 hvcurveto
          -26 35 57 -24 46 hhcurveto
          100 32 53 32 36 -33 45 -86 -49 -47 -16 -19 -40 hvcurveto
          hintmask 10110101
          -33 27 -11 32 43 vvcurveto
          87 90 33 64 vhcurveto
          hintmask 10110110
          107 19 -65 45 -38 callsubr
          52 -99 49 -116 hvcurveto
          -60 -337 rmoveto
          0 37 20 45 53 6 -13 -8 -8 -8 -17 -52 -46 -35 26 0 vhcurveto
          endchar
        </CharString>
        <CharString name="Eacute">
          -69 callsubr
          73 -5 callsubr
          46 2 callsubr
          85 145 -100 callgsubr
          hintmask 0000010010000000
          -125 899 -104 callsubr
        </CharString>
        <CharString name="Ecircumflex">
          -69 callsubr
          82 172 -101 callsubr
          -82 809 -107 callsubr
        </CharString>
        <CharString name="Edieresis">
          -69 callsubr
          116 -6 callsubr
          46 2 callsubr
          12 28 callgsubr
          -100 callgsubr
          hintmask 0000010011000000
          -252 877 -105 callgsubr
        </CharString>
        <CharString name="Egrave">
          -69 callsubr
          73 167 -101 callsubr
          -195 791 -100 callsubr
        </CharString>
        <CharString name="Eth">
          193 -15 71 284 61 253 106 -72 72 hstemhm
          7 199 -125 125 -72 72 -72 239 221 78 hintmask 1110010010000000
          672 -35 callgsubr
          hintmask 1110001010000000
          -42 4 -107 1 -104 vhcurveto
          1 -40 -33 2 -13 hhcurveto
          hintmask 1110100010000000
          -98 callsubr
          hintmask 1110001010000000
          13 33 1 1 40 hvcurveto
          -1 -103 -2 -114 -40 -60 callgsubr
          2 4 -19 vhcurveto
          -3 55 -3 123 101 vvcurveto
          -1 58 46 -2 22 hhcurveto
          hintmask 1110000110000000
          -40 callgsubr
          hintmask 1101100010000000
          -22 -46 -3 -58 hhcurveto
          103 1 119 4 56 -25 callsubr
        </CharString>
        <CharString name="Euro">
          108 -15 64 -64 130 137 63 64 60 148 128 -63 63 hstemhm
          hintmask 01111000
          487 285 rmoveto
          -56 callgsubr
          -20 17 -13 24 9 17 0 1 21 hvcurveto
          -153 27 92 -115 138 hhcurveto
          111 75 67 33 15 -11 15 -18 hvcurveto
          hintmask 10110100
          -31 -32 -66 -94 hhcurveto
          -102 -63 87 118 -22 hvcurveto
          1 20 20 0 20 76 76 -3 25 -86 callgsubr
          124 12 callgsubr
          hhcurveto
          -62 hlineto
          123 20 65 90 104 hhcurveto
          hintmask 10111000
          87 19 -65 34 hhcurveto
          25 7 19 11 44 -73 54 -99 -140 -93 -117 -157 -25 hvcurveto
          -21 -16 1 -9 hhcurveto
          -98 callsubr
          -18 callsubr
          76 76 -3 25 -49 callsubr
        </CharString>
        <CharString name="F">
          31 11 -21 377 66 251 71 -5 -20 hstemhm
          45 2 callsubr
          hintmask 11100100
          475 399 rmoveto
          23 -21 16 -30 vhcurveto
          -25 -70 -5 -74 hhcurveto
          -25 -23 1 1 -22 hvcurveto
          114 5 131 0 vhcurveto
          4 36 19 0 95 54 38 -5 54 hhcurveto
          42 12 18 20 20 -12 18 -42 hvcurveto
          hintmask 11011000
          -54 -38 -5 -54 hhcurveto
          hintmask 11100100
          -95 -45 5 -50 hhcurveto
          -40 -16 -14 -24 -9 2 -14 10 -14 hvcurveto
          4 -34 1 -16 2 -193 rrcurveto
          1 -9 -6 0 -5 hhcurveto
          hintmask 11101000
          -92 callsubr
          hintmask 11100100
          5 6 0 1 9 hvcurveto
          -147 -5 -76 -92 vvcurveto
          -45 19 -13 22 22 19 13 45 vhcurveto
          53 -5 152 112 vvcurveto
          1 21 25 1 24 74 70 -5 25 hhcurveto
          30 21 14 23 hvcurveto
          endchar
        </CharString>
        <CharString name="F.alt">
          107 11 -21 344 70 -70 89 150 212 -65 65 hstemhm
          25 69 15 138 -72 72 hintmask 10110101
          409 674 rmoveto
          -24 -73 -51 -3 -42 hhcurveto
          72 -8 -33 66 -80 hhcurveto
          -72 -25 -57 -31 -66 62 -42 85 -10 hvcurveto
          1 -29 1 -46 1 -86 rrcurveto
          2 -12 -11 3 -9 hhcurveto
          hintmask 11010110
          -19 -15 -12 -22 hvcurveto
          hintmask 11010101
          -29 37 -12 29 -5 vhcurveto
          -137 -5 -72 -86 vvcurveto
          -45 19 -13 22 22 19 13 45 vhcurveto
          47 -5 141 100 vvcurveto
          -1 18 32 -1 21 hhcurveto
          72 137 22 42 20 -18 8 -16 hvcurveto
          -24 -56 -22 -94 hhcurveto
          -22 -31 1 3 -19 hvcurveto
          165 vlineto
          164 1 212 89 85 vvcurveto
          15 -12 11 -15 -31 -39 -61 -39 -117 vhcurveto
          -239 -23 rmoveto
          -57 7 -19 19 17 vvcurveto
          hintmask 11001110
          14 14 12 16 19 22 -17 -52 5 vhcurveto
          endchar
        </CharString>
        <CharString name="G">
          187 -16 71 269 66 230 145 -70 70 hstemhm
          57 81 455 84 hintmask 11011100
          677 352 rmoveto
          30 -21 14 -30 vhcurveto
          -20 -50 -6 -59 -58 -55 5 -19 hhcurveto
          -92 callsubr
          20 54 5 58 hhcurveto
          36 35 -2 -2 25 hvcurveto
          -175 -3 -94 -90 -114 -20 callgsubr
          hintmask 11101100
          -57 callsubr
          128 137 231 hvcurveto
          endchar
        </CharString>
        <CharString name="G.alt">
          246 -16 71 202 65 57 68 173 145 -70 70 hstemhm
          57 81 181 78 198 75 hintmask 11101111
          585 341 rmoveto
          -17 -53 -49 -2 -20 hhcurveto
          -31 -35 6 20 10 21 21 48 62 44 -23 -15 13 hvcurveto
          10 -60 rmoveto
          -113 -3 -91 -113 -119 -20 callgsubr
          hintmask 11110111
          -57 callsubr
          121 140 185 hvcurveto
          80 43 16 23 23 vvcurveto
          12 -9 14 -16 -22 -30 -37 -16 -39 vhcurveto
          29 -21 -72 47 -83 hhcurveto
          -119 -36 -63 -42 -45 50 -40 88 42 35 2 22 61 hvcurveto
          endchar
        </CharString>
        <CharString name="H">
          183 11 -21 369 71 330 -20 hstemhm
          44 138 -72 72 353 72 -72 139 hintmask 11110010
          674 30 callgsubr
          hintmask 11101100
          -16 hlineto
          1 144 4 102 27 -40 callsubr
          -27 4 -103 1 -146 vhcurveto
          -2 -49 10 callgsubr
          1 147 4 103 27 -40 callsubr
          -27 4 -102 1 -145 vhcurveto
          -18 hlineto
          hintmask 11110100
          -92 callsubr
          hintmask 11101100
          -79 callgsubr
          hintmask 11110010
          30 21 15 23 hvcurveto
          endchar
        </CharString>
        <CharString name="H.alt">
          180 11 -21 317 67 386 -20 hstemhm
          45 139 -71 71 353 70 -70 88 hintmask 11110100
          532 41 rmoveto
          -30 19 -21 22 22 19 -66 callgsubr
          35 -7 286 75 vvcurveto
          hintmask 11101010
          13 89 5 107 34 vvcurveto
          43 -1 50 -48 -27 -17 -17 -50 -40 4 -73 1 -108 vhcurveto
          -54 -43 -79 -44 -116 hhcurveto
          -40 -40 3 12 -35 hvcurveto
          167 5 125 28 -40 callsubr
          -26 4 -72 2 -195 vhcurveto
          6 -12 -9 10 -16 hhcurveto
          hintmask 11110100
          -15 -16 -10 -25 -26 22 -22 44 -15 hvcurveto
          -137 -4 -106 -50 vvcurveto
          -30 19 -21 22 22 19 21 30 41 -4 125 -1 110 vhcurveto
          -7 33 42 -3 44 hhcurveto
          78 100 26 44 57 hvcurveto
          -32 vlineto
          -49 -6 -224 -31 vvcurveto
          endchar
        </CharString>
        <CharString name="Hbar">
          215 11 -21 369 77 171 66 -66 153 hstemhm
          17 181 -138 138 -75 75 353 72 -72 139 -139 182 hintmask 1110100010000000
          690 30 callgsubr
          hintmask 1110100100000000
          -16 hlineto
          67 1 59 1 45 vhcurveto
          67 hlineto
          hintmask 1110100001000000
          -11 callgsubr
          -12 -24 0 -1 -29 hvcurveto
          1 17 0 13 7 vvcurveto
          hintmask 1101100100000000
          30 -19 -5 callgsubr
          -19 -23 callsubr
          -38 vlineto
          -1 -53 -60 0 -58 hhcurveto
          -59 -60 0 1 -54 hvcurveto
          1 17 0 13 8 -40 callsubr
          vhcurveto
          -37 vlineto
          hintmask 1110100100000000
          1 -28 -23 0 -12 hhcurveto
          -98 callsubr
          hintmask 1110001100000000
          65 -172 -15 hlineto
          hintmask 1110010100000000
          -92 callsubr
          -79 callgsubr
          hintmask 1110100010000000
          30 21 15 23 hvcurveto
          -315 214 rmoveto
          58 62 -1 53 hhcurveto
          -176 vlineto
          -2 -46 10 callgsubr
          70 1 60 1 47 vhcurveto
          54 62 1 59 hhcurveto
          endchar
        </CharString>
        <CharString name="I">
          -84 callgsubr
          34 callsubr
          -7 callsubr
          hintmask 1001001000000000
          -103 callsubr
          hintmask 1000010010000000
          30 21 -72 callsubr
          hintmask 1001001000000000
          -53 callsubr
          hintmask 1000101000000000
          -58 -54 5 -20 hhcurveto
          -92 callsubr
          -7 callgsubr
          -102 callgsubr
          hintmask 0011001000000000
          -39 callgsubr
          hintmask 1001001000000000
          -38 callgsubr
          hintmask 0101001000000000
          -76 callsubr
          endchar
        </CharString>
        <CharString name="I.alt">
          63 -15 70 66 217 -67 67 324 73 -73 98 hstemhm
          37 72 149 61 96 71 -71 143 hintmask 1011011100000000
          187 271 rmoveto
          41 30 -39 -36 hvcurveto
          -32 -9 -16 -13 vvcurveto
          hintmask 1101011100000000
          -7 4 -7 9 22 35 31 63 56 -43 67 -86 -78 -75 -64 -97 -92 68 -100 132 133 116 82 208 vhcurveto
          69 1 16 84 vvcurveto
          114 1 88 1 35 vhcurveto
          hintmask 1100111010000000
          4 callsubr
          hintmask 1101011100000000
          -25 -91 -25 -82 hhcurveto
          hintmask 1010111100000000
          -34 callgsubr
          -33 1 -84 -110 -67 -1 -57 -54 vvcurveto
          -134 -67 -77 -110 -93 -35 72 49 62 34 33 44 vhcurveto
          endchar
        </CharString>
        <CharString name="IJ">
          386 0 56 -56 71 -71 126 -115 -21 25 -21 22 -21 688 67 1 -20 24 -20 21 -20 21 -20 34 callsubr
          -7 callsubr
          338 72 -72 143 hintmask 0100001000010010
          -103 callsubr
          hintmask 1000000001000110
          30 21 -72 callsubr
          hintmask 1000001000010010
          -53 callsubr
          hintmask 1000000010010010
          -58 -54 5 -20 hhcurveto
          -92 callsubr
          hintmask 0100001000001010
          -102 callgsubr
          hintmask 0000011000010010
          -39 callgsubr
          hintmask 1000001000010010
          -38 callgsubr
          hintmask 0000101000010010
          -76 callsubr
          412 221 -51 callgsubr
          hintmask 1000000000110001
          30 24 -72 callsubr
          hintmask 1000000100010010
          -53 callsubr
          hintmask 1000000001010010
          -58 -54 5 -20 hhcurveto
          -92 callsubr
          -74 callgsubr
          hintmask 0010001000010010
          -89 -8 70 -40 hhcurveto
          -17 -15 -13 -22 hvcurveto
          hintmask 0001001000010010
          -33 63 -68 106 99 113 66 198 vhcurveto
          endchar
        </CharString>
        <CharString name="Iacute">
          -84 callgsubr
          67 -5 callsubr
          39 216 -79 145 -138 -66 callsubr
          hintmask 1000010000100000
          30 21 -72 callsubr
          -7 callgsubr
          -53 callsubr
          hintmask 1000100100000000
          -58 -54 5 -20 hhcurveto
          -92 callsubr
          hintmask 1001000001000000
          -102 callgsubr
          hintmask 0011000100000000
          -39 callgsubr
          -7 callgsubr
          -38 callgsubr
          hintmask 0101000100000000
          -76 callsubr
          hintmask 0000001010000000
          -77 899 -104 callsubr
        </CharString>
        <CharString name="Icircumflex">
          -84 callgsubr
          76 172 -97 callgsubr
          -33 809 -107 callsubr
        </CharString>
        <CharString name="Idieresis">
          -84 callgsubr
          110 -6 callsubr
          39 216 -162 91 -1 -7 callsubr
          -146 91 -7 callgsubr
          -103 callsubr
          hintmask 1000010000100000
          30 21 -72 callsubr
          -7 callgsubr
          -53 callsubr
          hintmask 1000100100000000
          -58 -54 5 -20 hhcurveto
          -92 callsubr
          hintmask 1001000001000000
          -102 callgsubr
          hintmask 0011000100000000
          -39 callgsubr
          -7 callgsubr
          -38 callgsubr
          hintmask 0101000100000000
          -76 callsubr
          hintmask 0000001010010000
          -214 877 -105 callgsubr
        </CharString>
        <CharString name="Idotaccent">
          -84 callgsubr
          110 109 34 callsubr
          86 -86 216 hintmask 1001001100000000
          -103 callsubr
          hintmask 1000011001000000
          30 21 -72 callsubr
          hintmask 1001001100000000
          -53 callsubr
          hintmask 1000101100000000
          -58 -54 5 -20 hhcurveto
          -92 callsubr
          hintmask 1001001010000000
          -102 callgsubr
          hintmask 0011001100000000
          -39 callgsubr
          hintmask 1001001100000000
          -38 callgsubr
          hintmask 0101001010000000
          -76 callsubr
          -129 877 rmoveto
          -95 callsubr
        </CharString>
        <CharString name="Igrave">
          -84 callgsubr
          67 167 -97 callgsubr
          -137 791 -100 callsubr
        </CharString>
        <CharString name="Itilde">
          -84 callgsubr
          81 -30 callgsubr
          39 216 -72 -7 callsubr
          hintmask 1001000000100000
          -103 callsubr
          hintmask 1000010000001000
          30 21 -72 callsubr
          hintmask 1001000000100000
          -53 callsubr
          hintmask 1000100000100000
          -58 -54 5 -20 hhcurveto
          -92 callsubr
          hintmask 1001000000010000
          -102 callgsubr
          hintmask 0011000000100000
          -39 callgsubr
          hintmask 1001000000100000
          -38 callgsubr
          hintmask 0101000000100000
          -76 callsubr
          hintmask 0000001001000000
          -1 869 -61 callgsubr
          hintmask 0000000110000000
          -83 callgsubr
          hintmask 0000001001000000
          -62 callgsubr
        </CharString>
        <CharString name="J">
          -12 0 callgsubr
          hstemhm
          339 72 -72 143 hintmask 10100100
          412 254 -51 callgsubr
          hintmask 10001010
          30 24 -72 callsubr
          hintmask 10100100
          -53 callsubr
          hintmask 10010100
          11 callsubr
          hintmask 10100100
          -23 18 -14 30 vhcurveto
          -74 callgsubr
          hintmask 01100100
          -33 callgsubr
          endchar
        </CharString>
        <CharString name="J.alt">
          41 -235 68 107 217 -66 66 506 73 -73 98 hstemhm
          8 72 164 61 83 71 hintmask 11001111
          459 75 rmoveto
          101 0 209 1 144 vhcurveto
          1 74 1 63 16 vvcurveto
          4 callsubr
          hintmask 11010111
          -25 -91 -25 -82 hhcurveto
          hintmask 10101111
          -34 callgsubr
          -16 0 -49 1 -78 rrcurveto
          1 -135 0 -217 -101 vvcurveto
          -149 -61 -94 -110 -90 -48 74 63 70 36 51 53 47 28 -40 -36 vhcurveto
          -32 -9 -16 -13 vvcurveto
          hintmask 11010111
          -7 5 -7 8 22 35 31 63 54 -46 69 -93 -79 -79 -74 -113 -91 70 -114 140 133 108 92 218 vhcurveto
          endchar
        </CharString>
        <CharString name="Jcircumflex">
          -27 0 callgsubr
          75 27 callsubr
          324 72 -72 143 hintmask 10100010
          397 254 -51 callgsubr
          hintmask 10001001
          30 24 -72 callsubr
          hintmask 10100010
          -53 callsubr
          hintmask 10010010
          11 callsubr
          hintmask 10100010
          -23 18 -14 30 vhcurveto
          -74 callgsubr
          hintmask 01100010
          -33 callgsubr
          hintmask 00000100
          38 588 -107 callsubr
        </CharString>
        <CharString name="K">
          83 11 -21 350 96 323 -43 callsubr
          103 72 hintmask 11011000
          180 41 -75 callgsubr
          177 93 -60 callsubr
          hintmask 11101000
          30 -19 -5 callgsubr
          -19 -23 callsubr
          -30 5 -126 -180 -180 -5 -121 -30 -92 callgsubr
          endchar
        </CharString>
        <CharString name="K.alt">
          171 -81 77 15 -21 770 -20 hstemhm
          42 69 52 75 hintmask 01111000
          238 437 rmoveto
          46 -7 33 -27 17 -26 -19 -13 -34 -11 -42 -4 rrcurveto
          -69 6 rmoveto
          -42 10 -17 17 17 vvcurveto
          19 23 18 36 5 vhcurveto
          75 269 rmoveto
          30 -16 -42 callgsubr
          -16 -21 -30 -71 4 -54 1 -69 vhcurveto
          -82 -10 -44 -51 -53 vvcurveto
          -50 40 -51 86 -17 vhcurveto
          -1 -107 -2 -85 -50 22 callgsubr
          41 -6 95 -1 103 vhcurveto
          65 8 29 13 35 20 rrcurveto
          hintmask 10111000
          -243 125 69 -159 76 hhcurveto
          44 22 30 37 12 -10 -3 -15 1 hvcurveto
          -43 3 -30 40 -16 26 -47 75 -73 144 -41 84 rrcurveto
          84 92 80 164 99 vvcurveto
          23 -16 14 -18 -26 -11 -18 -26 -4 vhcurveto
          -16 -113 -52 -108 -61 -69 -35 47 -55 29 -60 10 rrcurveto
          2 66 3 70 62 vvcurveto
          endchar
        </CharString>
        <CharString name="Kcommaaccent">
          83 13 callsubr
          350 96 323 -43 callsubr
          103 72 hintmask 11101100
          253 -55 rmoveto
          -50 7 -63 -37 -18 hvcurveto
          -14 -29 -16 -16 1 -15 rrcurveto
          -10 9 -10 14 30 72 74 62 24 -14 20 -21 vhcurveto
          -73 96 -75 callgsubr
          183 87 -60 callsubr
          hintmask 11110100
          30 -19 -5 callgsubr
          -19 -23 callsubr
          -30 5 -126 -180 -180 -5 -121 -30 -92 callgsubr
          endchar
        </CharString>
        <CharString name="L">
          9 0 66 -50 -21 765 -20 hstemhm
          103 72 hintmask 10110000
          -73 callgsubr
          hintmask 01110000
          -47 callgsubr
        </CharString>
        <CharString name="L.alt">
          86 -15 70 -70 120 -93 -21 146 144 -66 66 481 -20 hstemhm
          35 184 -98 98 -72 72 138 230 -74 74 hintmask 1001011001000000
          355 -15 rmoveto
          125 107 65 109 80 -66 42 -59 -62 -43 -47 -46 -24 12 -27 18 hvcurveto
          hintmask 1000110100100000
          35 -19 78 59 hhcurveto
          29 22 -25 -31 -65 -71 -39 -76 -60 -51 4 18 -57 hvcurveto
          10 43 11 109 153 vvcurveto
          175 -11 125 -4 29 vhcurveto
          30 -4 -15 21 -25 hhcurveto
          -23 -16 -17 -26 hvcurveto
          hintmask 0101010011000000
          -38 26 -116 -183 vvcurveto
          -174 -12 -84 -8 -26 vhcurveto
          4 -16 -5 3 -19 hhcurveto
          hintmask 0011011001000000
          -29 -23 -25 -30 -34 21 -25 39 22 19 11 11 24 hvcurveto
          hintmask 1001011001000000
          -18 77 48 -10 70 hhcurveto
          endchar
        </CharString>
        <CharString name="Ldot">
          9 0 66 -50 -21 328 117 320 -20 hstemhm
          103 72 119 94 hintmask 10011000
          -73 callgsubr
          hintmask 01011000
          -34 21 -17 30 vhcurveto
          hintmask 10011000
          7 callgsubr
          hintmask 01011000
          66 62 -8 callsubr
          15 24 hvcurveto
          hintmask 00100100
          -124 353 rmoveto
          -94 callgsubr
          endchar
        </CharString>
        <CharString name="Lslash">
          17 0 66 -50 -21 765 -20 hstemhm
          9 174 -72 72 -72 200 hintmask 10110000
          520 34 rmoveto
          24 17 callsubr
          vhcurveto
          -23 -62 -7 -66 hhcurveto
          -50 -49 1 4 -33 hvcurveto
          -1 50 -3 103 148 vvcurveto
          59 vlineto
          47 40 47 35 17 14 rrcurveto
          hintmask 10100100
          -21 callgsubr
          -67 -61 rlineto
          1 105 3 72 22 -43 callgsubr
          -25 -25 -16 -21 -30 -26 4 -96 1 -138 vhcurveto
          -38 -31 -34 -25 -13 -11 rrcurveto
          hintmask 10110000
          -21 callsubr
          hintmask 01101000
          42 38 rlineto
          -178 -5 -115 -30 vvcurveto
          -47 callgsubr
        </CharString>
        <CharString name="M">
          277 11 -21 765 -20 hstem
          103 72 465 70 vstem
          715 41 rmoveto
          -44 callgsubr
          -52 callsubr
          -28 56 -45 100 -54 113 -42 89 -32 76 -26 59 -1 callsubr
          -30 5 -122 -180 -180 -5 -121 -30 vvcurveto
          -30 19 -21 22 22 19 9 callsubr
          198 vlineto
          126 -264 56 -132 13 -29 rrcurveto
          -17 7 15 -13 callsubr
          -194 vlineto
          -180 -7 -121 -30 -92 callgsubr
          endchar
        </CharString>
        <CharString name="M.alt">
          454 -7 74 -56 -21 204 78 486 -20 hstemhm
          31 76 -76 178 47 72 465 70 hintmask 10111011
          793 233 rmoveto
          -91 7 -149 83 29 31 24 44 15 -31 -14 -11 14 vhcurveto
          -26 33 -12 124 142 -52 callsubr
          -45 90 -127 278 -55 125 -1 callsubr
          -28 5 -114 -170 vvcurveto
          -202 -13 -126 -79 26 callsubr
          hintmask 01110111
          -20 callsubr
          155 14 198 152 hvcurveto
          233 vlineto
          130 -264 50 -133 15 -28 rrcurveto
          -17 9 13 -13 callsubr
          endchar
        </CharString>
        <CharString name="N">
          156 -39 callsubr
          hstem
          103 72 343 72 vstem
          590 372 rmoveto
          180 5 127 30 -40 callsubr
          vhcurveto
          -30 5 -127 -180 vvcurveto
          -221 vlineto
          -42 68 -60 107 -52 93 -92 164 -67 122 -17 28 rrcurveto
          22 -13 -16 5 -19 hhcurveto
          -24 -18 -23 -29 hvcurveto
          -30 5 -126 -180 -180 -5 -121 -30 vvcurveto
          -30 19 -21 22 22 19 9 callsubr
          233 vlineto
          33 -52 45 -90 49 -82 98 -167 90 -168 17 -29 rrcurveto
          -15 9 15 -12 18 hhcurveto
          24 19 20 31 hvcurveto
          30 -2 35 callgsubr
          endchar
        </CharString>
        <CharString name="N.alt">
          343 -8 77 -59 -21 207 78 392 95 -77 77 hstemhm
          31 76 -76 178 16 102 -70 70 302 71 -71 225 hintmask 1011010101000000
          159 -8 rmoveto
          156 12 218 123 124 -14 127 0 hvcurveto
          33 -52 38 -75 47 -83 92 -162 92 -160 15 -28 rrcurveto
          hintmask 0110110101000000
          -20 11 16 -15 20 hhcurveto
          22 23 15 36 hvcurveto
          48 -22 177 130 vvcurveto
          152 10 137 53 vhcurveto
          hintmask 1011010100100000
          30 22 -18 16 hhcurveto
          14 9 12 20 25 -37 38 -50 -125 -13 -157 -123 -143 14 -185 1 hvcurveto
          -124 196 -189 349 -14 28 rrcurveto
          20 -10 -15 15 -20 hhcurveto
          -22 -25 -15 -36 hvcurveto
          hintmask 1011010011000000
          -48 32 -175 -130 vvcurveto
          -152 -16 -136 -77 26 callsubr
          hintmask 1011001101000000
          -20 callsubr
          hvcurveto
          endchar
        </CharString>
        <CharString name="Nacute">
          157 -39 callsubr
          63 -5 callsubr
          103 72 139 145 59 72 hintmask 11010100
          590 372 rmoveto
          180 5 127 30 -40 callsubr
          vhcurveto
          -30 5 -127 -180 vvcurveto
          -221 vlineto
          -42 68 -60 107 -52 93 -92 164 -67 122 -17 28 rrcurveto
          22 -13 -16 5 -19 hhcurveto
          -24 -18 -23 -29 hvcurveto
          -30 5 -126 -180 -180 -5 -121 -30 vvcurveto
          -30 19 -21 22 22 19 9 callsubr
          233 vlineto
          33 -52 45 -90 49 -82 98 -167 90 -168 17 -29 rrcurveto
          -15 9 15 -12 18 hhcurveto
          24 19 20 31 hvcurveto
          30 -2 35 callgsubr
          hintmask 00101000
          -131 560 -104 callsubr
        </CharString>
        <CharString name="Ntilde">
          156 -39 callsubr
          79 -30 callgsubr
          102 72 343 72 hintmask 11000011
          589 372 rmoveto
          180 5 127 30 -40 callsubr
          vhcurveto
          -30 5 -127 -180 vvcurveto
          -221 vlineto
          -42 68 -60 107 -52 93 -92 164 -67 122 -17 28 rrcurveto
          22 -13 -16 5 -19 hhcurveto
          -24 -18 -23 -29 hvcurveto
          -30 5 -126 -180 -180 -5 -121 -30 vvcurveto
          -30 19 -21 22 22 19 9 callsubr
          233 vlineto
          33 -52 45 -90 49 -82 98 -167 90 -168 17 -29 rrcurveto
          -15 9 15 -12 18 hhcurveto
          24 19 20 31 hvcurveto
          30 -2 35 callgsubr
          hintmask 00100100
          -62 532 -69 callgsubr
        </CharString>
        <CharString name="O">
          -48 callsubr
          hstem
          57 81 498 81 vstem
          -106 callsubr
          endchar
        </CharString>
        <CharString name="O.alt">
          276 -15 70 640 70 hstemhm
          55 77 -77 90 29 66 436 77 hintmask 11101100
          462 695 rmoveto
          137 77 -155 -166 -166 -95 -153 -171 -140 -138 113 206 hvcurveto
          hintmask 11011100
          77 13 8 39 vvcurveto
          18 -13 15 -19 -44 -14 -80 -77 -233 162 -156 193 213 130 186 203 223 -117 168 -179 -172 -111 -187 -194 -77 27 -82 27 16 7 12 13 vhcurveto
          34 -11 3 87 vvcurveto
          147 78 174 144 vhcurveto
          endchar
        </CharString>
        <CharString name="OE">
          412 -15 81 -66 66 -50 -21 371 67 251 71 -5 -20 35 -20 hstemhm
          57 81 448 81 hintmask 1001100110000000
          797 362 rmoveto
          30 20 12 25 25 -20 14 -30 -21 -53 -3 -2 -60 hvcurveto
          -11 100 -38 87 -58 60 rrcurveto
          4 33 22 0 91 54 42 -5 54 -81 callgsubr
          hintmask 1001010110000000
          -54 -42 -5 -54 hhcurveto
          hintmask 1001100110000000
          -95 -48 5 -50 hhcurveto
          -21 -14 -4 -7 -8 hvcurveto
          hintmask 1001001110000000
          14 -30 -33 7 -35 hhcurveto
          -177 -134 -174 -215 -215 132 -176 177 39 37 9 17 33 hvcurveto
          hintmask 0011100110000000
          -11 7 13 -5 20 hhcurveto
          hintmask 0101100110000000
          26 75 5 74 hhcurveto
          hintmask 0011100110000000
          70 68 -5 24 -81 callgsubr
          hintmask 1001100110000000
          -24 -68 -5 -70 hhcurveto
          -51 -49 1 2 -35 hvcurveto
          67 70 43 107 2 120 rrcurveto
          -1 58 51 -3 21 hhcurveto
          -211 14 rmoveto
          -163 -91 -155 -128 -134 -95 155 163 168 95 148 134 128 91 -148 -168 vhcurveto
          endchar
        </CharString>
        <CharString name="Oacute">
          -48 callsubr
          38 -5 callsubr
          57 81 206 145 147 81 hintmask 11010100
          -106 callsubr
          hintmask 00101000
          -228 556 -104 callsubr
        </CharString>
        <CharString name="Ocircumflex">
          -48 callsubr
          47 27 callsubr
          57 81 498 81 hintmask 11011000
          -106 callsubr
          hintmask 00100000
          -185 466 -107 callsubr
        </CharString>
        <CharString name="Odieresis">
          -48 callsubr
          81 -6 callsubr
          57 81 123 28 callgsubr
          124 81 hintmask 11010010
          -106 callsubr
          hintmask 00101100
          -365 534 -105 callgsubr
        </CharString>
        <CharString name="Ograve">
          -48 callsubr
          38 -5 callsubr
          57 81 498 81 hintmask 11011000
          -106 callsubr
          hintmask 00100000
          -288 448 -100 callsubr
        </CharString>
        <CharString name="Omega">
          294 0 66 -52 -21 22 -21 26 -21 646 70 hstemhm
          98 78 478 78 hintmask 10001110
          732 381 rmoveto
          185 -146 149 -169 -173 -146 -152 -185 -131 59 -103 77 -77 vhcurveto
          -1 -15 -15 0 -16 -50 -45 5 -17 hhcurveto
          -30 -18 -16 -23 hvcurveto
          hintmask 00101110
          -23 18 -15 30 vhcurveto
          hintmask 10001110
          17 45 6 50 hhcurveto
          hintmask 00101110
          49 44 -6 16 hhcurveto
          30 21 15 23 15 -10 12 -14 8 hvcurveto
          -87 48 -61 138 125 vvcurveto
          143 100 124 140 140 98 -121 -143 vhcurveto
          hintmask 10001110
          -125 -60 -143 -88 -47 vhcurveto
          -15 -8 -9 -12 -15 vvcurveto
          hintmask 01001110
          -23 21 -15 30 vhcurveto
          hintmask 00011110
          16 44 6 49 hhcurveto
          hintmask 01001110
          50 45 -6 17 hhcurveto
          30 18 15 23 23 -18 16 -30 hvcurveto
          -17 -45 -5 -50 hhcurveto
          hintmask 10001110
          -16 -16 0 1 -14 hvcurveto
          76 77 60 107 131 vvcurveto
          endchar
        </CharString>
        <CharString name="Oslash">
          220 -43 -21 49 73 634 73 39 -20 hstem
          58 81 478 81 vstem
          698 27 callgsubr
          139 -57 122 -90 69 vhcurveto
          8 20 11 20 19 vvcurveto
          21 -12 18 -23 -17 -14 -11 -24 -10 vhcurveto
          -10 -25 rlineto
          13 -32 -36 8 -37 hhcurveto
          -183 -138 -174 -215 -138 56 -122 88 -70 hvcurveto
          -10 -24 -14 -26 -24 vvcurveto
          -21 16 -15 19 18 14 12 23 9 vhcurveto
          3 8 4 12 7 16 rrcurveto
          -14 33 37 -8 39 hhcurveto
          183 138 176 215 hvcurveto
          -81 hmoveto
          -163 -99 -155 -140 -30 -28 7 13 -25 vhcurveto
          26 69 37 96 46 115 44 111 41 93 30 70 rrcurveto
          61 -59 37 -95 -102 vvcurveto
          -273 6 rmoveto
          -43 -106 -37 -87 -30 -67 rrcurveto
          -59 60 -36 95 99 vvcurveto
          168 99 148 140 28 27 -6 -12 25 vhcurveto
          endchar
        </CharString>
        <CharString name="Otilde">
          -48 callsubr
          62 -30 callgsubr
          57 81 498 81 hintmask 11000011
          -106 callsubr
          hintmask 00100100
          -152 536 -69 callgsubr
        </CharString>
        <CharString name="P">
          66 11 -21 303 66 337 69 hstemhm
          57 120 -69 69 318 74 hintmask 11110100
          283 696 rmoveto
          138 74 -75 -102 -86 -87 -74 -101 -41 -31 0 17 -56 hvcurveto
          -2 45 0 53 51 vvcurveto
          47 1 76 2 30 vhcurveto
          11 19 48 7 36 hhcurveto
          -6 69 rmoveto
          -57 -163 -25 -63 -16 8 -17 22 5 5 1 1 6 hvcurveto
          hintmask 11101100
          -26 5 -81 -157 -185 -6 -125 -31 -92 callgsubr
          22 -5 107 138 vvcurveto
          -10 37 42 -5 46 hhcurveto
          161 104 113 115 124 -91 120 -201 hvcurveto
          endchar
        </CharString>
        <CharString name="P.alt">
          156 11 -21 247 67 387 69 hstemhm
          39 70 91 69 -69 223 156 78 hintmask 11111010
          200 318 rmoveto
          -61 21 -30 41 41 vvcurveto
          33 31 38 57 9 vhcurveto
          2 -50 1 -60 -73 vvcurveto
          -8 -277 rmoveto
          -30 19 -21 22 22 19 21 30 33 -3 82 -2 82 vhcurveto
          -1 15 15 0 16 hhcurveto
          180 162 86 197 125 -119 115 -170 -63 -46 -10 -15 -38 hvcurveto
          -14 -6 -17 -10 -1 -32 5 -119 rcurveline
          -101 -14 -54 -69 -66 vvcurveto
          -72 52 -73 108 -24 vhcurveto
          -1 -86 -6 -82 -41 vvcurveto
          75 460 rmoveto
          -7 67 24 -80 31 hhcurveto
          hintmask 11110110
          20 14 13 21 52 -74 59 -81 9 hvcurveto
          -2 56 0 37 17 vvcurveto
          8 26 29 5 46 hhcurveto
          115 97 -75 -98 -152 -131 -62 -152 -10 -9 0 1 -9 hvcurveto
          111 0 46 -1 39 vhcurveto
          endchar
        </CharString>
        <CharString name="Q">
          219 -127 -21 133 73 634 73 hstem
          57 81 478 81 vstem
          616 27 callgsubr
          -110 -39 -102 -72 -58 vhcurveto
          -58 110 rlineto
          18 -10 -13 10 -15 hhcurveto
          -19 -19 -17 -18 -9 3 -11 7 -11 hvcurveto
          10 -18 27 -41 30 -49 rrcurveto
          -10 -23 -22 -2 -26 hhcurveto
          -140 -99 155 163 168 99 148 140 140 99 -148 -168 hvcurveto
          81 hmoveto
          215 -136 174 -183 -183 -138 -174 -215 -215 136 -176 183 41 32 7 16 35 vhcurveto
          31 -55 26 -51 12 -20 rrcurveto
          -19 11 14 -11 15 hhcurveto
          21 11 18 19 10 -4 11 -6 11 hvcurveto
          -11 20 -29 46 -33 54 rrcurveto
          96 68 59 123 144 vvcurveto
          endchar
        </CharString>
        <CharString name="Q.alt">
          294 -108 -21 114 72 634 74 hstemhm
          57 75 -75 92 20 70 -70 100 427 75 hintmask 11110101
          239 404 rmoveto
          171 105 116 120 137 95 -129 -171 -120 -50 -111 -80 -57 vhcurveto
          95 -60 -11 44 -32 hhcurveto
          -27 -8 -24 -15 -15 46 -69 33 -47 hvcurveto
          -14 -24 -32 -1 -29 hhcurveto
          -159 -131 148 181 hvcurveto
          hintmask 11101011
          105 17 17 19 vvcurveto
          18 -14 20 -23 -52 -3 -94 -77 -233 168 -176 197 45 43 10 16 39 vhcurveto
          -93 61 19 -47 29 hhcurveto
          26 10 23 14 20 -32 37 -55 78 hvcurveto
          99 69 65 127 145 vvcurveto
          215 -127 166 -176 -176 -123 -166 -194 -84 42 -101 37 16 5 8 13 vhcurveto
          hintmask 11110101
          34 -30 16 113 vvcurveto
          endchar
        </CharString>
        <CharString name="R">
          -19 callgsubr
          hstemhm
          57 2 callgsubr
          hintmask 11110100
          554 542 -80 callgsubr
          hintmask 11101100
          -106 callgsubr
          endchar
        </CharString>
        <CharString name="R.alt">
          204 -82 76 17 -21 259 65 381 70 hstemhm
          42 69 49 80 300 78 hintmask 01111110
          236 672 rmoveto
          11 26 29 12 47 hhcurveto
          111 91 -58 -104 -68 -43 -67 -64 -40 hvcurveto
          -34 50 -73 59 -86 8 rrcurveto
          -2 79 -2 56 62 vvcurveto
          3 -262 rmoveto
          51 -12 45 -28 29 -43 rrcurveto
          -11 -28 -29 -2 -30 hhcurveto
          -14 -13 1 1 -11 hvcurveto
          -69 7 rmoveto
          -52 17 -7 24 10 vvcurveto
          25 26 11 33 4 vhcurveto
          -6 -373 rmoveto
          -30 16 -41 callsubr
          16 21 30 33 -5 89 -1 87 vhcurveto
          -1 10 11 0 12 hhcurveto
          44 40 7 15 43 hvcurveto
          hintmask 10111110
          -208 121 62 -145 76 hhcurveto
          29 27 29 37 12 -10 -3 -15 1 hvcurveto
          -41 3 -31 44 -17 26 -38 58 -57 108 -37 67 rrcurveto
          88 51 61 89 95 vvcurveto
          130 -115 100 -164 -55 -49 -9 -18 -40 vhcurveto
          -33 -15 -2 -32 -13 vvcurveto
          -71 7 -59 1 -69 vhcurveto
          -73 -7 -53 -44 -55 vvcurveto
          -47 35 -48 91 -20 vhcurveto
          -1 -91 -3 -84 -42 vvcurveto
          endchar
        </CharString>
        <CharString name="Racute">
          -19 callgsubr
          38 -5 callsubr
          57 122 -71 71 77 145 79 74 hintmask 11101001
          554 542 -80 callgsubr
          hintmask 11100101
          -106 callgsubr
          hintmask 00010010
          -79 396 -104 callsubr
        </CharString>
        <CharString name="Rcaron">
          -19 callgsubr
          47 27 callsubr
          57 2 callgsubr
          hintmask 11101010
          554 542 -80 callgsubr
          hintmask 11100110
          -106 callgsubr
          hintmask 00010000
          -56 418 -78 callgsubr
        </CharString>
        <CharString name="Rcommaaccent">
          101 -235 180 66 1 callsubr
          hstemhm
          58 2 callgsubr
          hintmask 11111010
          243 -86 callsubr
          312 597 -80 callgsubr
          hintmask 11110110
          -106 callgsubr
          endchar
        </CharString>
        <CharString name="S">
          21 -15 70 -70 153 502 125 -70 70 hstemhm
          68 80 284 80 hintmask 10011100
          512 200 rmoveto
          210 -364 44 136 vvcurveto
          63 65 42 68 vhcurveto
          hintmask 10101100
          101 8 -55 47 -38 callsubr
          47 -91 44 -99 -121 -92 -81 -94 hvcurveto
          -194 364 -36 -160 vvcurveto
          -91 -73 -54 -90 vhcurveto
          hintmask 01101100
          -122 -23 83 -49 hhcurveto
          -19 -14 -15 -20 -49 112 -69 115 144 99 95 120 hvcurveto
          endchar
        </CharString>
        <CharString name="S.alt">
          46 -15 70 89 174 -70 70 312 135 -70 70 hstemhm
          46 72 -33 33 -33 80 47 80 -63 63 167 29 -29 80 hintmask 1100100110010000
          286 -15 rmoveto
          150 103 106 119 hvcurveto
          221 -374 31 138 vvcurveto
          57 65 38 68 vhcurveto
          hintmask 1011001001100000
          102 7 -65 47 -38 callsubr
          52 -91 49 -99 -121 -92 -76 -89 hvcurveto
          -211 374 1 -180 vvcurveto
          -87 -77 -68 -96 -118 -50 79 49 46 32 19 31 28 20 -18 -21 vhcurveto
          hintmask 1101010010100000
          -22 -17 -7 -17 vvcurveto
          -9 6 -10 14 31 29 37 41 42 -32 54 -81 -76 -57 -56 -85 -92 83 -100 157 vhcurveto
          endchar
        </CharString>
        <CharString name="T">
          -12 11 -21 694 14 callgsubr
          231 72 hintmask 10011000
          448 756 rmoveto
          hintmask 11001000
          -26 -75 -6 -80 hhcurveto
          hintmask 10101000
          -12 callsubr
          hintmask 11001000
          -68 callgsubr
          62 56 -4 22 hhcurveto
          30 21 14 25 hvcurveto
          hintmask 10011000
          25 -21 14 -30 vhcurveto
          endchar
        </CharString>
        <CharString name="T.alt">
          94 11 -21 624 68 52 70 -41 -20 hstemhm
          244 72 hintmask 11101000
          322 41 rmoveto
          31 -6 85 200 vvcurveto
          94 0 134 10 32 vhcurveto
          -3 32 32 0 25 hhcurveto
          153 33 60 42 38 -40 50 -98 -70 -88 -34 -76 -35 hvcurveto
          hintmask 11011000
          30 -190 13 39 -38 hhcurveto
          -23 -12 -22 -16 -60 181 -36 54 -5 hvcurveto
          -11 -62 0 -121 -109 -185 -4 -76 -30 22 callgsubr
          vhcurveto
          hintmask 11101000
          139 693 rmoveto
          44 21 -10 -11 -9 -38 -22 -96 -15 -18 1 3 -16 hvcurveto
          28 20 44 20 54 hhcurveto
          endchar
        </CharString>
        <CharString name="Th">
          478 10 -21 22 -21 453 66 175 14 callgsubr
          231 72 221 81 -31 callsubr
          hintmask 0110011101000000
          609 717 rmoveto
          25 -21 14 -30 vhcurveto
          hintmask 0111001101000000
          -41 -122 -6 -128 hhcurveto
          hintmask 0110101101000000
          -12 callsubr
          hintmask 0111001011000000
          -68 callgsubr
          121 61 -4 43 hhcurveto
          -36 11 -238 -147 vvcurveto
          hintmask 1011001100100000
          -14 -89 -6 -70 -34 vvcurveto
          -52 17 -23 29 -70 callgsubr
          33 -3 69 -15 callgsubr
          91 23 73 95 69 hhcurveto
          71 40 -65 -87 hvcurveto
          -56 -4 -85 -43 vvcurveto
          -71 12 -47 55 29 26 26 35 -79 callsubr
          hintmask 0111001101000000
          43 5 52 62 vvcurveto
          101 -55 94 -113 -100 -54 -80 -47 -26 vhcurveto
          166 5 112 57 vvcurveto
          endchar
        </CharString>
        <CharString name="Thorn">
          32 11 -21 211 63 295 63 138 -20 hstem
          103 68 293 75 vstem
          539 411 rmoveto
          118 -97 93 -153 -43 -41 -5 -12 -34 vhcurveto
          1 53 2 37 15 vvcurveto
          30 -13 -42 callgsubr
          -15 callsubr
          vhcurveto
          -30 5 -125 -8 callgsubr
          -125 -41 callgsubr
          13 -20 25 25 13 20 30 20 -3 64 -1 94 vhcurveto
          -12 34 41 -5 43 hhcurveto
          153 98 92 118 hvcurveto
          -75 1 rmoveto
          -91 -77 -57 -95 -39 -30 0 16 -52 vhcurveto
          -1 42 0 34 47 vvcurveto
          47 0 51 2 42 vhcurveto
          16 52 30 0 39 hhcurveto
          94 77 -56 -91 hvcurveto
          endchar
        </CharString>
        <CharString name="U">
          -36 callsubr
          hstem
          97 71 347 71 vstem
          -105 callsubr
          endchar
        </CharString>
        <CharString name="U.alt">
          258 -15 70 471 239 -75 75 -5 -20 hstemhm
          28 70 -70 106 24 79 -24 24 -24 75 289 69 -69 95 hintmask 1010100101000000
          152 690 rmoveto
          45 16 -38 -43 hvcurveto
          hintmask 1100101001000000
          -108 -55 -130 -143 vvcurveto
          -121 52 -122 149 129 75 127 115 31 vhcurveto
          -95 15 13 -147 69 hhcurveto
          56 8 56 12 16 -34 -14 -14 16 hvcurveto
          -23 26 -37 171 -1 153 rrcurveto
          hintmask 1001101000100000
          10 89 16 133 34 25 callsubr
          -89 0 -82 3 -71 vhcurveto
          -146 -7 -88 -251 -129 hhcurveto
          -86 -33 91 110 hvcurveto
          hintmask 1100010011000000
          72 51 187 97 vvcurveto
          79 -46 74 -85 -100 -29 -85 -50 -60 44 -44 32 16 14 7 17 vhcurveto
          hintmask 1010101001000000
          19 -36 2 59 vvcurveto
          31 22 29 32 vhcurveto
          endchar
        </CharString>
        <CharString name="Uacute">
          -36 callsubr
          63 -5 callsubr
          97 71 131 145 71 71 hintmask 11010100
          -105 callsubr
          hintmask 00101000
          103 947 -104 callsubr
        </CharString>
        <CharString name="Ucircumflex">
          -36 callsubr
          72 27 callsubr
          97 71 347 71 hintmask 11011000
          -105 callsubr
          hintmask 00100000
          148 857 -107 callsubr
        </CharString>
        <CharString name="Udieresis">
          -36 callsubr
          106 -6 callsubr
          97 71 49 28 callgsubr
          47 71 hintmask 11010010
          -105 callsubr
          hintmask 00101100
          -33 925 -105 callgsubr
        </CharString>
        <CharString name="Ugrave">
          -36 callsubr
          63 -5 callsubr
          97 71 347 71 hintmask 11011000
          -105 callsubr
          hintmask 00100000
          53 839 -100 callsubr
        </CharString>
        <CharString name="V">
          90 -10 116 654 -20 hstem
          371 30 rmoveto
          11 27 76 217 27 83 rrcurveto
          63 198 52 136 31 vvcurveto
          19 -12 19 -25 -18 -15 -10 -30 -9 vhcurveto
          -59 -19 -164 -555 -16 hhcurveto
          -15 -195 604 13 -5 hvcurveto
          25 -10 -13 12 -21 hhcurveto
          -21 -17 -14 -31 -35 34 -78 81 -225 hvcurveto
          43 -120 74 -199 12 -31 rrcurveto
          -28 11 16 -9 24 hhcurveto
          18 21 9 31 12 hvcurveto
          endchar
        </CharString>
        <CharString name="V.alt">
          202 -15 75 489 216 -74 74 -6 -20 hstemhm
          24 68 -68 131 55 76 hintmask 10101010
          139 -16 callsubr
          56 -143 119 110 34 118 255 75 vhcurveto
          74 253 32 80 25 vvcurveto
          hintmask 10011010
          19 -10 24 -28 -23 -12 -13 -29 -9 vhcurveto
          -7 -24 -20 -80 -78 -267 rrcurveto
          -223 -65 -25 -63 -46 hhcurveto
          -62 -39 116 186 hvcurveto
          68 4 53 53 vvcurveto
          hintmask 11000110
          130 -25 99 -127 -77 -37 -60 -18 callgsubr
          vhcurveto
          hintmask 10101010
          15 callgsubr
          17 22 30 vhcurveto
          endchar
        </CharString>
        <CharString name="W">
          374 -10 116 654 -20 hstem
          681 34 rmoveto
          9 27 65 214 24 82 rrcurveto
          58 198 42 134 31 vvcurveto
          19 -8 21 -25 -18 -15 -10 -30 -8 vhcurveto
          -25 -95 -140 -523 -9 4 -14 6 -92 334 -16 52 rrcurveto
          21 -6 -15 27 -30 hhcurveto
          -27 -16 -26 -25 -7 hvcurveto
          -63 -19 -83 -326 -15 hhcurveto
          -14 -166 605 13 -5 hvcurveto
          25 -10 -15 11 -19 hhcurveto
          -19 -16 -16 -25 -35 35 -80 68 -227 hvcurveto
          36 -120 59 -195 10 -31 rrcurveto
          -28 11 18 -13 25 hhcurveto
          20 17 13 31 12 hvcurveto
          28 10 97 353 10 hhcurveto
          10 99 -351 -33 12 hvcurveto
          -28 11 18 -13 23 hhcurveto
          27 15 13 31 11 hvcurveto
          endchar
        </CharString>
        <CharString name="W.alt">
          525 -15 79 -53 -21 558 217 -96 96 -74 74 hstemhm
          24 68 -68 131 54 76 220 75 -75 95 201 80 -80 238 hintmask 1000110110100000
          138 -16 callsubr
          53 -143 117 81 55 85 106 29 vhcurveto
          hintmask 0100110110100000
          -104 30 54 -82 80 hhcurveto
          119 54 141 230 hvcurveto
          60 -3 55 52 vvcurveto
          85 14 78 60 vhcurveto
          hintmask 1001010110010000
          30 16 -22 19 hhcurveto
          10 12 7 17 29 -40 43 -54 -124 -20 -99 -130 hvcurveto
          -53 4 -50 -68 vvcurveto
          -187 -35 -114 -59 -63 -65 127 126 -3 vhcurveto
          hintmask 1010001101100000
          9 82 11 102 28 25 callsubr
          vhcurveto
          -81 2 -75 -67 vvcurveto
          -129 -66 -134 -65 -56 -35 115 187 vhcurveto
          68 4 53 53 vvcurveto
          130 -25 99 -127 -76 -37 -61 -18 callgsubr
          vhcurveto
          hintmask 1000110110100000
          15 callgsubr
          17 23 29 vhcurveto
          endchar
        </CharString>
        <CharString name="X">
          90 8 -21 24 -21 770 -20 23 -20 hstemhm
          hintmask 01100000
          552 724 rmoveto
          -2 callsubr
          -37 -76 -106 -174 -90 166 -35 63 -14 24 rrcurveto
          hintmask 01010000
          55 -37 -21 7 -24 hhcurveto
          -29 -25 -23 -38 -32 35 43 47 -66 hvcurveto
          14 -23 54 -91 81 -149 -90 -142 -107 -157 -35 callsubr
          88 149 85 136 82 -135 73 -114 15 -22 rrcurveto
          hintmask 10100000
          -55 39 25 -8 19 hhcurveto
          29 25 24 38 32 -24 -47 -58 71 hvcurveto
          -35 43 -64 103 -82 137 91 147 85 129 18 callsubr
          endchar
        </CharString>
        <CharString name="X.alt">
          217 -16 71 -71 211 -184 -21 559 215 -71 71 -4 -20 hstemhm
          28 68 -68 131 409 151 -66 66 hintmask 0101001010000000
          365 321 rmoveto
          -213 85 58 -124 100 hhcurveto
          74 37 59 52 59 -48 41 -48 -16 -39 -6 -28 hvcurveto
          hintmask 1000011001000000
          -37 85 34 -61 vvcurveto
          -18 -13 -24 -29 -55 -70 130 205 -73 vhcurveto
          91 147 82 127 18 callsubr
          -2 callsubr
          -29 -61 -106 -174 rrcurveto
          hintmask 1001000110000000
          204 -79 -64 97 -94 hhcurveto
          -74 -37 -59 -18 callgsubr
          hvcurveto
          hintmask 0010101010000000
          15 callgsubr
          11 24 29 55 70 -118 -184 69 vhcurveto
          -90 -142 -113 -164 -35 callsubr
          87 149 85 136 rrcurveto
          endchar
        </CharString>
        <CharString name="Y">
          19 -39 callsubr
          hstem
          242 72 vstem
          -99 callsubr
          endchar
        </CharString>
        <CharString name="Y.alt">
          48 -64 -21 393 73 311 72 -4 -20 hstemhm
          290 75 123 68 hintmask 11101100
          102 469 rmoveto
          -108 51 52 -53 70 hhcurveto
          9 8 0 2 9 hvcurveto
          -6 -76 -5 -75 -58 vvcurveto
          -122 2 -64 42 26 15 20 30 vhcurveto
          23 -10 95 136 vvcurveto
          42 2 41 6 40 vhcurveto
          74 72 109 142 125 vvcurveto
          48 -23 35 -47 -106 -45 -178 -201 -32 vhcurveto
          -3 -6 -6 -1 -7 hhcurveto
          -92 -81 255 77 -14 hvcurveto
          hintmask 11011100
          34 -7 -22 13 -11 hhcurveto
          -32 -4 -30 -17 -30 22 -90 59 -124 hvcurveto
          hintmask 11101100
          375 223 rmoveto
          10 1 -10 -11 -58 -61 -119 -51 -60 hvcurveto
          55 5 65 203 31 hhcurveto
          endchar
        </CharString>
        <CharString name="Yacute">
          19 -39 callsubr
          63 -5 callsubr
          242 72 -71 145 hintmask 11010000
          -99 callsubr
          hintmask 00101000
          151 892 -104 callsubr
        </CharString>
        <CharString name="Ydieresis">
          19 -39 callsubr
          106 -6 callsubr
          160 91 -9 72 6 91 hintmask 11001000
          -99 callsubr
          hintmask 00110100
          14 870 -105 callgsubr
        </CharString>
        <CharString name="Z">
          33 0 66 -51 -21 22 -21 689 14 callgsubr
          hintmask 10000100
          469 756 rmoveto
          hintmask 10010000
          -28 -79 -6 -82 hhcurveto
          hintmask 10001000
          -78 -77 5 -27 hhcurveto
          -30 -21 -12 -25 -25 21 -14 30 hvcurveto
          hintmask 00110000
          27 77 5 78 hhcurveto
          49 49 -3 -1 37 hvcurveto
          -28 -53 -53 -89 -77 -129 -111 -186 -83 -126 -19 -32 rrcurveto
          -6 -10 -4 -10 -10 vvcurveto
          -30 24 -10 25 vhcurveto
          hintmask 10010000
          29 87 5 86 hhcurveto
          hintmask 01010000
          86 85 -6 29 -50 callsubr
          13 25 25 17 callsubr
          hvcurveto
          hintmask 10010000
          -29 -85 -6 -86 hhcurveto
          -53 -53 1 2 -40 hvcurveto
          36 59 60 107 84 138 110 181 64 99 18 31 rrcurveto
          6 10 3 12 11 vvcurveto
          hintmask 10000100
          28 -26 11 -25 vhcurveto
          endchar
        </CharString>
        <CharString name="Z.alt">
          88 -15 70 -70 126 -96 -21 116 173 -66 66 386 70 -70 96 hstemhm
          356 59 104 70 hintmask 0100110110000000
          273 409 rmoveto
          -91 -153 -56 -91 -33 -54 rrcurveto
          -54 -4 -27 -30 -32 vvcurveto
          hintmask 0011010110000000
          -22 18 -29 39 21 27 11 25 20 vhcurveto
          hintmask 1001010110000000
          -22 73 79 -23 94 hhcurveto
          113 93 65 102 84 -64 47 -59 -69 -41 -55 -46 -43 28 -29 22 9 9 4 11 hvcurveto
          9 -9 10 22 vvcurveto
          hintmask 1000101110000000
          26 20 25 28 29 27 -22 -40 -70 -69 -30 -70 -63 -62 12 27 -86 vhcurveto
          36 65 64 103 66 111 rrcurveto
          152 256 40 67 30 vvcurveto
          28 -22 11 -25 vhcurveto
          hintmask 1001010110000000
          -28 -83 -26 -82 hhcurveto
          hintmask 1001001110000000
          -118 -50 26 -27 hhcurveto
          -21 -14 -12 -21 -54 136 -9 72 56 61 7 10 40 hvcurveto
          -26 -53 -47 -96 -76 -128 rrcurveto
          endchar
        </CharString>
        <CharString name="a">
          36 -10 -27 callgsubr
          hstemhm
          48 71 287 37 callgsubr
          hintmask 11110000
          -91 callgsubr
          hintmask 11101000
          -96 callgsubr
          endchar
        </CharString>
        <CharString name="aacute">
          36 -10 -27 callgsubr
          83 -5 callsubr
          48 71 124 145 18 37 callgsubr
          hintmask 11010100
          -91 callgsubr
          hintmask 11010010
          -96 callgsubr
          hintmask 00101000
          -16 335 -104 callsubr
        </CharString>
        <CharString name="acircumflex">
          36 -10 -27 callgsubr
          78 27 callsubr
          48 71 287 37 callgsubr
          hintmask 11011000
          -91 callgsubr
          hintmask 11010100
          -96 callgsubr
          hintmask 00100000
          27 231 -107 callsubr
        </CharString>
        <CharString name="acute">
          -250 593 167 hstem
          70 145 vstem
          215 722 -104 callsubr
        </CharString>
        <CharString name="adieresis">
          36 -10 -27 callgsubr
          106 -6 callsubr
          48 71 41 28 callgsubr
          -5 37 callgsubr
          hintmask 11010010
          -91 callgsubr
          hintmask 11010001
          -96 callgsubr
          hintmask 00101100
          -153 293 -105 callgsubr
        </CharString>
        <CharString name="ae">
          302 -15 66 -66 126 95 63 -18 65 74 125 -66 66 hstemhm
          39 71 607 71 hintmask 10011011
          110 150 rmoveto
          50 44 51 76 34 37 0 -24 67 vhcurveto
          -118 -76 -58 -72 -56 -54 40 59 vhcurveto
          678 206 rmoveto
          93 -79 66 -94 -87 -65 -46 -65 -42 vhcurveto
          65 -31 -65 46 -79 hhcurveto
          -105 -70 -56 -37 -22 15 -10 19 hvcurveto
          hintmask 10010111
          32 22 59 81 hhcurveto
          66 64 -35 -123 hvcurveto
          16 -56 -31 9 -62 hhcurveto
          -100 -82 -74 -90 -100 80 -67 98 77 71 37 84 43 -1 callgsubr
          hintmask 01101011
          14 -10 12 -17 vhcurveto
          -29 -30 -61 -101 hhcurveto
          -75 -73 76 91 -8 hvcurveto
          -6 30 59 -5 38 hhcurveto
          110 106 43 107 hvcurveto
          -71 2 rmoveto
          -60 -67 -29 -73 -44 -39 1 12 -48 vhcurveto
          79 16 59 89 94 hhcurveto
          71 31 -52 -40 hvcurveto
          endchar
        </CharString>
        <CharString name="agrave">
          36 123 0 97 193 endchar
        </CharString>
        <CharString name="ampersand">
          230 -15 68 210 86 -63 63 41 93 156 106 -65 65 hstemhm
          47 72 -21 70 145 27 125 70 10 198 -68 68 hintmask 1011101011100000
          298 -15 rmoveto
          160 77 118 81 43 -9 29 -18 30 hvcurveto
          113 122 43 126 87 -89 84 -71 -23 -15 -12 -19 -24 20 -9 34 -12 hvcurveto
          hintmask 1101101011010000
          47 -16 29 -31 -53 vvcurveto
          -72 -81 -29 -59 vhcurveto
          -48 -36 5 -41 hhcurveto
          -51 -46 -20 -35 -19 13 -17 22 hvcurveto
          27 13 18 27 hhcurveto
          32 18 -32 -55 -73 -65 -68 -102 -105 -74 78 104 75 39 59 64 32 hvcurveto
          -7 14 21 -4 17 hhcurveto
          32 34 16 32 28 -30 17 -36 -15 -17 -2 -4 -14 hvcurveto
          hintmask 1101010111100000
          -33 22 -27 48 44 vvcurveto
          55 41 34 61 vhcurveto
          hintmask 1101100111100000
          65 12 -41 31 hhcurveto
          15 17 10 23 36 -71 37 -69 -113 -59 -76 -79 -60 42 -56 34 -30 hvcurveto
          hintmask 1101101011100000
          -77 -50 -50 -81 -81 vvcurveto
          -138 101 -109 150 vhcurveto
          endchar
        </CharString>
        <CharString name="approxequal">
          59 120 62 -44 -21 61 62 34 62 -4 62 hstemhm
          hintmask 10010000
          513 361 -31 callgsubr
          hintmask 10001000
          -58 callsubr
          hintmask 10010000
          -29 callsubr
          3 -154 -31 callgsubr
          hintmask 01110000
          -58 callsubr
          hintmask 10010000
          -29 callsubr
          endchar
        </CharString>
        <CharString name="aring">
          36 190 0 97 202 endchar
        </CharString>
        <CharString name="arrowdown">
          5 callgsubr
          287 -10 rmoveto
          14 14 9 11 11 hvcurveto
          17 17 41 50 50 50 50 50 45 48 16 18 rrcurveto
          12 14 4 14 11 vvcurveto
          18 -16 15 -17 -12 -12 -7 -12 -12 vhcurveto
          -17 -17 -42 -54 -45 -52 -68 -81 rcurveline
          283 vlineto
          180 5 119 30 -43 callgsubr
          -22 -22 -16 -23 callsubr
          -30 5 -119 -180 vvcurveto
          -283 vlineto
          -68 81 -45 52 -42 54 -17 17 rlinecurve
          12 -12 -12 7 -12 hhcurveto
          -17 -16 -15 -18 -11 4 -14 12 -14 hvcurveto
          16 -18 45 -48 50 -50 50 -50 41 -50 17 -17 rrcurveto
          -11 11 14 -9 14 hhcurveto
          endchar
        </CharString>
        <CharString name="arrowleft">
          4 callgsubr
          785 346 rmoveto
          22 -21 16 -30 vhcurveto
          -30 -119 -5 -180 hhcurveto
          -283 hlineto
          81 68 52 45 54 42 17 17 rlinecurve
          12 12 7 12 12 vvcurveto
          17 -15 16 -18 -11 -14 -4 -12 -14 vhcurveto
          -18 -16 -48 -45 -50 -50 -50 -50 -50 -41 -17 -17 rrcurveto
          -11 -11 -9 -14 -14 vvcurveto
          -14 9 -14 11 -11 vhcurveto
          17 -17 50 -41 50 -50 50 -50 48 -45 18 -16 rrcurveto
          -12 14 14 -4 11 hhcurveto
          18 15 16 17 12 -7 12 -12 12 hvcurveto
          -17 17 -54 42 -52 45 -81 68 rcurveline
          283 hlineto
          180 119 -5 30 hhcurveto
          30 21 16 22 hvcurveto
          endchar
        </CharString>
        <CharString name="arrowright">
          4 callgsubr
          794 346 rmoveto
          14 -9 14 -11 11 vhcurveto
          -17 17 -50 41 -50 50 -50 50 -48 45 -18 16 rrcurveto
          12 -14 -14 4 -11 hhcurveto
          -18 -15 -16 -17 -12 7 -12 12 -12 hvcurveto
          17 -17 54 -42 52 -45 81 -68 rcurveline
          -283 hlineto
          -180 -119 5 -30 hhcurveto
          -30 -21 -16 -22 -22 21 -16 30 hvcurveto
          30 119 5 180 hhcurveto
          283 hlineto
          -81 -68 -52 -45 -54 -42 -17 -17 rlinecurve
          -12 -12 -7 -12 -12 vvcurveto
          -17 15 -16 18 11 14 4 12 14 vhcurveto
          18 16 48 45 50 50 50 50 50 41 17 17 rrcurveto
          11 11 9 14 14 vvcurveto
          endchar
        </CharString>
        <CharString name="arrowup">
          5 callgsubr
          325 41 rmoveto
          30 -5 119 180 vvcurveto
          283 vlineto
          68 -81 45 -52 42 -54 17 -17 rlinecurve
          -12 12 12 -7 12 hhcurveto
          17 16 15 18 11 -4 14 -12 14 hvcurveto
          -16 18 -45 48 -50 50 -50 50 -41 50 -17 17 rrcurveto
          11 -11 -14 9 -14 hhcurveto
          -14 -14 -9 -11 -11 hvcurveto
          -17 -17 -41 -50 -50 -50 -50 -50 -45 -48 -16 -18 rrcurveto
          -12 -14 -4 -14 -11 vvcurveto
          -18 16 -15 17 12 12 7 12 12 vhcurveto
          17 17 42 54 45 52 68 81 rcurveline
          -283 vlineto
          -180 -5 -119 -41 callgsubr
          16 -21 22 22 16 -66 callgsubr
          endchar
        </CharString>
        <CharString name="asciicircum">
          -14 389 -21 304 88 hstem
          481 398 rmoveto
          20 -17 25 -80 137 vhcurveto
          -38 66 -36 70 -12 22 rrcurveto
          14 -8 -14 8 -15 hhcurveto
          -13 -15 -9 -14 -8 hvcurveto
          -12 -22 -36 -70 -38 -66 rrcurveto
          -80 -137 -17 -25 -20 vvcurveto
          -16 11 -13 19 12 13 9 15 8 vhcurveto
          17 9 133 263 13 hhcurveto
          13 133 -263 -17 9 hvcurveto
          -15 8 13 -9 12 hhcurveto
          19 14 14 16 hvcurveto
          endchar
        </CharString>
        <CharString name="asciitilde">
          17 208 62 -44 -21 61 62 hstemhm
          hintmask 10000000
          494 295 -31 callgsubr
          hintmask 01100000
          -58 callsubr
          hintmask 10000000
          -29 callsubr
          endchar
        </CharString>
        <CharString name="asterisk">
          -111 445 -21 69 196 71 -20 hstemhm
          63 171 -44 44 -44 171 hintmask 11110000
          212 424 rmoveto
          20 13 17 24 14 -8 35 -3 41 hvcurveto
          -36 52 20 -26 24 hhcurveto
          hintmask 11100100
          16 15 12 18 37 -35 -5 -72 36 hvcurveto
          72 36 35 -5 37 vvcurveto
          18 -15 12 -16 vhcurveto
          hintmask 11101000
          -24 -20 -26 -36 -52 hvcurveto
          3 41 8 36 15 vvcurveto
          24 -13 17 -20 -20 -13 -17 -24 -15 8 -36 3 -41 vhcurveto
          36 -52 -20 26 -24 hhcurveto
          hintmask 11110000
          -16 -15 -12 -18 -37 35 5 72 -36 hvcurveto
          -72 -36 -35 5 -37 vvcurveto
          -18 15 -12 16 vhcurveto
          hintmask 11101000
          24 20 26 36 52 hvcurveto
          -3 -41 -8 -35 -14 vvcurveto
          -24 13 -17 20 vhcurveto
          endchar
        </CharString>
        <CharString name="at">
          468 -230 66 -66 145 76 67 358 66 162 66 hstemhm
          59 75 151 70 275 60 -60 80 169 75 hintmask 0111111101000000
          954 267 rmoveto
          280 -195 163 -251 -259 -190 -223 -269 -268 175 -180 215 167 110 83 32 18 -12 12 -15 vhcurveto
          hintmask 1011111101000000
          -35 -53 -79 -157 hhcurveto
          -166 -154 147 238 229 166 194 207 197 175 -133 -240 -163 -65 -50 -48 -70 -6 82 59 hvcurveto
          44 vlineto
          hintmask 1011111011000000
          10 84 10 54 32 vvcurveto
          41 -9 28 -30 -25 -12 -17 -28 -5 vhcurveto
          22 -31 -43 23 -50 hhcurveto
          -134 -86 -124 -132 -96 47 -139 130 89 57 62 64 28 hvcurveto
          -67 10 34 -59 87 hhcurveto
          103 84 116 160 hvcurveto
          -324 -51 rmoveto
          -82 -30 -60 -80 -74 hhcurveto
          -76 -35 91 82 113 73 76 77 56 37 -20 -31 32 hvcurveto
          endchar
        </CharString>
        <CharString name="atilde">
          36 57 0 97 196 endchar
        </CharString>
        <CharString name="b">
          17 -10 -27 callgsubr
          -30 callsubr
          288 71 hintmask 11110100
          505 261 rmoveto
          -36 callgsubr
          vhcurveto
          316 vlineto
          -67 callgsubr
          hintmask 11101100
          -35 18 -301 -116 vvcurveto
          -14 -89 -75 callsubr
        </CharString>
        <CharString name="backslash">
          18 callgsubr
          307 -112 rmoveto
          34 -45 159 -48 230 vhcurveto
          -45 215 -28 155 -8 37 rrcurveto
          28 -6 -15 14 -19 hhcurveto
          -25 -11 -18 -24 -32 46 -162 47 -227 hvcurveto
          45 -215 28 -155 8 -37 rrcurveto
          -26 5 15 -16 20 hhcurveto
          24 12 17 23 hvcurveto
          endchar
        </CharString>
        <CharString name="bar">
          -315 -249 -21 1070 -20 hstem
          80 60 vstem
          145 -220 rmoveto
          44 -5 181 250 260 4 189 46 vvcurveto
          30 -10 20 -24 -24 -10 -20 -30 vhcurveto
          -46 4 -189 -260 -250 -5 -181 -44 vvcurveto
          -30 11 -20 24 24 11 20 30 vhcurveto
          endchar
        </CharString>
        <CharString name="braceleft">
          1 callgsubr
          14 191 -84 69 -69 145 -130 54 -54 69 hintmask 11101000
          265 -193 rmoveto
          20 -17 16 -20 -28 -10 19 26 vhcurveto
          hintmask 11100001
          42 15 60 90 vvcurveto
          128 -21 27 -27 34 vhcurveto
          20 26 29 55 98 90 -15 60 42 vvcurveto
          26 10 21 28 vhcurveto
          hintmask 11100100
          20 17 16 20 20 -14 17 -23 -52 -56 -36 -74 hvcurveto
          hintmask 11100010
          -57 15 -65 -80 vvcurveto
          -49 -15 -72 -17 -20 vhcurveto
          5 -10 -15 1 -7 hhcurveto
          hintmask 11110000
          -37 -21 -27 -27 -38 26 -15 28 12 13 4 5 11 hvcurveto
          23 -12 8 -74 -49 -80 -15 -65 -57 vvcurveto
          -74 56 -34 52 23 14 17 20 vhcurveto
          endchar
        </CharString>
        <CharString name="braceright">
          1 callgsubr
          41 145 -85 192 -177 55 hintmask 11101000
          293 259 rmoveto
          27 -21 27 -37 -7 -15 -1 -5 -10 vhcurveto
          hintmask 11100100
          -17 20 -15 72 49 vvcurveto
          hintmask 11110000
          80 15 65 57 vvcurveto
          74 -56 36 -52 -23 -14 -17 -20 -20 17 -16 20 vhcurveto
          hintmask 11100100
          28 10 -21 -26 hvcurveto
          hintmask 11101000
          -42 -15 -60 -90 vvcurveto
          -98 29 -55 20 -26 vhcurveto
          -27 -34 -21 -27 -128 -90 15 -60 -42 vvcurveto
          -26 -10 -19 -28 -20 -17 -16 -20 -20 14 -17 23 52 56 34 74 vhcurveto
          57 -15 65 80 vvcurveto
          49 8 74 23 12 vhcurveto
          -5 11 13 -4 12 hhcurveto
          28 26 15 38 hvcurveto
          endchar
        </CharString>
        <CharString name="bracketleft">
          -187 -224 64 -42 -21 913 63 -3 -20 24 -20 hstemhm
          82 62 -62 240 hintmask 10100010
          322 -190 -73 callsubr
          -13 -34 -3 -40 hhcurveto
          -44 hlineto
          hintmask 10100100
          -1 57 -5 152 216 vvcurveto
          216 5 152 1 57 vhcurveto
          44 hlineto
          40 34 -3 13 hhcurveto
          hintmask 10100010
          -40 callgsubr
          hintmask 10010100
          -13 -39 -3 -35 hhcurveto
          hintmask 10001010
          -35 -29 4 -13 hhcurveto
          -24 -17 -13 -21 hvcurveto
          -61 6 -142 -252 -252 -6 -142 -61 vvcurveto
          -21 17 -13 24 vhcurveto
          13 29 4 35 hhcurveto
          hintmask 01100010
          35 39 -3 13 -49 callsubr
        </CharString>
        <CharString name="bracketright">
          -187 -223 63 -43 -21 914 64 -4 -20 23 -20 hstemhm
          26 240 -62 62 hintmask 10100100
          272 -190 rmoveto
          61 -6 142 252 252 6 142 61 vvcurveto
          21 -17 13 -24 vhcurveto
          hintmask 10010100
          -13 -29 -4 -35 hhcurveto
          hintmask 10001100
          -35 -39 3 -13 hhcurveto
          -98 callsubr
          hintmask 10100010
          13 34 3 40 hhcurveto
          44 hlineto
          1 -57 5 -152 -216 vvcurveto
          -216 -5 -152 -1 -57 vhcurveto
          -44 hlineto
          -40 -34 3 -13 hhcurveto
          hintmask 10100100
          -98 callsubr
          13 39 3 35 hhcurveto
          hintmask 01100100
          35 29 -4 13 hhcurveto
          24 17 13 21 hvcurveto
          endchar
        </CharString>
        <CharString name="breve">
          -120 598 63 -63 162 hstemhm
          hintmask 01000000
          355 720 rmoveto
          28 -14 12 -16 vhcurveto
          hintmask 10000000
          -45 7 -99 -80 hhcurveto
          hintmask 01000000
          -80 8 99 -45 hhcurveto
          -16 -14 -12 -28 -40 52 -82 95 95 53 82 40 hvcurveto
          endchar
        </CharString>
        <CharString name="brokenbar">
          -303 -209 -21 957 -20 hstem
          86 60 vstem
          151 385 rmoveto
          -59 callsubr
          -569 vmoveto
          -59 callsubr
          endchar
        </CharString>
        <CharString name="bullet">
          -246 276 234 hstem
          51 188 vstem
          239 404 rmoveto
          56 -28 50 -56 -64 -40 -62 -64 -54 30 -54 54 64 40 64 64 vhcurveto
          endchar
        </CharString>
        <CharString name="c">
          -26 -15 -4 callgsubr
          hintmask 01101000
          471 78 rmoveto
          13 -8 12 -17 vhcurveto
          hintmask 10011000
          -22 callsubr
          hintmask 10101000
          -34 callsubr
          -145 103 -120 142 91 89 59 34 hvcurveto
          endchar
        </CharString>
        <CharString name="caron">
          19 callsubr
          730 -78 callgsubr
        </CharString>
        <CharString name="ccedilla">
          -26 6 callsubr
          126 -4 callgsubr
          49 3 callgsubr
          398 26 callgsubr
          90 1 88 58 34 vvcurveto
          13 -8 12 -17 vhcurveto
          hintmask 1010011100000000
          -22 callsubr
          hintmask 1010101010000000
          -34 callsubr
          -123 74 -105 109 -28 hvcurveto
          hintmask 1010101001000000
          -82 96 -14 -32 vvcurveto
          -19 -25 -13 -27 vhcurveto
          hintmask 0110101010000000
          -59 callgsubr
        </CharString>
        <CharString name="cedilla">
          -204 6 callsubr
          -89 242 hstemhm
          43 228 -169 64 32 73 hintmask 00101100
          271 -137 rmoveto
          66 -105 8 53 vvcurveto
          22 -64 -38 vlineto
          -62 96 -14 -32 vvcurveto
          hintmask 10010000
          -19 -25 -13 -27 vhcurveto
          hintmask 01001100
          -59 callgsubr
        </CharString>
        <CharString name="cent">
          -1 -135 185 341 123 131 -20 hstemhm
          57 75 126 64 -64 215 hintmask 11111000
          482 78 rmoveto
          13 -8 12 -17 -26 -33 -48 -5 -74 vhcurveto
          -1 56 -1 71 83 vvcurveto
          73 0 64 1 52 vhcurveto
          -9 66 20 -49 30 hhcurveto
          hintmask 11110100
          19 15 15 22 35 -65 47 -84 4 hvcurveto
          1 40 1 28 12 vvcurveto
          30 -11 21 -23 -23 -11 -21 -30 -13 0 -29 1 -42 vhcurveto
          -126 -25 -76 -110 -125 vvcurveto
          -130 82 -110 119 -21 vhcurveto
          -1 -36 0 -25 -12 vvcurveto
          -30 12 -21 23 23 12 21 30 11 -1 24 -1 35 vhcurveto
          82 9 75 52 31 vvcurveto
          -220 182 rmoveto
          -79 -1 -68 -1 -55 vhcurveto
          -76 25 -52 78 91 vvcurveto
          92 57 77 72 22 vhcurveto
          -51 1 -62 -70 vvcurveto
          endchar
        </CharString>
        <CharString name="circumflex">
          19 callsubr
          618 -107 callsubr
        </CharString>
        <CharString name="colon">
          -309 -10 117 286 117 hstem
          66 94 vstem
          160 457 rmoveto
          -94 callgsubr
          -403 vmoveto
          -94 callgsubr
          endchar
        </CharString>
        <CharString name="comma">
          -325 -132 -21 255 -20 hstemhm
          57 94 vstemhm
          151 -54 callgsubr
          endchar
        </CharString>
        <CharString name="commaaccent">
          -321 -235 180 hstem
          125 -86 callsubr
          endchar
        </CharString>
        <CharString name="copyright">
          221 124 53 71 55 -55 80 224 83 -55 55 72 53 hstemhm
          64 60 80 61 366 61 hintmask 1010111110000000
          383 635 rmoveto
          -107 -72 -87 -109 -101 76 -90 103 75 46 40 17 14 -8 9 -14 hvcurveto
          hintmask 1100111110000000
          -19 -26 -25 -49 hhcurveto
          -70 -53 63 73 72 41 69 82 hvcurveto
          hintmask 1101011110000000
          41 18 -28 21 hhcurveto
          hintmask 1100111110000000
          25 2 21 7 30 -57 25 -55 hvcurveto
          309 -193 -83 callsubr
          endchar
        </CharString>
        <CharString name="currency">
          106 63 -21 22 -21 25 66 316 65 28 -43 callsubr
          62 121 -69 69 278 68 -68 117 hintmask 0111101010000000
          529 292 rmoveto
          44 -11 42 -20 35 vhcurveto
          31 29 20 20 9 9 rrcurveto
          hintmask 0111101001000000
          13 12 7 14 12 vvcurveto
          17 -17 17 -16 vhcurveto
          hintmask 0111011010000000
          -13 -14 -8 -11 -13 hvcurveto
          -53 -56 rlineto
          29 -35 -45 18 -51 hhcurveto
          -51 -45 -18 -30 -35 hvcurveto
          -55 57 rlineto
          13 -12 -14 7 -12 hhcurveto
          -17 -18 -18 -17 -12 8 -13 12 -13 hvcurveto
          8 -9 22 -21 32 -31 rrcurveto
          hintmask 0111100110000000
          -19 -34 -11 -41 -43 vvcurveto
          -43 10 -41 19 -34 vhcurveto
          -61 -59 rlineto
          hintmask 0111101010000000
          -13 -12 -7 -14 -12 vvcurveto
          -17 17 -17 16 13 14 8 11 13 vhcurveto
          53 55 rlineto
          -31 35 46 -18 53 hhcurveto
          51 45 18 30 35 hvcurveto
          26 -28 18 -19 8 -7 rrcurveto
          hintmask 1011101001000000
          -12 13 13 -8 12 hhcurveto
          18 17 18 17 12 -7 14 -13 12 hvcurveto
          -60 57 rlineto
          hintmask 0111101010000000
          20 35 11 41 44 vvcurveto
          -68 1 rmoveto
          -87 -64 -72 -76 -80 -58 70 87 87 64 72 76 79 59 -70 -87 vhcurveto
          endchar
        </CharString>
        <CharString name="d">
          53 -10 -27 callgsubr
          250 -20 hstemhm
          47 74 303 62 -62 91 hintmask 11111000
          424 228 rmoveto
          -86 -34 -50 -87 -89 hhcurveto
          -85 -45 98 87 120 79 85 82 59 49 -25 -33 34 hvcurveto
          132 -338 rmoveto
          13 -10 -1 -16 3 vhcurveto
          -38 7 -6 119 139 vvcurveto
          hintmask 11110100
          13 171 16 117 71 vvcurveto
          53 -23 19 -25 -28 -13 -17 -52 -19 0 -72 -2 -139 vhcurveto
          25 -34 -52 24 -56 hhcurveto
          -142 -93 -131 -140 -102 61 -147 138 95 53 66 68 37 hvcurveto
          -92 9 20 -42 41 hhcurveto
          43 12 42 17 hvcurveto
          endchar
        </CharString>
        <CharString name="dagger">
          -9 -138 -21 599 60 3 -20 277 -20 hstemhm
          40 250 -64 64 hintmask 10111000
          486 470 -73 callsubr
          hintmask 11010100
          -48 callgsubr
          hintmask 10111000
          -64 -60 3 -21 hhcurveto
          -98 callsubr
          hintmask 11011000
          6 callgsubr
          -215 -5 -152 -37 vvcurveto
          -30 14 -21 22 22 14 -66 callgsubr
          37 -5 152 215 vvcurveto
          144 vlineto
          -1 69 63 -2 23 -49 callsubr
        </CharString>
        <CharString name="daggerdbl">
          12 -148 -21 335 60 214 60 3 -20 277 -20 hstemhm
          237 65 hintmask 11101100
          300 296 rmoveto
          52 1 48 44 vvcurveto
          -1 69 63 -2 23 -86 callgsubr
          hintmask 11011100
          -80 callsubr
          hintmask 11101100
          -48 callgsubr
          hintmask 11011100
          -64 -60 3 -21 hhcurveto
          -98 callsubr
          hintmask 11101100
          6 callgsubr
          vvcurveto
          -70 vlineto
          36 callsubr
          -91 callsubr
          21 61 2 1 65 hvcurveto
          -1 -150 -3 -104 -41 callgsubr
          14 -21 22 22 14 21 30 30 -3 104 -2 150 vhcurveto
          -1 68 63 -2 23 hhcurveto
          -40 callgsubr
          -23 -63 -3 -68 hhcurveto
          endchar
        </CharString>
        <CharString name="degree">
          -201 423 55 182 55 hstem
          49 60 116 60 vstem
          285 569 rmoveto
          80 -46 66 -72 -72 -46 -66 -80 -80 46 -66 72 72 46 66 80 vhcurveto
          -60 hmoveto
          -50 -19 -41 -39 -38 -20 41 50 50 20 41 38 39 19 -41 -50 vhcurveto
          endchar
        </CharString>
        <CharString name="dieresis">
          -144 616 109 hstem
          70 28 callgsubr
          vstem
          161 680 -105 callgsubr
        </CharString>
        <CharString name="divide">
          23 40 111 80 60 80 111 hstem
          234 90 cntrmask 11100000
          497 261 rmoveto
          -56 callgsubr
          -20 17 -13 24 hvcurveto
          -18 callsubr
          76 76 -3 25 -86 callgsubr
          -173 -160 rmoveto
          -25 callgsubr
          331 vmoveto
          -25 callgsubr
          endchar
        </CharString>
        <CharString name="dollar">
          19 -110 161 -64 64 -64 137 521 155 hstemhm
          82 73 101 60 -60 214 -42 75 hintmask 10011101
          503 186 rmoveto
          102 -96 62 -91 54 vhcurveto
          98 1 83 1 60 vhcurveto
          -2 60 27 -44 37 hhcurveto
          hintmask 01011010
          18 10 14 14 38 -63 37 -87 8 hvcurveto
          39 vlineto
          30 -9 21 -25 -25 -9 -23 callsubr
          -39 vlineto
          -101 -11 -69 -64 -81 vvcurveto
          -86 87 -60 87 -50 vhcurveto
          -142 -1 -95 -1 -70 vhcurveto
          hintmask 00111101
          8 -108 -32 65 -32 hhcurveto
          -18 -12 -12 -19 -40 92 -59 108 -7 hvcurveto
          0 -1 -23 -23 vvcurveto
          hintmask 10011101
          -30 10 -41 callsubr
          10 21 30 23 -2 25 0 vhcurveto
          113 17 71 82 98 vvcurveto
          -75 1 rmoveto
          -72 -50 -51 -61 -10 vhcurveto
          -1 67 0 92 110 vvcurveto
          63 -39 49 -41 -56 vvcurveto
          -273 368 rmoveto
          55 46 29 53 6 vhcurveto
          2 -71 0 -136 0 vvcurveto
          -54 34 -47 41 42 vvcurveto
          endchar
        </CharString>
        <CharString name="dotaccent">
          -344 651 109 hstem
          50 91 vstem
          141 715 rmoveto
          -95 callsubr
        </CharString>
        <CharString name="dotlessi">
          8 callgsubr
          hstem
          79 66 vstem
          150 40 rmoveto
          30 -5 90 90 90 5 90 30 vvcurveto
          30 -13 -42 callgsubr
          -15 callsubr
          vhcurveto
          -30 5 -90 -90 -90 -5 -90 -41 callgsubr
          13 -20 25 25 13 20 30 vhcurveto
          endchar
        </CharString>
        <CharString name="e">
          4 -45 callsubr
          hstemhm
          419 71 hintmask 01111000
          -95 callgsubr
          hintmask 10111000
          -81 callsubr
          endchar
        </CharString>
        <CharString name="eacute">
          4 -45 callsubr
          78 -5 callsubr
          254 145 20 71 hintmask 01110010
          -95 callgsubr
          hintmask 10110010
          -81 callsubr
          hintmask 00001100
          -91 366 -104 callsubr
        </CharString>
        <CharString name="ecircumflex">
          4 -45 callsubr
          73 27 callsubr
          419 71 hintmask 01110100
          -95 callgsubr
          hintmask 10110100
          -81 callsubr
          hintmask 00001000
          -46 262 -107 callsubr
        </CharString>
        <CharString name="edieresis">
          4 106 0 101 200 endchar
        </CharString>
        <CharString name="egrave">
          4 121 0 101 193 endchar
        </CharString>
        <CharString name="eight">
          41 -15 66 598 66 hstemhm
          59 72 -34 70 242 70 -34 72 hintmask 11100100
          517 188 rmoveto
          101 -78 67 -78 38 vhcurveto
          hintmask 11011000
          63 40 55 48 76 vvcurveto
          84 -79 73 -113 -112 -78 -73 -84 -76 56 -48 70 -40 vhcurveto
          hintmask 11100100
          -84 -38 -80 -67 -101 vvcurveto
          -111 91 -92 138 138 91 92 111 vhcurveto
          -72 hmoveto
          -84 -69 -53 -88 -88 -69 53 84 77 75 55 82 35 vhcurveto
          82 -35 75 -55 -77 vvcurveto
          hintmask 11011000
          -36 370 rmoveto
          -54 -53 -38 -66 -36 vhcurveto
          -66 36 -57 38 54 vvcurveto
          53 60 38 62 62 58 -37 -54 vhcurveto
          endchar
        </CharString>
        <CharString name="ellipsis">
          48 -10 117 hstem
          56 94 94 94 94 94 cntrmask 01110000
          150 54 rmoveto
          -94 callgsubr
          188 hmoveto
          -94 callgsubr
          188 hmoveto
          -94 callgsubr
          endchar
        </CharString>
        <CharString name="emdash">
          313 231 -61 callsubr
          782 -46 callsubr
          -39 -146 -3 -132 -23 callgsubr
          -132 -146 3 -39 hhcurveto
          -98 callsubr
          hintmask 10000000
          39 146 3 132 -23 callgsubr
          132 146 -3 39 -49 callsubr
        </CharString>
        <CharString name="endash">
          33 231 -61 callsubr
          502 -46 callsubr
          -28 callgsubr
          -23 callgsubr
          -13 callgsubr
          hintmask 10000000
          33 callsubr
          hintmask 01100000
          76 76 -3 25 -49 callsubr
        </CharString>
        <CharString name="equal">
          57 159 60 -42 -21 147 60 3 -20 hstemhm
          hintmask 10010000
          514 333 -73 callsubr
          hintmask 10100000
          -28 callgsubr
          hhcurveto
          hintmask 10010000
          -13 callgsubr
          hintmask 10100000
          -18 callsubr
          76 76 -3 25 -86 callgsubr
          -144 vmoveto
          -56 callgsubr
          hvcurveto
          hintmask 01100000
          -20 17 -13 24 vhcurveto
          hintmask 10100000
          33 callsubr
          hintmask 01100000
          76 76 -3 25 -49 callsubr
        </CharString>
        <CharString name="eth">
          37 -10 64 370 64 49 204 22 -20 hstem
          48 72 311 79 vstem
          510 301 rmoveto
          133 -49 137 -93 84 vhcurveto
          52 44 20 8 26 vvcurveto
          18 -15 12 -15 -29 -10 -23 -46 -52 vhcurveto
          27 -47 -44 20 -62 hhcurveto
          -33 -15 -16 -15 -15 9 -11 15 -4 hvcurveto
          32 -9 38 8 57 -34 rrcurveto
          -52 -43 -25 -12 -23 vvcurveto
          -17 14 -13 16 28 6 21 54 59 vhcurveto
          58 -50 41 -68 17 -88 rrcurveto
          39 -29 -64 43 -80 hhcurveto
          -139 -71 -128 -114 -132 86 -124 139 164 73 136 175 hvcurveto
          -79 -62 rmoveto
          -105 -69 -80 -85 -90 -67 80 115 91 58 84 89 104 60 -97 -88 vhcurveto
          endchar
        </CharString>
        <CharString name="exclam">
          -293 -15 115 660 -20 hstemhm
          75 38 callgsubr
          79 hintmask 11001000
          167 48 rmoveto
          27 -14 25 -27 vhcurveto
          hintmask 11100000
          31 callgsubr
          hvcurveto
          hintmask 11001000
          31 20 32 31 hvcurveto
          -10 208 rmoveto
          hintmask 11010000
          30 -3 82 100 100 7 112 30 vvcurveto
          30 -14 20 -26 -26 17 callgsubr
          vhcurveto
          -30 7 -112 -100 -100 -3 -82 -41 callgsubr
          13 -20 23 23 13 20 30 vhcurveto
          endchar
        </CharString>
        <CharString name="exclamdown">
          -315 -209 -21 660 115 hstemhm
          64 38 callgsubr
          79 hintmask 11001000
          156 492 rmoveto
          26 -15 27 -26 vhcurveto
          hintmask 11100000
          33 callgsubr
          hvcurveto
          hintmask 11001000
          31 20 31 31 hvcurveto
          -6 -672 rmoveto
          hintmask 11010000
          30 -7 112 100 100 3 82 30 vvcurveto
          30 -13 20 -23 -23 -15 callsubr
          vhcurveto
          -30 3 -82 -100 -100 -7 -112 -41 callgsubr
          14 -20 26 26 14 20 30 vhcurveto
          endchar
        </CharString>
        <CharString name="f">
          -208 11 -21 450 62 -2 -20 189 91 -67 -10 callsubr
          202 -202 232 hintmask 11010010
          310 470 rmoveto
          22 -18 10 -20 vhcurveto
          -14 callgsubr
          hintmask 10110001
          38 9 -97 callsubr
          -85 vlineto
          hintmask 11010100
          -20 -9 2 -57 callgsubr
          2 20 hhcurveto
          -67 vlineto
          -180 -6 -78 callsubr
          14 -87 callgsubr
          35 32 -2 30 hhcurveto
          hintmask 11010010
          20 18 8 22 hvcurveto
          endchar
        </CharString>
        <CharString name="f.alt">
          -208 -102 -21 563 62 -2 -20 189 91 -67 67 hstemhm
          20 158 -70 202 -202 232 hintmask 10101001
          340 702 rmoveto
          27 -48 31 -56 -64 -64 -40 -135 vhcurveto
          -85 vlineto
          hintmask 11010100
          -20 -9 2 -57 callgsubr
          2 20 hhcurveto
          3 -76 1 -67 -86 vvcurveto
          -38 0 -43 -2 -49 vhcurveto
          -7 -163 -76 10 -34 vvcurveto
          -9 8 -10 27 47 68 63 143 47 -2 181 -1 131 vhcurveto
          35 32 -2 30 hhcurveto
          hintmask 11010010
          -50 callgsubr
          -14 callgsubr
          hintmask 11010001
          38 9 -24 28 hhcurveto
          19 9 15 18 hvcurveto
          endchar
        </CharString>
        <CharString name="f_b">
          354 -10 65 385 62 -2 -52 callgsubr
          29 -20 203 -45 callgsubr
          93 80 -60 60 288 71 hintmask 1001010100110000
          483 394 rmoveto
          166 5 86 -37 callgsubr
          hintmask 1100011001010000
          -96 callsubr
          hintmask 1100010011010000
          -50 callgsubr
          hintmask 1010011000110000
          -30 -32 -2 -35 hhcurveto
          -82 callgsubr
          11 -238 -147 vvcurveto
          hintmask 1000111000110000
          -14 -88 -6 -70 -34 vvcurveto
          -52 16 -23 30 -70 callgsubr
          -28 30 47 -23 53 hhcurveto
          136 89 131 140 -36 callgsubr
          hvcurveto
          288 -133 rmoveto
          -121 -77 -85 -77 -59 -38 25 33 -34 vhcurveto
          -5 154 rlineto
          98 32 63 80 79 hhcurveto
          77 39 -88 -96 hvcurveto
          endchar
        </CharString>
        <CharString name="f_f_b">
          663 -10 65 381 74 -6 -52 callgsubr
          184 -65 callsubr
          78 68 -68 203 92 80 -60 60 288 71 hintmask 1100011010011000
          1151 261 rmoveto
          -36 callgsubr
          vhcurveto
          166 5 86 -71 callgsubr
          -85 callgsubr
          hintmask 1010100110101000
          35 12 -97 callsubr
          -82 vlineto
          1 -17 -14 0 -8 hhcurveto
          hintmask 1100101010101000
          -103 callgsubr
          14 -41 callsubr
          13 -87 callsubr
          -2 38 31 -1 15 hhcurveto
          hintmask 1001011001011000
          30 21 11 23 23 -21 13 -30 -15 -32 -4 -1 -38 hvcurveto
          -82 callgsubr
          11 -238 -147 vvcurveto
          hintmask 1100101010101000
          -14 -88 -75 callsubr
        </CharString>
        <CharString name="f_f_h">
          689 10 -21 22 -21 446 63 -28 callsubr
          24 -20 180 -65 callsubr
          78 68 -68 203 92 81 -31 callsubr
          hintmask 0110000110101010
          625 760 rmoveto
          -85 callgsubr
          hintmask 0101001001101010
          35 12 -97 callsubr
          -82 vlineto
          1 -17 -14 0 -8 hhcurveto
          hintmask 0110001010101010
          -103 callgsubr
          14 -41 callsubr
          13 -87 callsubr
          -2 38 31 -1 15 hhcurveto
          hintmask 0100100110010110
          30 21 11 23 23 -21 13 -30 -15 -32 -4 -1 -38 hvcurveto
          -82 callgsubr
          11 -238 -147 vvcurveto
          hintmask 1010001010101001
          -14 -89 -6 -70 -34 vvcurveto
          -52 17 -23 29 -94 callsubr
          -79 callsubr
          hintmask 0100010110101010
          -76 callgsubr
          166 5 98 -71 callgsubr
          endchar
        </CharString>
        <CharString name="f_f_i">
          329 11 -49 callgsubr
          56 38 callgsubr
          78 hintmask 1100100101010000
          706 668 rmoveto
          -27 15 -22 26 vhcurveto
          hintmask 1100100101000100
          24 callsubr
          hintmask 1001100101010000
          -32 -20 -28 -32 hvcurveto
          84 -210 rmoveto
          25 -9 23 -30 vhcurveto
          hintmask 1100001101010000
          -14 callsubr
          hintmask 1100010100110000
          33 14 -97 callsubr
          -85 vlineto
          -1 -29 -29 0 -30 hhcurveto
          -54 -55 1 1 -47 hvcurveto
          75 vlineto
          hintmask 1100001101010000
          -44 callsubr
          hintmask 1010010011010000
          35 12 -97 callsubr
          -82 vlineto
          1 -17 -14 0 -8 hhcurveto
          hintmask 1100100101001000
          -103 callgsubr
          12 -88 callsubr
          -77 -76 -90 -6 -89 -41 callgsubr
          14 -21 24 25 15 -66 callgsubr
          30 -6 89 90 86 5 93 29 vvcurveto
          endchar
        </CharString>
        <CharString name="f_f_j">
          329 -171 -21 203 -49 callgsubr
          -17 151 -78 91 -77 64 hintmask 1100110010100100
          706 -32 callgsubr
          45 -162 rmoveto
          hintmask 1110000110101000
          -14 callsubr
          hintmask 1110001010010100
          33 14 -97 callsubr
          -85 vlineto
          -1 -29 -29 0 -30 hhcurveto
          -54 -55 1 1 -47 hvcurveto
          75 vlineto
          hintmask 1110000110101000
          -44 callsubr
          hintmask 1101001001101000
          35 12 -97 callsubr
          -82 vlineto
          1 -17 -14 0 -8 hhcurveto
          hintmask 1110010010100010
          -103 callgsubr
          12 -88 callsubr
          -100 -76 -86 1 -95 -29 vvcurveto
          hintmask 1100110010101000
          -77 callsubr
          8 callsubr
          26 -9 23 -30 vhcurveto
          endchar
        </CharString>
        <CharString name="f_f_k">
          623 11 37 callsubr
          142 63 -28 callsubr
          25 -20 179 -65 callsubr
          78 68 -68 203 94 81 -61 61 237 70 hintmask 1110000110101010
          625 760 rmoveto
          -85 callgsubr
          hintmask 1101001001101010
          35 12 -97 callsubr
          -82 vlineto
          1 -17 -14 0 -8 hhcurveto
          hintmask 1110001010101010
          -103 callgsubr
          14 -41 callsubr
          13 -87 callsubr
          -2 38 31 -1 15 hhcurveto
          hintmask 1100100110010110
          30 21 11 23 23 -21 13 -30 -15 -32 -4 -1 -38 hvcurveto
          76 vlineto
          98 73 19 69 45 25 -7 -8 26 vhcurveto
          -36 12 -237 -147 vvcurveto
          hintmask 1100010110101010
          -101 callgsubr
          23 -38 -34 -44 67 hvcurveto
          -74 callsubr
          165 4 98 -84 callsubr
          -61 hhcurveto
          endchar
        </CharString>
        <CharString name="f_f_l">
          336 11 -21 446 63 -28 callsubr
          184 -65 callsubr
          78 68 -68 203 106 66 hintmask 1100011010100000
          798 41 rmoveto
          30 -6 124 180 165 5 106 -71 callgsubr
          -85 callgsubr
          hintmask 1010100110100000
          35 12 -97 callsubr
          -82 vlineto
          1 -17 -14 0 -8 hhcurveto
          hintmask 1100101010100000
          -103 callgsubr
          14 -41 callsubr
          13 -87 callsubr
          -2 38 31 -1 15 hhcurveto
          hintmask 1001011001100000
          30 21 11 23 23 -21 13 -30 -15 -32 -4 -1 -38 hvcurveto
          -58 callgsubr
        </CharString>
        <CharString name="f_i">
          20 11 -21 450 62 -2 -20 26 -22 callgsubr
          57 38 callgsubr
          78 hintmask 1100100101000000
          397 668 rmoveto
          -27 15 -22 26 vhcurveto
          hintmask 1100100100010000
          24 callsubr
          hintmask 1010001101000000
          -32 -20 -28 -32 hvcurveto
          -222 -168 rmoveto
          76 vlineto
          -44 callsubr
          hintmask 1010010011000000
          33 14 -97 callsubr
          -85 vlineto
          hintmask 1100100100100000
          -20 -9 2 -57 callgsubr
          2 20 hhcurveto
          -67 vlineto
          -180 -6 -78 callsubr
          14 -88 callsubr
          -77 -76 -90 -6 -89 -41 callgsubr
          14 -21 24 25 15 -66 callgsubr
          30 -6 89 90 86 5 93 29 vvcurveto
          hintmask 1001100101000000
          25 -9 23 -30 vhcurveto
          hintmask 1010100101000000
          -32 -117 -6 -96 hhcurveto
          endchar
        </CharString>
        <CharString name="f_j">
          20 -171 -21 203 -21 450 60 2 -20 24 -22 callgsubr
          -16 151 -78 91 -77 64 hintmask 1110010010010000
          397 -32 callgsubr
          13 -441 rmoveto
          hintmask 1110010010001000
          -86 1 -95 -29 vvcurveto
          hintmask 1100110010100000
          -77 callsubr
          8 callsubr
          26 -9 23 -30 vhcurveto
          hintmask 1110000110100000
          -32 -117 -6 -96 hhcurveto
          -22 76 hlineto
          -44 callsubr
          hintmask 1110001001010000
          33 14 -97 callsubr
          -85 vlineto
          hintmask 1101010010100000
          -20 -9 2 -55 callsubr
          hvcurveto
          hintmask 1110010010100000
          -22 18 -8 20 vhcurveto
          5 26 2 20 hhcurveto
          -67 vlineto
          -180 -6 -78 callsubr
          14 -88 callsubr
          -100 -76 vvcurveto
          endchar
        </CharString>
        <CharString name="f_k">
          313 11 37 callsubr
          150 66 -10 -20 21 -52 callgsubr
          211 -45 callgsubr
          94 81 -61 61 237 70 hintmask 1110001100011000
          424 258 rmoveto
          hintmask 1110001010101000
          -101 callgsubr
          23 -38 -34 -44 67 hvcurveto
          -74 callsubr
          165 4 98 -33 callsubr
          hintmask 1100101010101000
          -84 vlineto
          hintmask 1100011100101000
          -96 callsubr
          hintmask 1100011001101000
          -50 callgsubr
          hintmask 1101001100011000
          -30 -32 -2 -35 hhcurveto
          -82 callgsubr
          12 -237 -147 vvcurveto
          endchar
        </CharString>
        <CharString name="f_l">
          27 11 -21 450 62 -2 -52 callgsubr
          212 -45 callgsubr
          107 66 hintmask 1001101010000000
          489 41 rmoveto
          30 -6 124 180 165 5 106 -37 callgsubr
          hintmask 1100110010000000
          -96 callsubr
          hintmask 1100100110000000
          -50 callgsubr
          hintmask 1010110010000000
          -30 -32 -2 -35 hhcurveto
          -58 callgsubr
        </CharString>
        <CharString name="fh">
          380 10 -21 22 -21 453 66 -9 -20 21 -52 callgsubr
          211 -45 callgsubr
          93 81 -31 callsubr
          hintmask 1010001100011000
          423 257 rmoveto
          hintmask 1010001100100100
          -14 -89 -6 -70 -34 vvcurveto
          -52 17 -23 29 -94 callsubr
          -79 callsubr
          hintmask 1010001010101000
          -76 callgsubr
          166 5 98 -33 callsubr
          hintmask 1000101010101000
          -84 vlineto
          hintmask 0100011100101000
          -96 callsubr
          hintmask 1000011001101000
          -50 callgsubr
          hintmask 1001001100011000
          -30 -32 -2 -35 hhcurveto
          -82 callgsubr
          11 -238 -147 vvcurveto
          endchar
        </CharString>
        <CharString name="five">
          40 -15 66 -66 188 226 66 171 64 5 -20 hstemhm
          83 79 288 72 hintmask 10110110
          522 233 rmoveto
          126 -73 106 -148 -42 -55 -16 -38 -50 vhcurveto
          0 8 67 52 vvcurveto
          51 -6 51 0 vhcurveto
          1 36 48 3 50 62 59 -5 21 hhcurveto
          30 18 15 22 hvcurveto
          hintmask 10101110
          22 -18 15 -30 vhcurveto
          hintmask 10110110
          -21 -59 -5 -62 hhcurveto
          hintmask 10101110
          -66 -63 5 -23 hhcurveto
          -22 -33 -5 -42 hvcurveto
          -35 11 -21 -71 -71 -13 -61 -32 vvcurveto
          -32 18 -10 21 vhcurveto
          35 43 74 99 hhcurveto
          96 57 -74 -91 -91 -68 -92 -96 -71 -39 33 38 -32 hvcurveto
          hintmask 01110110
          24 -20 -5 27 -26 hhcurveto
          -19 -12 -14 -20 -54 91 -100 127 156 86 122 126 hvcurveto
          endchar
        </CharString>
        <CharString name="four">
          43 11 -21 236 69 415 -20 hstemhm
          363 69 -69 176 hintmask 11110000
          437 40 rmoveto
          20 -3 65 -2 103 vhcurveto
          -1 26 18 -1 13 hhcurveto
          hintmask 11101000
          30 20 15 22 22 17 callsubr
          hvcurveto
          hintmask 11110000
          -13 -19 -2 -1 -25 hvcurveto
          215 5 110 28 vvcurveto
          47 -27 13 -25 -33 -20 -25 -22 -17 vhcurveto
          -117 -149 rlineto
          -143 -182 -30 -25 -40 vvcurveto
          -22 16 -18 29 vhcurveto
          30 95 4 94 25 26 -1 23 hhcurveto
          -1 -104 -3 -66 -20 vvcurveto
          -30 14 -20 25 25 14 20 30 vhcurveto
          -322 255 rmoveto
          45 64 146 187 58 68 rrcurveto
          0 2 -45 -95 vvcurveto
          -47 0 -59 -2 -73 vhcurveto
          endchar
        </CharString>
        <CharString name="fraction">
          -181 6 -21 780 -20 hstem
          208 376 -89 callsubr
          endchar
        </CharString>
        <CharString name="g">
          23 -11 callsubr
          390 65 hstemhm
          47 74 287 74 -62 62 hintmask 10111100
          408 234 rmoveto
          -98 -30 -65 -81 -75 hhcurveto
          -77 -40 89 96 120 83 85 77 55 38 -22 -36 34 hvcurveto
          -2 76 rmoveto
          25 -30 -46 22 -49 hhcurveto
          -136 -98 -131 -140 -112 60 -137 128 82 70 64 68 28 hvcurveto
          hintmask 10111010
          5 -33 0 -34 -5 vvcurveto
          -123 -63 -92 -109 vhcurveto
          hintmask 01111100
          -94 -22 37 -33 hhcurveto
          -15 -8 -11 -14 -34 88 -43 84 152 82 120 170 60 -12 122 0 hvcurveto
          14 89 6 70 34 vvcurveto
          52 -17 23 -29 -30 -7 -20 -27 -1 vhcurveto
          endchar
        </CharString>
        <CharString name="germandbls">
          9 -10 65 -65 107 343 62 -2 -20 213 67 hstemhm
          20 161 -73 73 60 75 35 75 16 73 hintmask 1010110111000000
          241 392 rmoveto
          -153 201 4 -113 vvcurveto
          -50 -42 -25 -33 vhcurveto
          hintmask 0101101111000000
          -54 -21 42 -24 hhcurveto
          -22 -11 -14 -20 -35 62 -38 70 86 62 60 81 hvcurveto
          152 -199 3 107 62 110 41 119 vvcurveto
          78 -51 67 -109 -79 -79 -40 -135 vhcurveto
          -85 vlineto
          hintmask 1010110111000000
          -20 -9 2 -57 callgsubr
          2 20 hhcurveto
          -67 vlineto
          -180 -6 -78 callsubr
          14 -41 callsubr
          14 -66 callgsubr
          535 vlineto
          98 42 19 44 49 35 -32 -59 vhcurveto
          -71 -110 -57 -82 vvcurveto
          endchar
        </CharString>
        <CharString name="grave">
          -250 593 167 hstem
          215 614 -100 callsubr
        </CharString>
        <CharString name="greater">
          8 93 -21 437 -20 hstem
          392 106 vstem
          498 294 rmoveto
          41 -56 15 -143 72 vhcurveto
          62 -124 -36 25 -35 hhcurveto
          -15 -18 -12 -22 -40 65 -6 133 -64 hvcurveto
          44 -21 79 -35 -15 vvcurveto
          -15 -78 -34 -45 -21 vhcurveto
          -134 -63 -65 -14 -36 vvcurveto
          -23 16 -16 20 32 59 38 53 103 vhcurveto
          130 67 68 14 50 vvcurveto
          endchar
        </CharString>
        <CharString name="greaterequal">
          21 callsubr
          395 108 hintmask 10110000
          503 -70 callsubr
          -2 326 rmoveto
          36 -70 26 -143 72 vhcurveto
          69 -136 -22 15 -25 hhcurveto
          -22 -13 -16 -18 -36 36 -3 133 -63 hvcurveto
          44 -21 112 -48 -15 vvcurveto
          -15 -79 -34 -45 -21 vhcurveto
          -131 -61 -69 -17 -33 vvcurveto
          -18 12 -13 20 28 63 37 51 107 vhcurveto
          132 63 68 23 40 vvcurveto
          endchar
        </CharString>
        <CharString name="guillemotleft">
          -28 -24 callgsubr
          44 192 17 192 vstem
          44 349 rmoveto
          -90 callsubr
          209 hmoveto
          -90 callsubr
          endchar
        </CharString>
        <CharString name="guillemotright">
          -29 -24 callgsubr
          62 192 17 192 vstem
          463 349 rmoveto
          -89 callgsubr
          -209 hmoveto
          -89 callgsubr
          endchar
        </CharString>
        <CharString name="guilsinglleft">
          -237 -24 callgsubr
          44 192 vstem
          44 349 rmoveto
          -90 callsubr
          endchar
        </CharString>
        <CharString name="guilsinglright">
          -238 -24 callgsubr
          62 192 vstem
          254 349 rmoveto
          -89 callgsubr
          endchar
        </CharString>
        <CharString name="h">
          42 11 -21 454 66 -30 callsubr
          277 71 -71 118 hintmask 11110010
          541 51 rmoveto
          -79 callsubr
          hintmask 11110100
          -76 callgsubr
          327 vlineto
          -67 callgsubr
          hintmask 11101010
          -35 18 -301 -116 vvcurveto
          -14 -89 -6 -70 -34 vvcurveto
          -52 16 -23 30 -94 callsubr
          vhcurveto
          endchar
        </CharString>
        <CharString name="hbar">
          42 11 -21 454 66 88 63 -63 162 hstemhm
          -22 169 -75 75 -75 242 109 71 -71 118 hintmask 1110001100000000
          314 631 -73 callsubr
          -21 -47 -3 -59 hhcurveto
          49 vlineto
          hintmask 1101100100000000
          30 -14 -42 callgsubr
          17 callgsubr
          -7 0 -19 1 -22 vhcurveto
          1 -23 -18 1 -9 hhcurveto
          -98 callsubr
          hintmask 1110010010000000
          9 20 1 1 24 hvcurveto
          6 -108 8 -157 -77 vvcurveto
          -14 -89 -6 -70 -34 vvcurveto
          -52 16 -23 30 -94 callsubr
          -79 callsubr
          hintmask 1110001100000000
          -76 callgsubr
          218 vlineto
          59 47 -3 21 -49 callsubr
        </CharString>
        <CharString name="hyphen">
          -107 231 -61 callsubr
          362 -46 callsubr
          -17 -41 -3 -49 -23 callgsubr
          -48 -43 3 -16 hhcurveto
          -98 callsubr
          hintmask 10000000
          16 43 3 48 -23 callgsubr
          49 41 -3 17 -49 callsubr
        </CharString>
        <CharString name="i">
          11 -16 callgsubr
          hintmask 11100100
          9 callgsubr
          hintmask 11110000
          22 callsubr
          hintmask 11100100
          24 callgsubr
          hintmask 11101000
          30 -5 90 90 90 5 90 30 vvcurveto
          30 -13 -42 callgsubr
          -15 callsubr
          vhcurveto
          -30 5 -90 -90 -90 -5 -90 -41 callgsubr
          13 -20 25 25 13 20 30 vhcurveto
          endchar
        </CharString>
        <CharString name="iacute">
          -21 0 245 194 endchar
        </CharString>
        <CharString name="icircumflex">
          8 callgsubr
          98 27 callsubr
          79 66 hintmask 11010000
          150 40 rmoveto
          30 -5 90 90 90 5 90 30 vvcurveto
          30 -13 -42 callgsubr
          -15 callsubr
          vhcurveto
          -30 5 -90 -90 -90 -5 -90 -41 callgsubr
          13 -20 25 25 13 20 30 vhcurveto
          hintmask 00100000
          108 578 -107 callsubr
        </CharString>
        <CharString name="idieresis">
          -83 0 245 200 endchar
        </CharString>
        <CharString name="igrave">
          8 callgsubr
          103 -5 callsubr
          79 66 hintmask 11010000
          150 40 rmoveto
          30 -5 90 90 90 5 90 30 vvcurveto
          30 -13 -42 callgsubr
          -15 callsubr
          vhcurveto
          -30 5 -90 -90 -90 -5 -90 -41 callgsubr
          13 -20 25 25 13 20 30 vhcurveto
          hintmask 00100000
          25 574 -100 callsubr
        </CharString>
        <CharString name="ij">
          -70 -168 -21 200 -16 callgsubr
          151 91 -79 65 hintmask 0111001000000000
          9 callgsubr
          hintmask 0111100000000000
          22 callsubr
          hintmask 0111001000000000
          24 callgsubr
          hintmask 0111010000000000
          30 -5 90 90 90 5 90 30 vvcurveto
          30 -13 -42 callgsubr
          -15 callsubr
          vhcurveto
          -30 5 -90 -90 -90 -5 -90 -41 callgsubr
          13 -20 25 25 13 20 30 vhcurveto
          hintmask 1011000100000000
          250 640 -102 callsubr
          hintmask 1011000010000000
          -14 -670 -77 callgsubr
          -77 callsubr
          endchar
        </CharString>
        <CharString name="itilde">
          -136 0 245 196 endchar
        </CharString>
        <CharString name="j">
          29 callsubr
          126 -6 callsubr
          67 91 -79 65 hintmask 11110000
          158 680 -102 callsubr
          hintmask 11101000
          -14 -670 -77 callgsubr
          -77 callsubr
          endchar
        </CharString>
        <CharString name="jcircumflex">
          29 callsubr
          98 27 callsubr
          -7 152 -66 66 hintmask 11001000
          144 10 -77 callgsubr
          hintmask 11010000
          -77 callsubr
          hintmask 00100000
          113 608 -107 callsubr
        </CharString>
        <CharString name="k">
          -25 11 37 callsubr
          150 66 -30 callsubr
          238 70 hintmask 11111010
          476 51 rmoveto
          23 -38 -34 -44 67 vhcurveto
          -74 callsubr
          327 vlineto
          -67 callgsubr
          hintmask 11110110
          -35 18 -301 -116 vvcurveto
          -101 callgsubr
          hvcurveto
          endchar
        </CharString>
        <CharString name="kcedilla">
          -25 13 callsubr
          209 95 150 66 -30 callsubr
          238 70 hintmask 10000000
          249 -86 callsubr
          hintmask 01111101
          227 106 rmoveto
          23 -38 -34 -44 67 vhcurveto
          -74 callsubr
          327 vlineto
          -67 callgsubr
          hintmask 01111011
          -35 18 -301 -116 vvcurveto
          -101 callgsubr
          hvcurveto
          endchar
        </CharString>
        <CharString name="kgreenlandic">
          -30 11 -21 22 -21 223 97 199 -20 hstemhm
          79 66 hintmask 01111000
          250 224 rmoveto
          -162 101 20 -71 54 hhcurveto
          39 18 33 28 22 -38 -32 -44 66 hvcurveto
          -91 154 rlineto
          66 57 67 104 54 vvcurveto
          17 -14 16 -18 -20 -12 -13 -22 -7 vhcurveto
          -16 -48 -42 -83 -53 -35 rrcurveto
          1 -10 -19 1 -9 hhcurveto
          -33 -23 -7 -7 -21 hvcurveto
          72 5 67 24 vvcurveto
          30 -13 -42 callgsubr
          -15 callsubr
          vhcurveto
          -30 5 -90 -90 -90 -5 -90 -30 vvcurveto
          hintmask 10111000
          -30 13 -20 25 25 13 20 30 30 -3 64 -2 84 vhcurveto
          0 24 -4 17 17 27 2 8 20 vhcurveto
          endchar
        </CharString>
        <CharString name="l">
          -39 callsubr
          hstem
          79 66 vstem
          150 40 rmoveto
          30 -5 125 180 180 5 125 30 vvcurveto
          30 -13 -42 callgsubr
          -15 callsubr
          vhcurveto
          -30 5 -125 -8 callgsubr
          -125 -41 callgsubr
          13 -20 25 25 13 20 30 vhcurveto
          endchar
        </CharString>
        <CharString name="ldot">
          -197 11 -21 333 117 320 -20 hstemhm
          79 66 85 94 hintmask 10110000
          150 40 rmoveto
          30 -5 125 180 180 5 125 30 vvcurveto
          30 -13 -42 callgsubr
          -15 callsubr
          vhcurveto
          -30 5 -125 -8 callgsubr
          -125 -41 callgsubr
          13 -20 25 25 13 20 30 vhcurveto
          hintmask 01001000
          174 347 rmoveto
          -94 callgsubr
          endchar
        </CharString>
        <CharString name="less">
          8 93 -21 437 -20 hstem
          45 106 vstem
          45 294 rmoveto
          -50 68 -14 130 -67 vhcurveto
          -53 103 59 -38 32 hhcurveto
          20 16 16 23 36 -65 14 -134 63 hvcurveto
          -45 21 -78 34 15 vvcurveto
          15 79 35 44 21 vhcurveto
          133 64 65 6 40 vvcurveto
          22 -18 12 -15 -35 -36 -25 -62 -124 vhcurveto
          -143 -72 -56 -15 -41 vvcurveto
          endchar
        </CharString>
        <CharString name="lessequal">
          21 callsubr
          60 108 hintmask 10110000
          496 -70 callsubr
          -4 143 rmoveto
          33 -69 17 -131 61 vhcurveto
          -45 21 -79 34 15 vvcurveto
          15 112 48 44 21 vhcurveto
          133 63 36 3 36 vvcurveto
          18 -13 16 -22 -25 -22 -15 -69 -136 vhcurveto
          -143 -72 -70 -26 -36 vvcurveto
          -40 68 -23 132 -63 vhcurveto
          -51 107 63 -37 28 hhcurveto
          20 12 13 18 hvcurveto
          endchar
        </CharString>
        <CharString name="logicalnot">
          99 90 201 -60 60 3 -20 hstemhm
          489 65 hintmask 00110000
          556 131 rmoveto
          9 -2 24 27 27 2 24 9 vvcurveto
          38 -29 5 -14 vhcurveto
          hintmask 01010000
          -27 -86 -3 -84 hhcurveto
          hintmask 00110000
          -84 -86 3 -27 hhcurveto
          -25 -16 -13 -20 -20 16 -13 25 hvcurveto
          hintmask 01010000
          27 86 3 84 hhcurveto
          67 67 -1 -1 39 hvcurveto
          -38 vlineto
          -27 -3 -24 -9 vvcurveto
          hintmask 10010000
          -25 15 -16 20 20 15 16 25 vhcurveto
          endchar
        </CharString>
        <CharString name="lslash">
          -279 -39 callsubr
          hstemhm
          1 163 -66 66 -66 205 hintmask 11100000
          169 40 rmoveto
          30 -5 125 180 vvcurveto
          47 vlineto
          7 6 49 41 49 37 17 14 rlinecurve
          hintmask 11001000
          -21 callgsubr
          hintmask 11010000
          -13 -11 -30 -28 -36 -31 rrcurveto
          2 111 3 75 23 vvcurveto
          30 -13 -42 callgsubr
          -15 callsubr
          -26 4 -97 1 -142 vhcurveto
          -36 -29 -31 -24 -13 -10 rrcurveto
          hintmask 11100000
          -21 callsubr
          hintmask 11010000
          37 33 rlineto
          -174 -5 -121 -29 vvcurveto
          -30 13 -20 25 25 13 20 30 vhcurveto
          endchar
        </CharString>
        <CharString name="m">
          342 11 -21 454 15 callsubr
          237 81 256 71 -71 118 hintmask 11101010
          841 51 rmoveto
          -79 callsubr
          hintmask 11101100
          43 5 52 62 vvcurveto
          101 -52 94 -106 -94 -51 -80 -47 -25 vhcurveto
          73 -18 -48 54 -82 hhcurveto
          -94 -51 -80 -47 -25 hvcurveto
          32 1 21 24 vvcurveto
          -67 callgsubr
          hintmask 11011010
          -35 17 -92 -26 callgsubr
          33 -3 69 -15 callgsubr
          91 23 67 95 65 hhcurveto
          66 36 -62 -124 hvcurveto
          -14 -89 -6 -70 -34 vvcurveto
          -52 16 -23 30 -70 callgsubr
          33 -3 69 -15 callgsubr
          91 23 67 95 65 hhcurveto
          66 35 -65 -87 hvcurveto
          -56 -4 -85 -43 vvcurveto
          -71 13 -47 54 29 26 26 35 vhcurveto
          endchar
        </CharString>
        <CharString name="macron">
          -99 640 -61 callsubr
          386 670 -73 callsubr
          hintmask 10000000
          -21 -47 -3 -59 -23 callgsubr
          -56 -53 3 -18 hhcurveto
          -98 callsubr
          hintmask 10000000
          18 53 3 56 -23 callgsubr
          59 47 -3 21 -49 callsubr
        </CharString>
        <CharString name="minus">
          97 231 -61 callsubr
          554 -46 callsubr
          -27 -86 -3 -84 -23 callgsubr
          -84 -86 3 -27 hhcurveto
          -98 callsubr
          hintmask 10000000
          27 86 3 84 -23 callgsubr
          84 86 -3 27 -49 callsubr
        </CharString>
        <CharString name="mu">
          76 -209 -21 220 66 453 -43 callsubr
          83 80 276 81 -81 128 hintmask 11011010
          92 -179 rmoveto
          -30 14 -41 callsubr
          14 21 30 21 -5 91 -2 107 vhcurveto
          -24 24 38 -26 45 hhcurveto
          85 64 81 47 27 hvcurveto
          -72 17 -56 46 33 25 24 37 13 -14 -5 -16 7 vhcurveto
          -34 14 -3 134 28 vvcurveto
          hintmask 11011100
          14 89 6 70 34 vvcurveto
          52 -16 23 -30 -30 -8 -23 callsubr
          -33 3 -69 -115 vvcurveto
          -91 -24 -72 -95 -69 hhcurveto
          -68 -42 56 77 hvcurveto
          167 5 59 33 vvcurveto
          hintmask 11101100
          30 -10 31 -30 -30 -16 -23 -52 -34 4 -79 11 -151 vhcurveto
          endchar
        </CharString>
        <CharString name="multiply">
          -31 90 -21 22 -21 371 -43 callsubr
          hintmask 10010000
          431 410 rmoveto
          17 -16 15 -17 -10 -10 -5 -10 -10 vhcurveto
          -17 -17 -48 -54 -51 -55 -52 55 -47 53 -17 17 rrcurveto
          hintmask 10100000
          10 -10 -10 5 -10 hhcurveto
          -17 -16 -15 -17 -10 5 -10 9 -10 hvcurveto
          18 -18 53 -50 53 -55 -54 -56 -55 -52 -18 -18 rrcurveto
          -9 -9 -5 -10 -10 vvcurveto
          -16 15 -16 16 10 11 5 10 10 vhcurveto
          18 17 49 56 53 56 53 -55 49 -56 18 -17 rrcurveto
          hintmask 01010000
          -10 10 11 -5 10 hhcurveto
          16 15 16 16 10 -5 10 -9 9 hvcurveto
          -18 18 -55 52 -54 56 53 55 53 50 18 18 rrcurveto
          9 10 5 10 10 vvcurveto
          endchar
        </CharString>
        <CharString name="n">
          44 11 -21 454 66 hstemhm
          71 78 -31 callsubr
          hintmask 11100100
          543 51 rmoveto
          -79 callsubr
          hintmask 11101000
          -76 callgsubr
          32 1 21 24 vvcurveto
          -67 callgsubr
          hintmask 11010100
          -35 17 -92 -75 vvcurveto
          -14 -89 -6 -70 -34 vvcurveto
          -52 16 -23 30 -94 callsubr
          vhcurveto
          endchar
        </CharString>
        <CharString name="nacute">
          44 185 0 110 194 endchar
        </CharString>
        <CharString name="nbspace">
          -297 endchar
        </CharString>
        <CharString name="nine">
          40 -10 72 185 64 340 64 hstem
          51 72 311 79 vstem
          51 479 rmoveto
          -109 71 -123 139 80 64 48 44 29 vhcurveto
          -154 -19 -113 -123 -160 hhcurveto
          -43 -12 -18 -19 -20 21 -15 43 213 149 191 253 157 -83 124 -154 -139 -86 -114 -122 hvcurveto
          72 -3 rmoveto
          103 67 72 90 85 69 -72 -93 -83 -60 -92 -104 -89 -58 79 86 vhcurveto
          endchar
        </CharString>
        <CharString name="notequal">
          23 43 176 -63 63 83 64 -64 171 hstemhm
          hintmask 10100000
          497 189 -73 callsubr
          -24 -71 -3 -73 hhcurveto
          58 83 rlineto
          -1 50 42 -1 18 hhcurveto
          -11 callgsubr
          -12 -27 -1 -1 -30 hvcurveto
          16 22 15 18 6 9 rrcurveto
          7 10 2 10 8 vvcurveto
          hintmask 10010000
          19 -17 13 -15 -18 -10 -13 -8 -6 vhcurveto
          -57 -89 rlineto
          hintmask 01100000
          -107 -76 3 -25 hhcurveto
          -98 callsubr
          24 72 3 73 hhcurveto
          -56 -84 rlineto
          1 -52 -43 2 -18 hhcurveto
          -98 callsubr
          12 29 1 31 hhcurveto
          -41 -53 rlineto
          -6 -9 -4 -11 -8 vvcurveto
          hintmask 10100000
          -17 10 -16 23 16 12 15 8 5 vhcurveto
          59 93 rlineto
          hintmask 01100000
          107 76 -3 25 -49 callsubr
        </CharString>
        <CharString name="ntilde">
          44 34 0 110 196 endchar
        </CharString>
        <CharString name="numbersign">
          268 6 -21 22 -21 228 60 167 59 3 -20 230 -43 callsubr
          hintmask 10110010
          472 274 rmoveto
          -176 hlineto
          32 167 rlineto
          176 hlineto
          20 -227 rmoveto
          73 48 -2 20 hhcurveto
          30 16 13 20 20 -16 13 -30 hvcurveto
          -19 -45 -3 -66 hhcurveto
          32 165 rlineto
          74 48 -3 20 hhcurveto
          30 16 13 20 hvcurveto
          hintmask 10101010
          20 -16 13 -30 vhcurveto
          hintmask 10110010
          -19 -44 -3 -66 hhcurveto
          19 99 18 57 25 vvcurveto
          0 callsubr
          -7 -52 -19 -90 rrcurveto
          -173 hlineto
          19 99 18 57 25 vvcurveto
          hintmask 10110100
          0 callsubr
          -6 -50 -19 -90 rrcurveto
          hintmask 10101010
          -72 -47 -4 callsubr
          44 3 66 hhcurveto
          -32 -165 rlineto
          -72 -48 -4 callsubr
          42 3 66 hhcurveto
          -21 -112 -18 -58 -27 vvcurveto
          -3 callgsubr
          54 19 100 rrcurveto
          173 hlineto
          -19 -111 -18 -59 -27 vvcurveto
          hintmask 01110010
          -3 callgsubr
          51 19 100 rrcurveto
          endchar
        </CharString>
        <CharString name="o">
          14 callsubr
          hstem
          35 callsubr
          vstem
          -90 callgsubr
          endchar
        </CharString>
        <CharString name="oacute">
          27 168 0 111 194 endchar
        </CharString>
        <CharString name="ocircumflex">
          27 75 0 111 195 endchar
        </CharString>
        <CharString name="odieresis">
          14 callsubr
          101 -6 callsubr
          46 71 38 28 callgsubr
          39 71 hintmask 11010010
          -90 callgsubr
          hintmask 00101100
          -270 430 -105 callgsubr
        </CharString>
        <CharString name="oe">
          373 -45 callsubr
          hstemhm
          46 71 671 71 hintmask 10111100
          859 356 rmoveto
          93 -79 66 -94 -94 -68 -53 -73 -41 vhcurveto
          76 -39 -72 50 -92 hhcurveto
          -136 -98 -120 -145 -147 96 -118 139 86 72 48 73 40 -1 callgsubr
          hintmask 01111100
          14 -10 12 -17 vhcurveto
          hintmask 10111100
          -81 callsubr
          -414 -105 rmoveto
          -110 -74 -91 -91 -94 -69 89 110 110 74 91 91 94 69 -89 -110 vhcurveto
          343 107 rmoveto
          -60 -67 -29 -73 -44 -39 2 14 -48 vhcurveto
          79 16 59 86 94 hhcurveto
          71 31 -52 -40 hvcurveto
          endchar
        </CharString>
        <CharString name="ogonek">
          -180 6 callsubr
          -89 224 hstemhm
          83 67 -67 228 hintmask 01001000
          311 -160 rmoveto
          8 -6 11 -13 vhcurveto
          hintmask 10010000
          -20 -22 -25 -42 hhcurveto
          -27 -31 14 33 hvcurveto
          hintmask 00101000
          32 26 43 76 38 vhcurveto
          -74 hlineto
          -53 -26 -42 -39 -56 vvcurveto
          -65 56 -38 63 62 47 39 31 vhcurveto
          endchar
        </CharString>
        <CharString name="ograve">
          14 callsubr
          78 -5 callsubr
          35 callsubr
          hintmask 11011000
          -90 callgsubr
          hintmask 00100000
          -183 364 -100 callsubr
        </CharString>
        <CharString name="one">
          -138 11 -21 720 -20 hstem
          226 68 vstem
          299 40 rmoveto
          28 -5 113 170 165 5 116 16 callsubr
          -17 21 -25 -40 -15 -44 -91 -79 vhcurveto
          -75 -87 -25 -17 -26 vvcurveto
          -16 13 -17 19 28 24 39 91 71 vhcurveto
          48 60 rlineto
          -251 vlineto
          -170 -5 -113 -28 vvcurveto
          -30 17 -20 22 22 17 20 30 vhcurveto
          endchar
        </CharString>
        <CharString name="onehalf">
          319 1 60 -54 -21 32 -21 327 104 -59 59 337 -43 callsubr
          41 200 -59 59 298 238 -65 65 hintmask 1001010101000000
          244 -85 callsubr
          hintmask 1001010011000000
          -62 callsubr
          559 -349 -64 callsubr
          hintmask 0010110100100000
          -47 callsubr
          hintmask 1001010101000000
          18 29 4 46 hhcurveto
          hintmask 0011001101000000
          10 callsubr
          -370 348 rmoveto
          73 208 59 108 38 vvcurveto
          28 -20 7 -10 -20 -15 -11 -40 -14 vhcurveto
          -11 -31 -40 -123 -65 -185 rrcurveto
          -73 -208 -57 -109 -38 vvcurveto
          hintmask 0101010101000000
          -28 20 -7 10 20 15 11 40 14 vhcurveto
          11 31 38 124 65 185 rrcurveto
          endchar
        </CharString>
        <CharString name="onequarter">
          309 23 callgsubr
          583 -43 callsubr
          41 200 -59 59 438 55 hintmask 10010101
          244 -85 callsubr
          hintmask 10001011
          -62 callsubr
          189 -1 -89 callsubr
          304 -344 rmoveto
          hintmask 01110101
          -88 callgsubr
          endchar
        </CharString>
        <CharString name="onesuperior">
          -238 359 -21 427 -20 hstemhm
          26 200 -59 59 hintmask 11100000
          229 -85 callsubr
          hintmask 11010000
          -62 callsubr
          endchar
        </CharString>
        <CharString name="ordfeminine">
          -125 392 53 210 55 hstem
          47 58 159 66 vstem
          318 546 rmoveto
          6 49 6 40 18 vvcurveto
          40 -13 17 -20 -19 -11 -13 -19 -3 vhcurveto
          18 -18 -27 14 -31 hhcurveto
          -83 -58 -80 -86 -68 37 -84 78 49 42 39 41 16 hvcurveto
          -44 5 10 -36 36 hhcurveto
          22 20 18 29 7 -13 -3 -8 6 hvcurveto
          -19 13 -4 69 15 vvcurveto
          -52 4 rmoveto
          -53 -16 -43 -52 -43 hhcurveto
          -36 -23 46 53 67 41 44 42 30 27 -14 -18 18 hvcurveto
          endchar
        </CharString>
        <CharString name="ordmasculine">
          -177 393 55 212 55 hstem
          48 60 142 60 vstem
          310 554 rmoveto
          90 -53 71 -78 -78 -53 -71 -90 -95 53 -66 78 78 53 66 95 vhcurveto
          -60 hmoveto
          -65 -25 -41 -46 -45 -26 41 65 60 26 46 45 46 25 -46 -60 vhcurveto
          endchar
        </CharString>
        <CharString name="oslash">
          27 -70 -21 76 65 400 65 72 -20 hstem
          35 callsubr
          vstem
          516 250 rmoveto
          95 -40 82 -66 47 vhcurveto
          12 27 14 24 25 vvcurveto
          22 -15 15 -20 -17 -14 -11 -24 -10 vhcurveto
          -5 -13 -5 -12 -7 -21 rrcurveto
          6 -20 -21 3 -22 hhcurveto
          -136 -98 -120 -145 -95 39 -82 65 -47 hvcurveto
          -12 -29 -15 -30 -20 vvcurveto
          -21 14 -17 21 18 14 12 23 9 vhcurveto
          18 50 rlineto
          -5 20 21 -4 23 hhcurveto
          136 99 120 145 hvcurveto
          -71 1 rmoveto
          -110 -74 -91 -91 -14 -13 2 3 -13 vhcurveto
          17 46 24 62 35 88 27 69 22 51 17 39 rrcurveto
          39 -37 24 -57 -65 vvcurveto
          -189 24 rmoveto
          -33 -81 -24 -58 -20 -45 rrcurveto
          -39 36 -23 57 65 vvcurveto
          110 74 91 91 13 14 -2 -4 12 vhcurveto
          -14 -38 -20 -54 -31 -77 rrcurveto
          endchar
        </CharString>
        <CharString name="otilde">
          27 32 0 111 196 endchar
        </CharString>
        <CharString name="p">
          35 -19 callsubr
          hstemhm
          55 91 -79 79 -61 61 303 74 hintmask 11110010
          449 -65 callgsubr
          32 1 23 24 vvcurveto
          30 -14 20 -25 vhcurveto
          hintmask 11101010
          -25 17 callgsubr
          hvcurveto
          hintmask 11100110
          -35 18 -106 -75 -21 -1 -53 1 vvcurveto
          hintmask 11110010
          -63 callsubr
        </CharString>
        <CharString name="paragraph">
          93 -209 -21 927 63 -3 -20 hstemhm
          261 66 128 66 hintmask 11011000
          527 -179 rmoveto
          41 -6 168 235 235 5 168 41 vvcurveto
          30 -18 21 -30 vhcurveto
          hintmask 10111000
          -18 -32 -3 -37 hhcurveto
          hintmask 11011000
          -44 -42 3 -15 hhcurveto
          -152 -2 -94 -83 -142 vvcurveto
          -111 89 -89 128 -5 vhcurveto
          -63 vlineto
          -235 -6 -168 -41 vvcurveto
          -30 13 -21 26 26 13 -66 callgsubr
          41 -6 168 235 vvcurveto
          216 4 158 1 56 vhcurveto
          1 17 20 1 22 hhcurveto
          22 20 -1 -1 17 hvcurveto
          -56 5 -158 -216 -235 -6 -168 -41 vvcurveto
          -30 14 -41 callsubr
          14 -66 callgsubr
          endchar
        </CharString>
        <CharString name="parenleft">
          -233 -209 -21 990 -20 hstemhm
          46 75 -75 236 hintmask 11100000
          282 724 rmoveto
          16 -10 20 -28 -72 -126 -244 -232 -131 26 -123 38 -89 vhcurveto
          -73 31 64 -98 44 hhcurveto
          16 3 13 8 25 -43 21 -48 111 hvcurveto
          -34 78 -22 103 110 vvcurveto
          154 39 124 45 80 vhcurveto
          hintmask 11010000
          41 73 36 19 35 vvcurveto
          endchar
        </CharString>
        <CharString name="parenright">
          -232 -209 -21 990 -20 hstem
          181 75 vstem
          256 284 rmoveto
          232 -126 244 -72 -28 -10 -20 -16 -35 36 -19 41 -73 vhcurveto
          45 -80 39 -124 -154 vvcurveto
          -110 -22 -103 -34 -78 vhcurveto
          -48 -111 -43 -21 -25 vvcurveto
          -8 3 -13 16 44 64 98 73 31 vhcurveto
          38 89 26 123 131 vvcurveto
          endchar
        </CharString>
        <CharString name="percent">
          269 -2 callgsubr
          48 11 callgsubr
          vstem
          585 706 -98 callgsubr
        </CharString>
        <CharString name="period">
          -328 -10 117 hstem
          56 94 vstem
          150 54 rmoveto
          -94 callgsubr
          endchar
        </CharString>
        <CharString name="periodcentered">
          -313 198 117 hstem
          64 94 vstem
          158 262 rmoveto
          -94 callgsubr
          endchar
        </CharString>
        <CharString name="perthousand">
          619 -2 callgsubr
          49 11 callgsubr
          54 64 168 64 vstem
          1108 158 rmoveto
          100 -57 73 -91 -87 -61 -77 -96 -100 57 -73 91 87 61 77 96 vhcurveto
          -64 hmoveto
          -66 -30 -50 -54 -56 -28 54 62 66 30 50 54 56 28 -54 -62 vhcurveto
          -458 548 -98 callgsubr
        </CharString>
        <CharString name="plus">
          -6 54 -21 198 60 -60 244 hstemhm
          47 249 -60 60 -60 247 hintmask 11000100
          483 -53 callgsubr
          hintmask 11001000
          36 callgsubr
          1 63 3 59 21 vvcurveto
          hintmask 10110000
          19 callgsubr
          hintmask 11001000
          -21 3 -59 1 -63 vhcurveto
          36 callsubr
          hintmask 11010000
          -98 callsubr
          hintmask 11001000
          22 60 2 1 66 hvcurveto
          -1 -69 -3 -65 -23 vvcurveto
          20 callgsubr
          23 -4 65 69 vvcurveto
          12 callsubr
          hintmask 11000100
          24 17 13 20 hvcurveto
          endchar
        </CharString>
        <CharString name="plusminus">
          35 0 60 -42 -21 131 228 -60 60 -60 214 hstemhm
          67 249 -60 60 -60 247 hintmask 10100001
          503 30 -73 callsubr
          -28 callgsubr
          -76 -76 3 -25 hhcurveto
          hintmask 01100100
          -98 callsubr
          hintmask 10100100
          33 callsubr
          hintmask 01100001
          76 76 -3 25 -86 callgsubr
          296 vmoveto
          -80 callsubr
          hintmask 10100010
          36 callgsubr
          1 50 3 45 18 vvcurveto
          hintmask 10001100
          19 callgsubr
          hintmask 10010010
          -18 3 -45 1 -50 vhcurveto
          36 callsubr
          hintmask 10010100
          -98 callsubr
          hintmask 10010010
          22 60 2 1 66 hvcurveto
          -1 -57 -3 -51 -19 vvcurveto
          hintmask 10100100
          20 callgsubr
          hintmask 10010100
          19 -4 51 57 vvcurveto
          12 callsubr
          hintmask 10100001
          24 17 13 20 hvcurveto
          endchar
        </CharString>
        <CharString name="q">
          18 -19 callsubr
          hstemhm
          48 71 288 60 -60 78 hintmask 11111000
          48 239 rmoveto
          -113 56 -136 128 81 61 54 62 33 vhcurveto
          -286 vlineto
          -30 14 -20 25 vhcurveto
          hintmask 11110100
          25 14 20 30 hvcurveto
          hintmask 11111000
          32 -18 283 107 vvcurveto
          14 89 6 70 34 vvcurveto
          52 -16 23 -30 -30 -8 -23 callsubr
          28 -30 -47 23 -53 hhcurveto
          -136 -89 -131 -140 hvcurveto
          71 hmoveto
          121 77 85 77 59 38 -25 -33 34 vhcurveto
          5 -154 rlineto
          -98 -32 -63 -80 -79 hhcurveto
          -77 -39 88 96 hvcurveto
          endchar
        </CharString>
        <CharString name="question">
          -84 -15 115 520 140 -64 64 hstemhm
          153 72 104 72 hintmask 11011000
          401 581 rmoveto
          100 -74 79 -112 -88 -78 -65 -43 -17 12 -15 19 vhcurveto
          hintmask 10111000
          41 2 76 97 hhcurveto
          51 58 -48 -67 hvcurveto
          -124 -176 -48 -150 vvcurveto
          -38 16 -18 21 21 14 17 39 vhcurveto
          123 176 45 154 vvcurveto
          -166 -533 rmoveto
          27 -14 25 -27 31 callgsubr
          31 20 32 31 vhcurveto
          endchar
        </CharString>
        <CharString name="questiondown">
          -92 -230 64 -64 140 520 115 hstemhm
          47 72 104 72 hintmask 01111000
          295 271 rmoveto
          38 -16 18 -21 -21 -14 -17 -39 vhcurveto
          -123 -176 -45 -154 vvcurveto
          -100 74 -79 112 88 78 65 43 17 -12 15 -19 vhcurveto
          hintmask 10111000
          -41 -2 -76 -97 hhcurveto
          -51 -58 48 67 hvcurveto
          124 176 48 150 vvcurveto
          10 221 rmoveto
          26 -15 27 -26 33 callgsubr
          31 20 31 31 vhcurveto
          endchar
        </CharString>
        <CharString name="quotedbl">
          -193 25 callgsubr
          85 80 -67 54 hintmask 11010000
          287 675 rmoveto
          30 -15 -42 callgsubr
          -15 -20 -30 vhcurveto
          hintmask 11001000
          -56 callsubr
          hintmask 11010000
          2 35 11 65 12 vvcurveto
          -152 hmoveto
          30 -15 -42 callgsubr
          -15 -20 -30 vhcurveto
          hintmask 10110000
          -56 callsubr
          hintmask 11010000
          2 35 11 65 12 vvcurveto
          endchar
        </CharString>
        <CharString name="quotedblbase">
          -145 -135 237 hstem
          57 94 86 94 vstem
          151 49 rmoveto
          -72 callgsubr
          180 hmoveto
          -72 callgsubr
          endchar
        </CharString>
        <CharString name="quotedblleft">
          -155 -24 callsubr
          50 88 -88 125 37 88 -88 125 hintmask 11101000
          306 32 callgsubr
          hintmask 11100100
          -68 callsubr
          -162 hmoveto
          32 -6 1 40 vvcurveto
          hintmask 11011000
          -68 callsubr
          endchar
        </CharString>
        <CharString name="quotedblright">
          -154 -24 callsubr
          48 125 -94 94 37 125 -94 94 hintmask 11011000
          173 678 rmoveto
          -46 callgsubr
          hintmask 11010100
          -55 callgsubr
          60 109 93 vhcurveto
          162 hmoveto
          -46 callgsubr
          hintmask 11100100
          -55 callgsubr
          60 109 93 vhcurveto
          endchar
        </CharString>
        <CharString name="quoteleft">
          -317 -24 callsubr
          50 88 -88 125 hintmask 11100000
          144 32 callgsubr
          hintmask 11010000
          -68 callsubr
          endchar
        </CharString>
        <CharString name="quoteright">
          -316 -24 callsubr
          79 94 vstemhm
          173 678 rmoveto
          -46 callgsubr
          hintmask 11100000
          -55 callgsubr
          60 109 93 vhcurveto
          endchar
        </CharString>
        <CharString name="quotesinglbase">
          -325 -135 237 hstem
          57 94 vstem
          151 49 rmoveto
          -72 callgsubr
          endchar
        </CharString>
        <CharString name="quotesingle">
          -345 25 callgsubr
          hintmask 11000000
          135 675 rmoveto
          30 -15 -42 callgsubr
          -15 -20 -30 vhcurveto
          hintmask 10100000
          -56 callsubr
          hintmask 11000000
          2 35 11 65 12 vvcurveto
          endchar
        </CharString>
        <CharString name="r">
          -127 11 -21 417 103 -66 15 callsubr
          hintmask 10110000
          152 41 rmoveto
          33 -3 40 -15 callgsubr
          97 16 73 118 44 hhcurveto
          hintmask 11010000
          -54 callsubr
          hintmask 11001000
          -37 callsubr
        </CharString>
        <CharString name="rcaron">
          -127 18 0 114 207 endchar
        </CharString>
        <CharString name="rcommaaccent">
          -127 13 callsubr
          417 103 -66 15 callsubr
          hintmask 10000000
          108 -86 callsubr
          hintmask 01011000
          44 96 rmoveto
          33 -3 40 -15 callgsubr
          97 16 73 118 44 hhcurveto
          hintmask 01101000
          -54 callsubr
          hintmask 01100100
          -37 callsubr
        </CharString>
        <CharString name="registered">
          221 124 53 87 208 -73 73 117 54 64 53 hstemhm
          64 60 117 60 151 59 120 61 hintmask 1011111110000000
          692 442 -83 callsubr
          -154 -102 rmoveto
          -20 25 -1 9 -26 42 rrcurveto
          54 25 27 38 47 vvcurveto
          52 -43 65 -104 -58 -65 -6 -41 vhcurveto
          -22 5 -59 -56 -55 -4 -80 -23 vvcurveto
          -26 12 -12 18 19 13 18 20 17 -2 38 -1 47 vhcurveto
          -1 6 14 -3 15 hhcurveto
          14 24 4 0 hvcurveto
          hintmask 1101111110000000
          -68 44 22 -71 43 hhcurveto
          25 18 21 25 14 -26 -20 -23 36 hvcurveto
          -25 187 rmoveto
          -40 -34 -26 -22 vhcurveto
          8 -23 -13 3 -13 hhcurveto
          -26 -12 -4 -5 -11 hvcurveto
          42 3 47 28 vvcurveto
          5 16 20 4 36 hhcurveto
          55 24 -33 -29 hvcurveto
          endchar
        </CharString>
        <CharString name="ring">
          -353 576 47 95 47 hstem
          0 47 88 47 vstem
          182 670 -63 callgsubr
        </CharString>
        <CharString name="s">
          -80 -10 65 -65 140 271 109 -65 65 hstemhm
          62 71 211 72 hintmask 10011100
          416 144 rmoveto
          155 -283 -2 79 vvcurveto
          41 44 28 46 vhcurveto
          hintmask 10101100
          80 8 -44 39 hhcurveto
          26 9 16 17 30 -49 46 -107 -94 -73 -65 -70 hvcurveto
          -145 282 20 -107 vvcurveto
          -60 -57 -28 -69 -34 -45 17 19 -20 vhcurveto
          hintmask 01101100
          19 -20 -12 20 -18 hhcurveto
          -21 -12 -14 -20 -45 87 -61 95 116 82 63 91 hvcurveto
          endchar
        </CharString>
        <CharString name="section">
          1 -235 66 -66 129 766 105 -66 66 hstemhm
          65 74 -38 80 188 80 -38 74 hintmask 10010101
          485 253 rmoveto
          176 -304 42 136 vvcurveto
          56 50 36 53 vhcurveto
          hintmask 10100110
          82 17 -39 33 hhcurveto
          17 11 13 15 42 -76 35 -84 -105 -78 -73 -87 -61 44 -48 56 -45 hvcurveto
          hintmask 10101010
          -81 -18 -55 -57 -79 -157 304 -51 -136 vvcurveto
          -74 -60 -48 -73 vhcurveto
          hintmask 01101010
          -98 -16 63 -37 hhcurveto
          -19 -12 -12 -18 -43 93 -56 89 126 87 90 98 51 -27 48 -39 36 hvcurveto
          hintmask 10101001
          61 33 41 62 70 vvcurveto
          -74 hmoveto
          -57 -35 -48 -51 -18 vhcurveto
          -86 61 -100 47 64 vvcurveto
          54 52 35 56 70 94 -72 -66 vhcurveto
          endchar
        </CharString>
        <CharString name="semicolon">
          -293 -132 -21 546 117 hstemhm
          76 94 vstemhm
          170 -54 callgsubr
          1 408 rmoveto
          -94 callgsubr
          endchar
        </CharString>
        <CharString name="seven">
          -45 11 -21 646 64 5 -20 hstemhm
          hintmask 10100000
          207 24 rmoveto
          10 28 10 70 91 208 rrcurveto
          82 186 65 96 46 vvcurveto
          42 -34 5 -26 vhcurveto
          hintmask 11000000
          -25 -67 -5 -70 hhcurveto
          hintmask 10100000
          -70 -67 5 -25 hhcurveto
          -30 -20 -12 -25 -25 20 -12 30 hvcurveto
          hintmask 11000000
          25 67 5 70 hhcurveto
          50 45 -3 -1 36 hvcurveto
          -20 -51 -44 -90 -56 -131 rrcurveto
          -76 -177 -46 -98 -55 vvcurveto
          -22 14 -18 20 17 15 11 23 9 vhcurveto
          endchar
        </CharString>
        <CharString name="six">
          42 -15 64 340 64 185 72 hstem
          62 79 311 72 vstem
          524 231 rmoveto
          104 -71 118 -139 -80 -64 -48 -44 -29 vhcurveto
          144 19 113 133 160 hhcurveto
          43 12 18 19 20 -21 15 -43 -213 -149 -201 -243 -157 83 -124 154 149 76 119 127 hvcurveto
          -72 -7 rmoveto
          -103 -64 -72 -90 -85 -72 72 93 83 60 92 104 89 58 -79 -86 vhcurveto
          endchar
        </CharString>
        <CharString name="slash">
          18 callgsubr
          92 -152 rmoveto
          20 15 16 26 5 hvcurveto
          8 37 28 155 45 215 rrcurveto
          47 227 46 162 32 vvcurveto
          24 -11 18 -25 -19 -15 -14 -28 -6 vhcurveto
          -8 -37 -28 -155 -45 -215 rrcurveto
          -48 -230 -45 -159 -34 vvcurveto
          -23 12 -17 24 vhcurveto
          endchar
        </CharString>
        <CharString name="space">
          -297 endchar
        </CharString>
        <CharString name="sterling">
          1 0 64 -48 -21 326 63 214 117 -66 66 hstemhm
          70 147 -108 72 -31 67 hintmask 10110001
          484 33 rmoveto
          24 -20 14 -30 vhcurveto
          -23 -62 -7 -66 hhcurveto
          -50 -47 0 1 -33 hvcurveto
          32 58 30 55 2 83 rrcurveto
          20 -1 23 -1 20 vhcurveto
          47 48 -3 55 hhcurveto
          -40 callgsubr
          -17 -41 -3 -101 hhcurveto
          hintmask 10101010
          -10 58 -15 54 54 vvcurveto
          65 47 34 63 vhcurveto
          hintmask 10110010
          78 15 -51 44 hhcurveto
          18 11 17 14 hvcurveto
          39 -1 -82 47 -73 hhcurveto
          -126 -66 -77 -89 -48 17 -56 12 -59 hvcurveto
          -17 -13 1 -7 hhcurveto
          -98 callsubr
          8 17 1 22 hhcurveto
          hintmask 10110001
          1 -18 1 -21 -18 vvcurveto
          hintmask 01110100
          -3 -123 -77 -44 -55 vvcurveto
          -30 21 -18 30 vhcurveto
          hintmask 10110100
          7 callgsubr
          hintmask 01110100
          66 62 -8 callsubr
          14 24 hvcurveto
          endchar
        </CharString>
        <CharString name="t">
          -198 -10 65 -65 86 363 64 -64 223 -160 -20 hstemhm
          20 161 -67 67 -67 202 hintmask 01100100
          314 56 rmoveto
          13 -10 7 -11 vhcurveto
          hintmask 10100010
          -17 -21 -21 -27 hhcurveto
          -45 -2 35 112 hvcurveto
          59 2 124 54 vvcurveto
          -1 37 33 -1 13 hhcurveto
          hintmask 10100001
          30 20 9 23 23 -20 11 -30 hvcurveto
          -13 -32 -4 -36 hhcurveto
          58 3 40 15 vvcurveto
          hintmask 10010010
          30 -13 -42 callgsubr
          -15 callsubr
          vhcurveto
          -15 2 -40 -57 vvcurveto
          hintmask 10001100
          1 -20 -16 1 -8 hhcurveto
          -30 -20 -8 -25 -25 20 -8 30 hvcurveto
          hintmask 10100100
          8 17 2 1 21 hvcurveto
          -99 1 -125 -97 vvcurveto
          -87 30 -41 57 49 61 39 27 vhcurveto
          endchar
        </CharString>
        <CharString name="thorn">
          33 -19 callsubr
          250 -20 hstemhm
          64 78 -59 59 305 74 hintmask 11111010
          447 -65 callgsubr
          329 vlineto
          -67 callgsubr
          hintmask 11110110
          -35 19 -315 -116 -21 -1 -53 1 vvcurveto
          -63 callsubr
        </CharString>
        <CharString name="three">
          33 -15 66 -66 161 490 64 4 -43 callsubr
          434 72 hintmask 10010100
          506 221 rmoveto
          106 -71 89 -132 27 vhcurveto
          105 128 71 39 48 vvcurveto
          42 -34 4 -26 vhcurveto
          hintmask 10100100
          -23 -63 -4 -66 hhcurveto
          hintmask 10001100
          -66 -63 5 -23 hhcurveto
          -30 -18 -15 -22 -22 18 -15 30 hvcurveto
          hintmask 10100100
          22 64 5 66 hhcurveto
          42 44 -3 -1 30 hvcurveto
          -40 -50 -27 -34 -89 -98 rrcurveto
          -72 -14 -28 -36 -29 vvcurveto
          -22 15 -18 28 29 22 13 42 42 vhcurveto
          86 -5 85 -61 -101 vvcurveto
          -96 -66 -72 -92 -83 -35 32 24 -26 vhcurveto
          hintmask 01100100
          16 -18 -12 23 -18 hhcurveto
          -19 -8 -16 -13 -46 89 -86 122 157 81 120 116 hvcurveto
          endchar
        </CharString>
        <CharString name="threequarters">
          359 23 callgsubr
          152 60 -60 111 87 234 -201 201 -62 -20 23 59 -3 -20 22 -20 hstemhm
          62 31 callsubr
          401 55 hintmask 1001000110010010
          485 377 -89 callsubr
          304 -344 rmoveto
          hintmask 0111010000001010
          -88 callgsubr
          -400 294 rmoveto
          63 -43 54 -74 16 vhcurveto
          hintmask 1001000100110010
          3 callsubr
          hintmask 1001000101010010
          -14 -20 -2 -39 hhcurveto
          hintmask 1001000100110010
          -12 callgsubr
          hintmask 1001000110001010
          -42 callsubr
          hintmask 1001010000010010
          -20 12 -14 24 vhcurveto
          hintmask 1001001000000110
          -26 callsubr
          hintmask 1000110000001010
          -32 callsubr
        </CharString>
        <CharString name="threesuperior">
          -165 334 60 -60 111 87 231 -198 198 -59 -20 23 56 2 -20 hstemhm
          56 31 callsubr
          hintmask 1010000010000000
          324 476 rmoveto
          63 -43 54 -74 16 vhcurveto
          hintmask 1000101100000000
          3 callsubr
          hintmask 1000110100000000
          -14 -20 -2 -39 hhcurveto
          hintmask 1000101100000000
          -12 callgsubr
          hintmask 1000110010000000
          -42 callsubr
          hintmask 1010000100000000
          -20 12 -14 24 vhcurveto
          hintmask 1001000001000000
          -26 callsubr
          hintmask 0110000010000000
          -32 callsubr
        </CharString>
        <CharString name="tilde">
          -38 597 -30 callgsubr
          hintmask 10010000
          427 682 -61 callgsubr
          hintmask 01100000
          -83 callgsubr
          hintmask 10010000
          -62 callgsubr
        </CharString>
        <CharString name="trademark">
          330 356 -21 360 56 3 -43 callsubr
          67 171 -54 54 -54 167 59 55 252 55 hintmask 1001001110000000
          351 725 rmoveto
          17 -16 13 -27 vhcurveto
          hintmask 1100100110000000
          -15 -38 -4 -44 hhcurveto
          hintmask 1010100110000000
          -47 -40 3 -16 hhcurveto
          -27 -14 -11 -18 hvcurveto
          hintmask 1100010110000000
          -19 14 -11 27 12 29 2 1 32 vhcurveto
          2 -24 1 -45 -82 -99 -3 -58 -17 vvcurveto
          -22 9 -16 21 21 9 16 22 vhcurveto
          17 -3 58 99 vvcurveto
          82 2 45 1 23 vhcurveto
          30 26 -2 11 hhcurveto
          hintmask 1001001110000000
          27 16 11 19 hvcurveto
          422 -8 rmoveto
          20 -12 18 -22 -15 -15 -7 -31 -15 vhcurveto
          -12 -26 -19 -45 -13 -32 -23 -56 -18 -40 -13 -26 -19 41 -53 122 -29 60 rrcurveto
          31 -15 -18 9 -20 hhcurveto
          -21 -12 -18 -20 hvcurveto
          -16 1 -57 -99 -93 -2 -63 -16 vvcurveto
          -22 8 -16 21 21 10 16 22 vhcurveto
          16 -3 63 93 vvcurveto
          41 0 34 1 29 vhcurveto
          69 -145 29 -68 7 -15 rrcurveto
          -14 7 9 -5 8 hhcurveto
          8 9 5 12 5 hvcurveto
          3 6 96 224 0 vvcurveto
          1 -29 0 -34 -41 -93 -3 -63 -16 vvcurveto
          -22 10 -16 21 21 8 16 21 vhcurveto
          16 -2 64 93 99 1 57 16 vvcurveto
          endchar
        </CharString>
        <CharString name="two">
          13 0 64 -48 -21 548 172 -66 66 hstemhm
          393 72 hintmask 10101000
          507 32 rmoveto
          20 -20 17 -30 vhcurveto
          -36 -79 -5 -75 hhcurveto
          -139 hlineto
          21 49 80 69 74 86 rrcurveto
          63 74 99 83 114 vvcurveto
          78 -65 98 -131 -126 -75 -99 -40 -18 14 -15 19 vhcurveto
          hintmask 01011000
          50 3 106 115 hhcurveto
          68 56 -49 -68 -73 -96 -96 -46 -51 hvcurveto
          -133 -148 -72 -60 -63 vvcurveto
          -32 20 -14 30 vhcurveto
          hintmask 10101000
          30 64 5 77 hhcurveto
          hintmask 01101000
          75 85 -5 30 -50 callsubr
          12 25 hvcurveto
          endchar
        </CharString>
        <CharString name="twosuperior">
          -161 338 60 -43 -21 327 104 -59 59 hstemhm
          62 238 -65 65 hintmask 10101000
          326 366 -64 callsubr
          hintmask 01010100
          -47 callsubr
          hintmask 10101000
          18 29 4 46 hhcurveto
          hintmask 01101000
          10 callsubr
          endchar
        </CharString>
        <CharString name="u">
          -9 callsubr
          7 callsubr
          276 128 hintmask 11011000
          419 242 rmoveto
          -93 callsubr
          -27 16 -21 -69 vvcurveto
          hintmask 11101000
          -99 callgsubr
          endchar
        </CharString>
        <CharString name="uacute">
          -9 callsubr
          103 167 7 callsubr
          96 145 35 128 hintmask 11001010
          419 242 rmoveto
          -93 callsubr
          -27 16 -21 -69 vvcurveto
          hintmask 11010010
          -99 callgsubr
          hintmask 00100100
          -35 480 -104 callsubr
        </CharString>
        <CharString name="ucircumflex">
          -9 callsubr
          98 172 7 callsubr
          276 128 hintmask 11001100
          419 242 rmoveto
          -93 callsubr
          -27 16 -21 -69 vvcurveto
          hintmask 11010100
          -99 callgsubr
          hintmask 00100000
          10 376 -107 callsubr
        </CharString>
        <CharString name="udieresis">
          -9 callsubr
          126 109 7 callsubr
          23 28 callgsubr
          2 128 hintmask 11001001
          419 242 rmoveto
          -93 callsubr
          -27 16 -21 -69 vvcurveto
          hintmask 11010001
          -99 callgsubr
          hintmask 00100110
          -162 438 -105 callgsubr
        </CharString>
        <CharString name="ugrave">
          49 109 0 117 193 endchar
        </CharString>
        <CharString name="underscore">
          41 -220 -61 callsubr
          526 -190 -73 callsubr
          hintmask 10000000
          -27 -86 -3 -84 -23 callgsubr
          -84 -86 3 -27 hhcurveto
          -98 callsubr
          hintmask 10000000
          27 86 3 84 -23 callgsubr
          84 86 -3 27 -49 callsubr
        </CharString>
        <CharString name="uni00AD">
          -107 231 -61 callsubr
          362 -46 callsubr
          -17 -41 -3 -49 -23 callgsubr
          -48 -43 3 -16 hhcurveto
          -98 callsubr
          hintmask 10000000
          16 43 3 48 -23 callgsubr
          49 41 -3 17 -49 callsubr
        </CharString>
        <CharString name="v">
          -50 8 callgsubr
          hstem
          244 80 rmoveto
          -10 -36 108 80 -29 hvcurveto
          -29 80 -30 99 -11 28 rrcurveto
          22 -9 -12 13 -20 hhcurveto
          -20 -15 -14 -21 -35 31 -62 51 -134 hvcurveto
          37 -98 29 -84 18 -36 rrcurveto
          -22 11 19 -14 25 hhcurveto
          25 16 18 19 10 hvcurveto
          15 29 35 91 35 98 rrcurveto
          53 149 30 57 23 vvcurveto
          23 -17 13 -19 -20 -10 -13 -23 -9 vhcurveto
          -11 -28 -29 -99 -29 -80 rrcurveto
          -80 -29 -36 -107 -10 hhcurveto
          endchar
        </CharString>
        <CharString name="w">
          251 -10 90 430 -20 hstem
          229 80 rmoveto
          -9 -31 109 79 -25 hvcurveto
          -25 80 -29 99 -9 28 rrcurveto
          23 -7 -13 12 -20 hhcurveto
          -20 -16 -14 -21 -29 29 -68 45 -134 hvcurveto
          33 -98 19 -62 14 -39 rrcurveto
          -34 12 15 -21 33 hhcurveto
          27 16 17 18 9 hvcurveto
          14 27 29 93 29 100 rrcurveto
          45 13 22 87 10 hhcurveto
          10 23 -88 -45 13 hvcurveto
          29 -100 22 -64 13 -38 rrcurveto
          -35 12 21 -17 25 hhcurveto
          27 17 11 27 11 hvcurveto
          11 27 31 92 31 98 rrcurveto
          48 151 23 55 23 vvcurveto
          25 -17 11 -19 -19 -11 -16 -23 -7 vhcurveto
          -9 -28 -24 -94 23 callsubr
          -9 -33 109 79 -23 hvcurveto
          -23 80 -25 99 -10 28 rrcurveto
          20 -7 -15 15 -21 hhcurveto
          -21 -14 -13 -23 -9 hvcurveto
          -11 -28 -27 -97 23 callsubr
          endchar
        </CharString>
        <CharString name="x">
          -43 6 -21 26 -6 callgsubr
          25 -20 hstemhm
          hintmask 10100000
          425 -15 rmoveto
          29 21 29 32 17 -29 -33 -61 79 hvcurveto
          -102 153 rlineto
          133 184 11 9 19 vvcurveto
          21 -16 15 -16 -13 -10 -8 -16 -11 vhcurveto
          -13 -18 -35 -54 -67 -101 rrcurveto
          hintmask 01010000
          158 -104 -23 44 -43 hhcurveto
          -29 -19 -27 -32 -20 29 33 62 -80 hvcurveto
          86 -128 rlineto
          -133 -194 -26 -13 -30 vvcurveto
          -22 19 -12 14 25 1 18 198 137 vhcurveto
          hintmask 10100000
          -156 107 30 -65 46 hhcurveto
          endchar
        </CharString>
        <CharString name="y">
          33 -11 callsubr
          455 -20 hstemhm
          62 81 -65 65 273 75 -72 72 hintmask 10111010
          -29 callgsubr
          hintmask 01111010
          -64 callgsubr
          hintmask 10111001
          -33 3 -69 -115 vvcurveto
          -93 callsubr
          hintmask 10110110
          -27 16 -21 -69 -44 -6 -49 -58 vvcurveto
          -106 55 -99 113 105 54 81 47 27 vhcurveto
          endchar
        </CharString>
        <CharString name="yacute">
          33 -11 callsubr
          455 -20 103 -5 callsubr
          62 81 -65 65 102 145 26 75 -72 72 hintmask 1011010010000000
          -29 callgsubr
          hintmask 0111010010000000
          -64 callgsubr
          hintmask 1011010001000000
          -33 3 -69 -115 vvcurveto
          -93 callsubr
          hintmask 1011001010000000
          -27 16 -21 -69 -44 -6 -49 -58 vvcurveto
          -106 55 -99 113 105 54 81 47 27 vhcurveto
          hintmask 0000100100000000
          -36 604 -104 callsubr
        </CharString>
        <CharString name="ydieresis">
          33 98 0 121 200 endchar
        </CharString>
        <CharString name="yen">
          50 -10 235 -58 58 79 58 353 -20 hstemhm
          77 249 -71 71 hintmask 10111000
          513 196 rmoveto
          20 -17 12 -24 vhcurveto
          36 callgsubr
          79 vlineto
          12 callsubr
          24 17 12 20 20 -17 12 -24 -19 -46 -2 -1 -53 hvcurveto
          89 157 rlineto
          78 137 8 6 21 vvcurveto
          18 -16 14 -19 -33 -3 -23 -141 -71 vhcurveto
          -38 -75 -32 -67 -24 -36 -23 36 -49 95 -35 70 rrcurveto
          90 -45 -17 51 -36 hhcurveto
          -20 -15 -15 -17 -30 18 -18 73 -128 hvcurveto
          82 -145 rlineto
          1 -49 -42 2 -17 hhcurveto
          -27 callsubr
          -79 vlineto
          -61 -56 3 -20 hhcurveto
          hintmask 01111000
          -27 callsubr
          -1 -63 -3 -49 -15 vvcurveto
          hintmask 10111000
          -30 12 -20 27 27 12 20 30 vhcurveto
          hintmask 01111000
          13 -2 46 -1 68 vhcurveto
          -1 65 59 -2 22 hhcurveto
          24 17 12 20 hvcurveto
          endchar
        </CharString>
        <CharString name="z">
          -57 0 60 -44 -21 445 60 5 -20 hstemhm
          hintmask 10010000
          445 30 rmoveto
          25 -20 10 -30 vhcurveto
          -23 -61 -5 -66 hhcurveto
          -38 -38 1 1 -30 hvcurveto
          25 37 39 55 56 75 rrcurveto
          132 178 40 22 41 vvcurveto
          25 -18 10 -30 vhcurveto
          hintmask 10100000
          -21 -59 -5 -62 hhcurveto
          hintmask 10010000
          -64 -60 5 -22 hhcurveto
          -30 -20 -10 -25 -25 20 -10 30 hvcurveto
          hintmask 01100000
          22 60 5 64 hhcurveto
          30 30 -2 -1 25 hvcurveto
          -20 -36 -37 -46 -62 -85 rrcurveto
          -134 -183 -38 -14 -43 vvcurveto
          -22 18 -13 30 vhcurveto
          hintmask 10100000
          7 callgsubr
          hintmask 01100000
          66 61 -8 callsubr
          10 25 hvcurveto
          endchar
        </CharString>
        <CharString name="zero">
          123 -15 66 598 66 hstem
          62 72 390 72 vstem
          596 350 rmoveto
          190 -102 175 -165 -165 -102 -175 -190 -190 102 -175 165 165 102 175 190 vhcurveto
          -72 hmoveto
          -155 -80 -144 -115 -115 -80 144 155 155 80 144 115 115 80 -144 -155 vhcurveto
          endchar
        </CharString>
      <CharString index="0">
        322 249 rmoveto
        48 46 -2 -1 40 hvcurveto
        38 -119 22 -78 10 -24 rrcurveto
        -28 12 15 -7 17 hhcurveto
        23 11 20 15 22 -26 61 -19 58 hvcurveto
        -9 27 -16 49 0 vvcurveto
        48 22 12 26 23 -20 16 -30 hvcurveto
        -9 -18 -1 -17 hhcurveto
        -50 142 -65 205 -14 35 rrcurveto
        35 -14 -14 25 -36 hhcurveto
        -34 -16 -37 -23 -8 hvcurveto
        -14 -41 -79 -239 -38 -103 rrcurveto
        1 -18 -14 0 -9 hhcurveto
        -30 -18 -14 -67 callsubr
        -30 -99 -36 -91 -27 vvcurveto
        -23 13 -14 20 17 12 10 27 10 vhcurveto
        9 23 22 78 35 118 rrcurveto
        2 43 51 1 51 hhcurveto
        63 vmoveto
        -42 -44 1 2 -37 hvcurveto
        0 105 331 15 12 103 -331 0 vhcurveto
        -2 -35 -25 -1 -52 hhcurveto
        return
      </CharString>
      <CharString index="1">
        -26 5 -81 -157 -185 -6 -125 -31 -92 callgsubr
        24 -5 93 149 vvcurveto
        0 35 -7 22 45 2 0 9 48 vhcurveto
        68 -152 55 -88 16 -23 rrcurveto
        -43 32 30 -13 18 hhcurveto
        30 29 26 38 29 -29 -45 -57 70 hvcurveto
        -28 36 -41 68 -51 120 rrcurveto
        95 40 56 86 84 vvcurveto
        -74 -6 rmoveto
        -74 -68 -64 -56 -11 vhcurveto
        10 -39 -33 0 -25 hhcurveto
        -27 -39 -8 -4 -15 hvcurveto
        -1 23 0 31 25 vvcurveto
        60 0 102 3 52 vhcurveto
        11 19 48 7 36 hhcurveto
        131 66 -70 -90 hvcurveto
        return
      </CharString>
      <CharString index="2">
        -102 callsubr
        160 hmoveto
        -95 callsubr
      </CharString>
      <CharString index="3">
        541 33 rmoveto
        16 callgsubr
        vhcurveto
        -24 -68 -5 -70 hhcurveto
        -52 -51 2 2 -35 hvcurveto
        -6 63 2 130 -1 102 rrcurveto
        1 21 25 1 24 78 76 -5 26 -50 callsubr
        12 25 25 -20 14 -30 hvcurveto
        -26 -76 -5 -78 hhcurveto
        -25 -23 1 1 -22 hvcurveto
        114 5 131 0 vhcurveto
        4 36 19 0 95 54 42 -5 54 -81 callgsubr
        return
      </CharString>
      <CharString index="4">
        -30 -18 -12 -23 -23 18 -10 30 hvcurveto
        40 -61 hlineto
        -180 -5 -78 callsubr
        13 -21 26 26 12 -87 callsubr
        1 47 55 2 54 30 31 -1 28 hhcurveto
        -65 vlineto
        -180 -5 -78 callsubr
        return
      </CharString>
      <CharString index="5">
        15 35 3 1 41 hvcurveto
        1 -45 4 -111 -152 vvcurveto
        -153 -4 -111 -1 -45 vhcurveto
        2 -41 -35 3 -15 hhcurveto
        -30 -20 -13 -25 hvcurveto
        return
      </CharString>
      <CharString index="6">
        -14 -89 -6 -70 -34 vvcurveto
        -52 16 -23 30 -82 callsubr
        79 hhcurveto
        44 18 -27 -27 -48 -49 -52 -48 -21 hvcurveto
        14 -13 -12 11 -23 hhcurveto
        -24 -22 -19 -27 -26 25 -23 35 hvcurveto
        -148 102 13 -61 51 hhcurveto
        39 18 33 28 return
      </CharString>
      <CharString index="7">
        hintmask 1011001000000000
        -104 callgsubr
        hintmask 1010101000000000
        -54 -42 -5 -54 hhcurveto
        hintmask 1011000100000000
        -95 -48 5 -50 hhcurveto
        -40 -13 -14 -24 -9 2 -14 10 -14 hvcurveto
        4 -34 1 -16 2 -193 rrcurveto
        1 -9 -6 0 -5 hhcurveto
        hintmask 1011001000000000
        -92 callsubr
        hintmask 0111000100000000
        5 6 0 1 9 hvcurveto
        -227 -5 -2 -101 vvcurveto
        -25 15 -13 30 vhcurveto
        hintmask 1011001000000000
        26 75 5 74 hhcurveto
        hintmask 0111001000000000
        -51 callsubr
        hvcurveto
        return
      </CharString>
      <CharString index="8">
        -44 -6 -49 -58 vvcurveto
        -106 55 -99 113 105 54 81 47 27 vhcurveto
        -72 17 -56 46 33 25 24 37 13 -14 -5 -16 7 vhcurveto
        -34 14 -3 134 28 vvcurveto
        14 89 6 70 34 vvcurveto
        52 -16 23 -30 -30 -8 -23 callsubr
        -33 3 -69 -115 vvcurveto
        return
      </CharString>
      <CharString index="9">
        rmoveto
        31 -19 23 -28 -41 -11 -70 -44 -14 vhcurveto
        -12 -14 -30 -6 -22 hhcurveto
        -51 -32 27 17 -21 hvcurveto
        24 -29 -34 19 -43 hhcurveto
        -87 -61 -77 -96 -100 57 -73 91 87 58 77 96 12 -2 18 -3 11 hvcurveto
        -6 20 27 -8 21 hhcurveto
        14 22 0 8 17 hvcurveto
        -114 -353 -89 -167 -38 vvcurveto
        -22 15 -12 16 12 16 4 25 10 vhcurveto
        8 21 198 567 0 vvcurveto
        21 23 35 41 40 vvcurveto
        -305 -164 rmoveto
        -66 -30 -50 -54 -56 -29 54 62 66 31 50 54 56 28 -54 -62 vhcurveto
        477 -384 rmoveto
        100 -57 73 -91 -87 -61 -77 -96 -100 57 -73 91 87 61 77 96 vhcurveto
        -64 hmoveto
        -66 -30 -50 -54 -56 -28 54 62 66 30 50 54 56 28 -54 -62 vhcurveto
        endchar
      </CharString>
      <CharString index="10">
        34 callsubr
        -66 callsubr
        hintmask 1000010001000000
        30 21 -72 callsubr
        -7 callgsubr
        -53 callsubr
        hintmask 1000100100000000
        -58 -54 5 -20 hhcurveto
        -92 callsubr
        hintmask 1001000010000000
        -102 callgsubr
        hintmask 0011000100000000
        -39 callgsubr
        -7 callgsubr
        -38 callgsubr
        hintmask 0101000100000000
        -76 callsubr
        hintmask 0000001000000000
        return
      </CharString>
      <CharString index="11">
        87 66 64 68 30 hvcurveto
        -72 19 -60 46 33 21 25 36 13 -14 -5 -16 7 vhcurveto
        -34 14 -3 134 28 vvcurveto
        -58 -9 rmoveto
        -98 -32 -63 -80 -79 hhcurveto
        -77 -39 88 96 121 77 85 77 59 38 -25 -33 34 hvcurveto
        return
      </CharString>
      <CharString index="12">
        419 358 rmoveto
        -60 -67 -29 -73 -44 -39 2 14 -48 vhcurveto
        79 16 59 86 94 hhcurveto
        71 31 -52 -40 hvcurveto
        71 -2 rmoveto
        93 -79 66 -94 -125 -81 -94 -112 -28 vhcurveto
        6 -12 -11 3 -7 hhcurveto
        -16 -13 -12 -20 -27 19 -15 34 -10 hvcurveto
        -127 6 78 -122 147 hhcurveto
        96 86 67 33 14 -10 12 -17 hvcurveto
        return
      </CharString>
      <CharString index="13">
        28 -14 25 -17 callgsubr
        -31 -32 -27 15 -27 27 32 20 32 32 vhcurveto
        return
      </CharString>
      <CharString index="14">
        -66 callgsubr
        30 -6 124 180 vvcurveto
        return
      </CharString>
      <CharString index="15">
        vvcurveto
        -30 19 -21 22 22 19 -66 callgsubr
        return
      </CharString>
      <CharString index="16">
        467 242 rmoveto
        14 89 6 70 34 vvcurveto
        52 -16 23 -30 -30 -8 -23 callsubr
        28 -30 -47 23 -53 hhcurveto
        -136 -89 -131 -140 -113 56 -136 128 hvcurveto
        return
      </CharString>
      <CharString index="17">
        445 251 rmoveto
        -110 -74 -91 -91 -94 -69 89 110 110 74 91 91 94 69 -89 -110 vhcurveto
        71 -1 rmoveto
        147 -95 118 -141 -136 -98 -120 -145 -147 96 -118 139 136 99 120 145 vhcurveto
        return
      </CharString>
      <CharString index="18">
        30 -35 20 -44 44 vhcurveto
        41 -41 -12 26 -29 hhcurveto
        -17 -14 -14 -19 -28 38 -14 32 -29 hvcurveto
        35 -31 13 -18 -8 vvcurveto
        -8 -13 -18 -35 -31 vhcurveto
        -32 -29 -38 -14 -28 vvcurveto
        -19 14 -14 17 29 12 26 41 41 vhcurveto
        44 44 35 20 30 vvcurveto
        return
      </CharString>
      <CharString index="19">
        10 -2 36 -1 51 vhcurveto
        -1 16 9 0 9 hhcurveto
        18 12 15 13 13 -12 14 -18 -8 -11 -1 -1 -15 hvcurveto
        111 3 68 14 vvcurveto
        32 -17 25 -25 -21 -19 -18 -23 -18 vhcurveto
        -149 -195 -12 -12 -24 vvcurveto
        -13 8 -17 25 vhcurveto
        18 57 3 56 12 16 -1 11 hhcurveto
        -1 -52 -2 -37 -10 vvcurveto
        -25 9 -18 21 22 9 18 25 vhcurveto
        -190 149 rmoveto
        25 34 74 104 32 36 rrcurveto
        0 1 -27 -51 vvcurveto
        -25 0 -32 -1 -39 vhcurveto
        return
      </CharString>
      <CharString index="20">
        -41 callsubr
        14 -93 callgsubr
        67 vlineto
        return
      </CharString>
      <CharString index="21">
        hhcurveto
        24 17 13 20 hvcurveto
        return
      </CharString>
      <CharString index="22">
        -103 -105 -39 -132 hvcurveto
        -89 vlineto
        -1 -29 -28 0 -30 hhcurveto
        -54 -55 1 1 -47 hvcurveto
        75 vlineto
        -44 callsubr
        return
      </CharString>
      <CharString index="23">
        -99 0 71 -56 -21 22 -21 688 67 -28 callsubr
        return
      </CharString>
      <CharString index="24">
        -48 -44 56 -69 hhcurveto
        -62 -48 -43 -45 -19 15 -17 19 hvcurveto
        37 2 61 47 hhcurveto
        return
      </CharString>
      <CharString index="25">
        76 vlineto
        98 73 19 69 44 25 -7 -8 26 vhcurveto
        -36 return
      </CharString>
      <CharString index="26">
        -50 callsubr
        13 25 16 callgsubr
        hvcurveto
        return
      </CharString>
      <CharString index="27">
        rmoveto
        114 -83 109 -194 -57 -163 -25 -63 -16 8 -17 22 5 5 1 1 6 vhcurveto
        return
      </CharString>
      <CharString index="28">
        18 hlineto
        -173 -5 -116 -29 -92 callgsubr
        29 -5 117 174 vvcurveto
        2 50 62 1 60 hhcurveto
        60 72 -2 -1 49 hvcurveto
        -174 -5 -117 -29 -92 callgsubr
        29 -5 116 172 vvcurveto
        16 hlineto
        return
      </CharString>
      <CharString index="29">
        rmoveto
        17 -13 13 -18 -27 -19 -36 -14 -13 vhcurveto
        -35 -33 -12 -13 -10 hhcurveto
        -10 -13 13 35 -33 hvcurveto
        14 -13 -19 36 -27 hhcurveto
        -18 -13 -13 -17 -22 20 -10 33 -31 hvcurveto
        -43 45 7 -36 40 hhcurveto
        40 8 36 43 45 hvcurveto
        34 32 19 9 22 vvcurveto
        endchar
      </CharString>
      <CharString index="30">
        rmoveto
        8 callsubr
        30 -13 -42 callgsubr
        -15 callsubr
        vhcurveto
        -30 5 -110 -90 -86 1 -95 -29 vvcurveto
        return
      </CharString>
      <CharString index="31">
        43 5 52 62 vvcurveto
        101 -55 94 -113 -9 callgsubr
        return
      </CharString>
      <CharString index="32">
        rmoveto
        31 -4 110 -1 163 vhcurveto
        -2 10 28 -3 17 hhcurveto
        28 12 4 5 27 hvcurveto
        76 -144 70 -118 23 -32 rrcurveto
        -51 36 25 -14 23 hhcurveto
        31 23 29 38 18 -27 -33 -56 68 hvcurveto
        -32 44 -84 144 -39 88 rrcurveto
        68 67 94 return
      </CharString>
      <CharString index="33">
        20 57 5 58 hhcurveto
        11 10 0 -1 11 hvcurveto
        1 -43 1 -112 -155 -35 -1 -33 -30 vvcurveto
        -167 -73 -53 -65 vhcurveto
        return
      </CharString>
      <CharString index="34">
        512 34 rmoveto
        24 17 callsubr
        vhcurveto
        -23 -62 -7 -66 hhcurveto
        -50 -49 1 4 -33 hvcurveto
        -1 50 -3 103 148 -10 callgsubr
        -16 21 -25 -25 -16 -23 callsubr
        -30 5 -127 -8 callgsubr
        -116 -30 vvcurveto
        return
      </CharString>
      <CharString index="35">
        28 -14 25 -17 callgsubr
        -31 -32 vhcurveto
        -32 8 -1 -40 -43 -3 -20 -17 vvcurveto
        -13 8 -8 12 33 36 102 82 vhcurveto
        return
      </CharString>
      <CharString index="36">
        -84 callsubr
        -60 hhcurveto
        return
      </CharString>
      <CharString index="37">
        30 8 -66 callgsubr
        return
      </CharString>
      <CharString index="38">
        -61 callgsubr
        hintmask 00011000
        -83 callgsubr
        hintmask 00100100
        -62 callgsubr
      </CharString>
      <CharString index="39">
        25 59 4 1 67 hvcurveto
        1 -45 4 -109 -158 -180 -5 -121 -30 vvcurveto
        -30 16 -21 25 25 16 9 callsubr
        157 4 109 1 45 vhcurveto
        -1 return
      </CharString>
      <CharString index="40">
        30 -14 -42 callgsubr
        17 callgsubr
        vhcurveto
        return
      </CharString>
      <CharString index="41">
        21 30 vhcurveto
        return
      </CharString>
      <CharString index="42">
        260 rmoveto
        -120 -79 -85 -82 -59 -49 25 33 -34 vhcurveto
        159 vlineto
        86 34 50 87 89 hhcurveto
        85 45 -98 -87 hvcurveto
        74 1 rmoveto
        102 -61 147 -138 -95 -48 -61 -68 -37 vhcurveto
        return
      </CharString>
      <CharString index="43">
        -84 -32 37 -33 hhcurveto
        -15 -8 -11 -14 -34 88 -43 84 158 86 120 170 60 -12 122 0 hvcurveto
        14 89 7 70 34 vvcurveto
        52 -16 23 -30 -30 -8 -23 callsubr
        return
      </CharString>
      <CharString index="44">
        rmoveto
        53 -39 42 -52 -52 -39 -42 -53 -53 35 -41 56 55 36 41 53 vhcurveto
        -47 hmoveto
        -24 -20 -23 -24 -24 -20 23 24 25 21 23 23 22 22 -23 -25 vhcurveto
        endchar
      </CharString>
      <CharString index="45">
        46 41 -55 64 hhcurveto
        47 39 40 45 hvcurveto
        endchar
      </CharString>
      <CharString index="46">
        rmoveto
        14 -8 14 -13 vhcurveto
        -22 -3 -51 -40 hhcurveto
        return
      </CharString>
      <CharString index="47">
        vvcurveto
        6 -11 -10 1 -5 hhcurveto
        -17 -11 -12 -16 -46 94 -31 128 249 124 189 190 hvcurveto
        -78 5 rmoveto
        -162 -98 -151 -200 -30 -35 return
      </CharString>
      <CharString index="48">
        -42 -22 25 -20 hhcurveto
        -13 -6 -11 -8 -27 37 -43 72 63 56 38 55 hvcurveto
        endchar
      </CharString>
      <CharString index="49">
        -82 callgsubr
        5 -120 -147 -180 -6 -78 callsubr
        13 -21 26 26 13 -66 callgsubr
        endchar
      </CharString>
      <CharString index="50">
        -55 callsubr
        -22 18 -8 20 hvcurveto
        5 26 return
      </CharString>
      <CharString index="51">
        -80 callsubr
        -28 callgsubr
        -76 30 callsubr
        return
      </CharString>
      <CharString index="52">
        -53 -37 -26 -21 vvcurveto
        -11 9 -8 11 45 return
      </CharString>
      <CharString index="53">
        -17 callsubr
        vvcurveto
        hintmask 11100000
        -55 callgsubr
        58 110 92 vhcurveto
        return
      </CharString>
      <CharString index="54">
        261 -73 callsubr
        return
      </CharString>
      <CharString index="55">
        -20 21 -20 return
      </CharString>
      <CharString index="56">
        rmoveto
        37 -1 39 44 vvcurveto
        149 1 110 1 46 vhcurveto
        15 hlineto
        return
      </CharString>
      <CharString index="57">
        20 18 8 22 22 -18 10 -20 hvcurveto
        return
      </CharString>
      <CharString index="58">
        -21 446 64 4 -20 22 -20 133 109 -59 -65 callsubr
        79 66 -66 232 return
      </CharString>
      <CharString index="59">
        -23 -63 -3 -68 hhcurveto
        2 109 2 75 25 vvcurveto
        30 -14 -5 callgsubr
        -14 -21 -30 -25 2 -75 1 -109 vhcurveto
        return
      </CharString>
      <CharString index="60">
        -34 21 -17 30 vhcurveto
        hintmask 10110000
        7 callgsubr
        hintmask 01110000
        66 62 -8 callsubr
        15 24 hvcurveto
        endchar
      </CharString>
</ttFont>
